{"glyphs":{"0":{"ha":876,"x_min":65,"x_max":810,"o":"m 439 -22 q 261 23 333 -22 q 146 142 189 68 q 84 306 103 217 q 65 482 65 394 q 88 660 65 569 q 158 826 111 750 q 276 948 206 901 q 444 994 347 994 q 616 949 546 994 q 728 828 686 903 q 790 665 771 754 q 810 489 810 576 q 788 313 810 403 q 722 147 767 222 q 606 24 676 71 q 439 -22 536 -22 m 447 61 q 533 94 499 61 q 587 184 568 128 q 614 312 606 240 q 622 460 622 383 q 615 625 622 544 q 588 770 607 706 q 533 874 568 835 q 442 913 497 913 q 352 879 388 913 q 294 789 317 846 q 263 660 272 732 q 254 511 254 589 q 258 390 254 453 q 274 269 263 328 q 308 164 286 211 q 363 89 329 117 q 447 61 397 61 z "},"1":{"ha":544,"x_min":14,"x_max":492,"o":"m 108 0 l 108 76 q 169 89 146 78 q 203 128 192 100 q 214 210 214 157 l 213 800 l 57 704 l 14 772 l 317 994 l 388 994 l 388 203 q 387 137 388 168 q 383 88 386 106 q 441 90 408 89 q 492 92 474 92 l 492 0 l 108 0 z "},"2":{"ha":742,"x_min":57,"x_max":674,"o":"m 57 0 q 77 129 57 72 q 131 233 97 186 q 207 320 165 279 q 293 403 249 361 q 432 570 390 494 q 474 718 474 646 q 462 810 474 765 q 418 883 450 854 q 328 911 386 911 q 250 890 285 911 q 200 839 215 868 q 220 805 214 824 q 226 771 226 786 q 218 736 226 756 q 191 703 210 717 q 140 689 172 689 q 81 719 101 692 q 60 782 60 746 q 79 850 60 814 q 137 919 99 886 q 231 974 175 953 q 358 994 286 994 q 468 981 414 994 q 567 937 522 967 q 638 858 611 907 q 664 736 664 808 q 651 663 664 701 q 604 578 638 624 q 514 476 571 532 q 369 347 457 419 q 242 222 286 279 q 190 131 199 165 l 454 124 q 530 127 497 122 q 581 152 563 132 q 600 215 600 172 l 674 215 l 664 0 l 57 0 z "},"3":{"ha":776,"x_min":53,"x_max":717,"o":"m 351 -22 q 183 8 249 -22 q 85 85 117 39 q 53 176 53 132 q 76 243 53 215 q 138 272 99 271 q 186 260 168 274 q 212 228 204 247 q 219 193 219 208 q 214 163 219 179 q 199 132 208 146 q 254 82 214 99 q 339 65 294 65 q 480 118 431 65 q 529 257 529 171 q 510 359 529 310 q 444 441 492 408 q 310 472 397 474 q 279 471 300 472 q 244 468 258 469 l 244 556 q 268 554 257 554 q 290 554 279 554 q 398 581 356 554 q 462 648 440 607 q 485 736 483 689 q 472 827 485 788 q 427 889 458 867 q 343 911 396 911 q 262 888 297 911 q 215 839 226 865 q 233 807 228 825 q 238 775 238 789 q 230 741 238 760 q 203 708 222 722 q 154 696 185 694 q 95 724 115 697 q 75 786 75 750 q 107 876 75 826 q 203 960 139 925 q 364 994 268 994 q 515 971 447 994 q 624 893 583 947 q 664 750 664 839 q 643 667 664 711 q 575 585 622 622 q 449 526 528 547 q 649 434 582 506 q 717 267 717 363 q 668 108 717 172 q 537 10 619 43 q 351 -22 454 -22 z "},"4":{"ha":757,"x_min":17,"x_max":711,"o":"m 574 203 q 572 137 574 168 q 568 86 571 106 q 624 90 593 89 q 674 90 656 90 l 674 0 l 293 0 l 293 76 l 301 76 q 362 90 339 78 q 397 131 385 101 q 408 215 408 161 l 408 257 l 17 257 l 17 367 l 501 994 l 574 994 l 574 368 l 711 368 l 711 257 l 574 257 l 574 203 m 407 735 l 133 374 l 408 371 l 410 735 l 407 735 z "},"5":{"ha":753,"x_min":65,"x_max":701,"o":"m 349 -22 q 196 7 260 -22 q 99 81 132 36 q 65 168 65 125 q 88 234 65 206 q 149 264 110 263 q 197 252 179 265 q 223 219 215 239 q 231 183 231 200 q 226 156 231 171 q 215 128 222 140 q 243 91 221 106 q 293 69 265 76 q 344 61 321 61 q 441 93 404 63 q 494 172 478 124 q 511 271 511 221 q 506 348 511 306 q 483 431 501 390 q 428 497 465 471 q 328 522 392 522 q 278 517 307 522 q 217 501 250 513 q 156 472 185 490 l 103 515 l 99 972 l 458 972 q 546 990 517 972 q 575 1063 575 1008 l 646 1063 l 636 851 l 192 843 l 192 576 q 273 601 224 590 q 371 611 322 611 q 519 585 457 611 q 622 515 582 560 q 682 415 663 471 q 701 299 701 360 q 651 122 701 193 q 519 14 600 50 q 349 -22 439 -22 z "},"6":{"ha":800,"x_min":68,"x_max":738,"o":"m 403 -22 q 206 35 279 -22 q 100 199 132 93 q 68 450 68 306 q 78 569 68 500 q 111 712 88 638 q 178 851 135 786 q 288 955 221 915 q 449 994 354 994 q 590 965 535 994 q 672 894 646 936 q 699 811 699 851 q 679 749 699 776 q 621 722 660 722 q 557 748 575 721 q 539 800 539 775 q 543 828 539 811 q 557 860 547 846 q 519 897 547 879 q 449 913 490 914 q 365 885 400 911 q 308 815 331 858 q 273 722 286 772 q 253 619 260 671 q 246 525 247 568 q 294 567 264 547 q 364 601 325 588 q 443 615 403 614 q 578 592 522 617 q 669 524 633 568 q 721 421 704 479 q 738 297 738 363 q 694 138 738 211 q 575 22 651 65 q 403 -22 499 -22 m 408 61 q 494 90 463 61 q 538 165 525 118 q 551 264 551 213 q 547 342 551 299 q 527 426 542 385 q 484 494 513 467 q 407 521 456 521 q 342 505 374 521 q 285 464 310 489 q 247 408 260 439 q 257 294 249 354 q 283 181 265 233 q 332 94 301 128 q 408 61 363 61 z "},"7":{"ha":647,"x_min":24,"x_max":619,"o":"m 275 -22 q 222 1 238 -21 q 207 51 207 24 q 222 126 207 81 q 257 224 236 171 q 299 326 278 276 q 356 464 324 385 q 430 640 389 543 q 519 847 471 736 l 203 849 q 123 826 153 849 q 93 746 93 803 l 24 746 l 31 972 l 619 972 l 619 857 q 536 667 571 758 q 474 483 501 575 q 421 291 446 390 q 367 76 396 192 q 335 8 357 39 q 275 -22 314 -24 z "},"8":{"ha":790,"x_min":79,"x_max":728,"o":"m 390 -22 q 286 -10 340 -22 q 185 30 232 3 q 108 103 138 57 q 79 215 79 149 q 108 322 79 272 q 180 413 136 371 q 272 483 224 454 q 135 609 175 542 q 96 733 96 676 q 124 851 96 801 q 197 932 151 900 q 297 979 243 964 q 404 994 350 994 q 540 968 476 994 q 644 890 604 942 q 685 763 685 838 q 660 669 685 713 q 595 590 635 625 q 513 529 556 556 q 628 442 581 489 q 702 343 676 394 q 728 236 728 292 q 681 90 728 147 q 556 5 633 32 q 390 -22 479 -22 m 392 61 q 508 101 467 60 q 550 208 550 143 q 507 327 550 267 q 353 440 464 388 q 262 335 290 393 q 231 233 233 278 q 273 111 228 160 q 392 61 318 63 m 436 576 q 517 661 486 613 q 549 753 547 710 q 512 870 551 829 q 413 911 472 911 q 335 892 368 913 q 285 840 303 872 q 268 769 268 808 q 317 656 268 708 q 436 576 367 603 z "},"9":{"ha":801,"x_min":63,"x_max":731,"o":"m 356 -22 q 208 4 264 -22 q 127 72 153 31 q 101 156 101 114 q 123 220 101 192 q 183 249 144 249 q 246 223 229 250 q 263 171 263 196 q 258 141 263 158 q 243 113 253 124 q 281 75 254 90 q 354 61 308 60 q 436 86 401 63 q 494 150 471 110 q 531 240 518 190 q 549 344 544 290 q 553 449 554 397 q 474 387 526 415 q 358 357 421 358 q 223 381 279 356 q 131 450 167 406 q 79 553 96 494 q 63 675 63 611 q 104 840 63 768 q 221 953 146 911 q 394 994 296 994 q 553 959 489 994 q 657 859 618 924 q 713 707 696 794 q 731 517 731 619 q 722 382 731 454 q 690 238 713 310 q 626 108 668 167 q 518 13 585 49 q 356 -22 451 -22 m 393 451 q 459 467 428 451 q 515 508 490 482 q 551 564 539 533 q 542 692 550 629 q 515 804 533 754 q 467 883 497 854 q 390 913 436 913 q 311 883 343 913 q 263 806 279 853 q 247 707 247 760 q 253 630 247 674 q 273 545 258 586 q 317 478 288 504 q 393 451 346 451 z "},"A":{"ha":908,"x_min":1,"x_max":910,"o":"m 1 0 l 1 79 q 64 101 40 79 q 103 160 88 124 q 135 243 118 197 l 411 997 l 486 997 l 788 229 q 810 163 796 206 q 825 88 824 119 q 871 90 849 89 q 910 92 893 92 l 910 0 l 556 0 l 556 76 q 614 94 599 76 q 627 142 629 113 q 613 201 625 171 l 578 296 l 256 290 l 225 197 q 206 144 217 174 q 183 90 194 114 q 238 93 208 92 q 286 94 268 94 l 286 0 l 1 0 m 286 379 l 547 379 l 472 583 q 441 678 456 631 q 417 767 426 726 l 414 767 q 394 694 406 739 q 361 593 382 650 l 286 379 z "},"Á":{"ha":908,"x_min":1,"x_max":910,"o":"m 1 0 l 1 79 q 64 101 40 79 q 103 160 88 124 q 135 243 118 197 l 411 997 l 486 997 l 788 229 q 810 163 796 206 q 825 88 824 119 q 871 90 849 89 q 910 92 893 92 l 910 0 l 556 0 l 556 76 q 614 94 599 76 q 627 142 629 113 q 613 201 625 171 l 578 296 l 256 290 l 225 197 q 206 144 217 174 q 183 90 194 114 q 238 93 208 92 q 286 94 268 94 l 286 0 l 1 0 m 286 379 l 547 379 l 472 583 q 441 678 456 631 q 417 767 426 726 l 414 767 q 394 694 406 739 q 361 593 382 650 l 286 379 m 394 1046 l 351 1106 l 513 1269 q 558 1297 535 1290 q 601 1297 581 1303 q 633 1274 621 1292 q 645 1235 646 1257 q 631 1193 644 1214 q 593 1157 618 1172 l 394 1046 z "},"Ă":{"ha":908,"x_min":1,"x_max":910,"o":"m 1 0 l 1 79 q 64 101 40 79 q 103 160 88 124 q 135 243 118 197 l 411 997 l 486 997 l 788 229 q 810 163 796 206 q 825 88 824 119 q 871 90 849 89 q 910 92 893 92 l 910 0 l 556 0 l 556 76 q 614 94 599 76 q 627 142 629 113 q 613 201 625 171 l 578 296 l 256 290 l 225 197 q 206 144 217 174 q 183 90 194 114 q 238 93 208 92 q 286 94 268 94 l 286 0 l 1 0 m 286 379 l 547 379 l 472 583 q 441 678 456 631 q 417 767 426 726 l 414 767 q 394 694 406 739 q 361 593 382 650 l 286 379 m 450 1099 q 362 1115 406 1099 q 282 1166 318 1131 q 224 1258 246 1201 l 275 1283 q 345 1231 301 1254 q 450 1207 389 1207 q 554 1231 511 1207 q 624 1283 597 1254 l 675 1258 q 617 1166 653 1201 q 537 1115 581 1131 q 450 1099 493 1099 z "},"Ắ":{"ha":908,"x_min":1,"x_max":910,"o":"m 1 0 l 1 79 q 64 101 40 79 q 103 160 88 124 q 135 243 118 197 l 411 997 l 486 997 l 788 229 q 810 163 796 206 q 825 88 824 119 q 871 90 849 89 q 910 92 893 92 l 910 0 l 556 0 l 556 76 q 614 94 599 76 q 627 142 629 113 q 613 201 625 171 l 578 296 l 256 290 l 225 197 q 206 144 217 174 q 183 90 194 114 q 238 93 208 92 q 286 94 268 94 l 286 0 l 1 0 m 286 379 l 547 379 l 472 583 q 441 678 456 631 q 417 767 426 726 l 414 767 q 394 694 406 739 q 361 593 382 650 l 286 379 m 446 1114 q 368 1131 408 1114 q 294 1188 328 1149 q 239 1289 260 1226 l 313 1326 q 369 1258 335 1288 q 451 1228 403 1228 q 533 1258 500 1228 q 585 1328 565 1289 l 658 1296 q 569 1157 624 1200 q 446 1114 515 1114 m 454 1311 l 399 1360 l 514 1553 q 551 1590 529 1579 q 594 1598 572 1600 q 631 1583 615 1596 q 652 1547 647 1569 q 649 1501 657 1525 q 618 1458 640 1478 l 454 1311 z "},"Ặ":{"ha":908,"x_min":1,"x_max":910,"o":"m 1 0 l 1 79 q 64 101 40 79 q 103 160 88 124 q 135 243 118 197 l 411 997 l 486 997 l 788 229 q 810 163 796 206 q 825 88 824 119 q 871 90 849 89 q 910 92 893 92 l 910 0 l 556 0 l 556 76 q 614 94 599 76 q 627 142 629 113 q 613 201 625 171 l 578 296 l 256 290 l 225 197 q 206 144 217 174 q 183 90 194 114 q 238 93 208 92 q 286 94 268 94 l 286 0 l 1 0 m 286 379 l 547 379 l 472 583 q 441 678 456 631 q 417 767 426 726 l 414 767 q 394 694 406 739 q 361 593 382 650 l 286 379 m 456 -262 q 399 -237 421 -262 q 376 -178 376 -212 q 400 -118 376 -143 q 456 -93 424 -93 q 510 -118 489 -93 q 532 -178 532 -143 q 510 -237 532 -212 q 456 -262 489 -262 m 450 1099 q 362 1115 406 1099 q 282 1166 318 1131 q 224 1258 246 1201 l 275 1283 q 345 1231 301 1254 q 450 1207 389 1207 q 554 1231 511 1207 q 624 1283 597 1254 l 675 1258 q 617 1166 653 1201 q 537 1115 581 1131 q 450 1099 493 1099 z "},"Ằ":{"ha":908,"x_min":1,"x_max":910,"o":"m 1 0 l 1 79 q 64 101 40 79 q 103 160 88 124 q 135 243 118 197 l 411 997 l 486 997 l 788 229 q 810 163 796 206 q 825 88 824 119 q 871 90 849 89 q 910 92 893 92 l 910 0 l 556 0 l 556 76 q 614 94 599 76 q 627 142 629 113 q 613 201 625 171 l 578 296 l 256 290 l 225 197 q 206 144 217 174 q 183 90 194 114 q 238 93 208 92 q 286 94 268 94 l 286 0 l 1 0 m 286 379 l 547 379 l 472 583 q 441 678 456 631 q 417 767 426 726 l 414 767 q 394 694 406 739 q 361 593 382 650 l 286 379 m 444 1114 q 367 1131 407 1114 q 292 1188 326 1149 q 238 1289 258 1226 l 311 1326 q 367 1258 333 1288 q 450 1228 401 1228 q 531 1258 499 1228 q 583 1328 564 1289 l 657 1296 q 568 1157 622 1200 q 444 1114 514 1114 m 447 1310 l 283 1457 q 254 1499 263 1476 q 251 1544 246 1522 q 272 1582 256 1567 q 310 1597 289 1594 q 351 1588 331 1599 q 389 1550 372 1576 l 503 1358 l 447 1310 z "},"Ẳ":{"ha":908,"x_min":1,"x_max":910,"o":"m 1 0 l 1 79 q 64 101 40 79 q 103 160 88 124 q 135 243 118 197 l 411 997 l 486 997 l 788 229 q 810 163 796 206 q 825 88 824 119 q 871 90 849 89 q 910 92 893 92 l 910 0 l 556 0 l 556 76 q 614 94 599 76 q 627 142 629 113 q 613 201 625 171 l 578 296 l 256 290 l 225 197 q 206 144 217 174 q 183 90 194 114 q 238 93 208 92 q 286 94 268 94 l 286 0 l 1 0 m 286 379 l 547 379 l 472 583 q 441 678 456 631 q 417 767 426 726 l 414 767 q 394 694 406 739 q 361 593 382 650 l 286 379 m 446 1113 q 367 1130 407 1113 q 294 1186 328 1147 q 239 1288 260 1225 l 313 1325 q 368 1256 333 1286 q 450 1226 403 1226 q 532 1257 499 1226 q 585 1326 565 1288 l 657 1294 q 569 1156 624 1199 q 446 1113 514 1113 m 418 1339 q 436 1383 418 1367 q 471 1417 454 1399 q 489 1441 482 1428 q 496 1471 496 1454 q 476 1517 496 1500 q 425 1535 456 1535 q 373 1521 390 1535 q 353 1496 356 1507 q 375 1485 367 1494 q 383 1463 383 1475 q 370 1435 383 1447 q 336 1422 357 1422 q 291 1440 310 1422 q 272 1488 272 1458 q 290 1544 272 1517 q 342 1589 308 1571 q 425 1607 376 1607 q 547 1572 504 1607 q 590 1483 590 1536 q 572 1426 590 1446 q 533 1390 554 1407 q 506 1364 517 1376 q 494 1339 494 1351 l 418 1339 z "},"Ẵ":{"ha":908,"x_min":1,"x_max":910,"o":"m 1 0 l 1 79 q 64 101 40 79 q 103 160 88 124 q 135 243 118 197 l 411 997 l 486 997 l 788 229 q 810 163 796 206 q 825 88 824 119 q 871 90 849 89 q 910 92 893 92 l 910 0 l 556 0 l 556 76 q 614 94 599 76 q 627 142 629 113 q 613 201 625 171 l 578 296 l 256 290 l 225 197 q 206 144 217 174 q 183 90 194 114 q 238 93 208 92 q 286 94 268 94 l 286 0 l 1 0 m 286 379 l 547 379 l 472 583 q 441 678 456 631 q 417 767 426 726 l 414 767 q 394 694 406 739 q 361 593 382 650 l 286 379 m 444 1114 q 367 1131 407 1114 q 292 1188 326 1149 q 238 1289 258 1226 l 311 1326 q 367 1258 333 1288 q 450 1228 401 1228 q 532 1258 499 1228 q 585 1328 565 1289 l 657 1296 q 568 1157 622 1200 q 444 1114 514 1114 m 707 1501 q 635 1386 681 1422 q 550 1350 590 1350 q 483 1365 511 1350 q 429 1396 454 1381 q 378 1411 404 1411 q 333 1399 358 1411 q 286 1353 307 1386 l 221 1392 q 287 1488 242 1450 q 376 1526 332 1526 q 446 1513 419 1528 q 495 1482 472 1497 q 550 1467 518 1467 q 600 1485 576 1467 q 642 1536 624 1504 l 707 1501 z "},"Ǎ":{"ha":908,"x_min":1,"x_max":910,"o":"m 1 0 l 1 79 q 64 101 40 79 q 103 160 88 124 q 135 243 118 197 l 411 997 l 486 997 l 788 229 q 810 163 796 206 q 825 88 824 119 q 871 90 849 89 q 910 92 893 92 l 910 0 l 556 0 l 556 76 q 614 94 599 76 q 627 142 629 113 q 613 201 625 171 l 578 296 l 256 290 l 225 197 q 206 144 217 174 q 183 90 194 114 q 238 93 208 92 q 286 94 268 94 l 286 0 l 1 0 m 286 379 l 547 379 l 472 583 q 441 678 456 631 q 417 767 426 726 l 414 767 q 394 694 406 739 q 361 593 382 650 l 286 379 m 432 1069 l 167 1274 l 206 1332 l 449 1211 l 696 1335 l 729 1278 l 451 1069 l 432 1069 z "},"Â":{"ha":908,"x_min":1,"x_max":910,"o":"m 1 0 l 1 79 q 64 101 40 79 q 103 160 88 124 q 135 243 118 197 l 411 997 l 486 997 l 788 229 q 810 163 796 206 q 825 88 824 119 q 871 90 849 89 q 910 92 893 92 l 910 0 l 556 0 l 556 76 q 614 94 599 76 q 627 142 629 113 q 613 201 625 171 l 578 296 l 256 290 l 225 197 q 206 144 217 174 q 183 90 194 114 q 238 93 208 92 q 286 94 268 94 l 286 0 l 1 0 m 286 379 l 547 379 l 472 583 q 441 678 456 631 q 417 767 426 726 l 414 767 q 394 694 406 739 q 361 593 382 650 l 286 379 m 638 1068 l 450 1188 l 258 1071 l 222 1125 l 446 1331 l 465 1331 l 678 1126 l 638 1068 z "},"Ấ":{"ha":908,"x_min":1,"x_max":910,"o":"m 1 0 l 1 79 q 64 101 40 79 q 103 160 88 124 q 135 243 118 197 l 411 997 l 486 997 l 788 229 q 810 163 796 206 q 825 88 824 119 q 871 90 849 89 q 910 92 893 92 l 910 0 l 556 0 l 556 76 q 614 94 599 76 q 627 142 629 113 q 613 201 625 171 l 578 296 l 256 290 l 225 197 q 206 144 217 174 q 183 90 194 114 q 238 93 208 92 q 286 94 268 94 l 286 0 l 1 0 m 286 379 l 547 379 l 472 583 q 441 678 456 631 q 417 767 426 726 l 414 767 q 394 694 406 739 q 361 593 382 650 l 286 379 m 606 1053 l 449 1151 l 292 1054 l 260 1099 l 447 1268 l 461 1268 l 638 1100 l 606 1053 m 679 1168 l 624 1217 l 739 1410 q 776 1447 754 1436 q 819 1455 797 1457 q 856 1440 840 1453 q 877 1404 872 1426 q 874 1358 882 1382 q 843 1315 865 1335 l 679 1168 z "},"Ậ":{"ha":908,"x_min":1,"x_max":910,"o":"m 1 0 l 1 79 q 64 101 40 79 q 103 160 88 124 q 135 243 118 197 l 411 997 l 486 997 l 788 229 q 810 163 796 206 q 825 88 824 119 q 871 90 849 89 q 910 92 893 92 l 910 0 l 556 0 l 556 76 q 614 94 599 76 q 627 142 629 113 q 613 201 625 171 l 578 296 l 256 290 l 225 197 q 206 144 217 174 q 183 90 194 114 q 238 93 208 92 q 286 94 268 94 l 286 0 l 1 0 m 286 379 l 547 379 l 472 583 q 441 678 456 631 q 417 767 426 726 l 414 767 q 394 694 406 739 q 361 593 382 650 l 286 379 m 456 -262 q 399 -237 421 -262 q 376 -178 376 -212 q 400 -118 376 -143 q 456 -93 424 -93 q 510 -118 489 -93 q 532 -178 532 -143 q 510 -237 532 -212 q 456 -262 489 -262 m 638 1068 l 450 1188 l 258 1071 l 222 1125 l 446 1331 l 465 1331 l 678 1126 l 638 1068 z "},"Ầ":{"ha":908,"x_min":1,"x_max":910,"o":"m 1 0 l 1 79 q 64 101 40 79 q 103 160 88 124 q 135 243 118 197 l 411 997 l 486 997 l 788 229 q 810 163 796 206 q 825 88 824 119 q 871 90 849 89 q 910 92 893 92 l 910 0 l 556 0 l 556 76 q 614 94 599 76 q 627 142 629 113 q 613 201 625 171 l 578 296 l 256 290 l 225 197 q 206 144 217 174 q 183 90 194 114 q 238 93 208 92 q 286 94 268 94 l 286 0 l 1 0 m 286 379 l 547 379 l 472 583 q 441 678 456 631 q 417 767 426 726 l 414 767 q 394 694 406 739 q 361 593 382 650 l 286 379 m 606 1053 l 449 1151 l 292 1054 l 260 1099 l 447 1268 l 461 1268 l 638 1100 l 606 1053 m 649 1222 l 485 1369 q 456 1413 464 1389 q 452 1458 447 1436 q 474 1494 457 1481 q 511 1509 490 1507 q 553 1501 532 1511 q 590 1464 574 1490 l 704 1271 l 649 1222 z "},"Ẩ":{"ha":908,"x_min":1,"x_max":910,"o":"m 1 0 l 1 79 q 64 101 40 79 q 103 160 88 124 q 135 243 118 197 l 411 997 l 486 997 l 788 229 q 810 163 796 206 q 825 88 824 119 q 871 90 849 89 q 910 92 893 92 l 910 0 l 556 0 l 556 76 q 614 94 599 76 q 627 142 629 113 q 613 201 625 171 l 578 296 l 256 290 l 225 197 q 206 144 217 174 q 183 90 194 114 q 238 93 208 92 q 286 94 268 94 l 286 0 l 1 0 m 286 379 l 547 379 l 472 583 q 441 678 456 631 q 417 767 426 726 l 414 767 q 394 694 406 739 q 361 593 382 650 l 286 379 m 604 1053 l 449 1151 l 290 1053 l 260 1099 l 446 1268 l 461 1268 l 638 1099 l 604 1053 m 615 1224 q 633 1268 615 1251 q 669 1301 651 1285 q 687 1326 681 1313 q 693 1357 693 1340 q 674 1402 693 1385 q 622 1419 654 1419 q 571 1406 589 1419 q 550 1381 553 1392 q 573 1370 565 1379 q 581 1349 581 1361 q 568 1319 581 1332 q 533 1307 556 1307 q 489 1325 507 1307 q 471 1372 471 1343 q 488 1428 471 1401 q 540 1474 506 1456 q 622 1492 575 1492 q 745 1457 701 1492 q 789 1368 789 1422 q 770 1313 789 1332 q 731 1275 751 1293 q 703 1249 714 1261 q 692 1224 692 1236 l 615 1224 z "},"Ẫ":{"ha":908,"x_min":1,"x_max":910,"o":"m 1 0 l 1 79 q 64 101 40 79 q 103 160 88 124 q 135 243 118 197 l 411 997 l 486 997 l 788 229 q 810 163 796 206 q 825 88 824 119 q 871 90 849 89 q 910 92 893 92 l 910 0 l 556 0 l 556 76 q 614 94 599 76 q 627 142 629 113 q 613 201 625 171 l 578 296 l 256 290 l 225 197 q 206 144 217 174 q 183 90 194 114 q 238 93 208 92 q 286 94 268 94 l 286 0 l 1 0 m 286 379 l 547 379 l 472 583 q 441 678 456 631 q 417 767 426 726 l 414 767 q 394 694 406 739 q 361 593 382 650 l 286 379 m 604 1053 l 449 1151 l 290 1054 l 260 1099 l 446 1268 l 461 1268 l 638 1100 l 604 1053 m 717 1456 q 645 1339 690 1375 q 560 1303 600 1303 q 492 1318 521 1303 q 439 1349 464 1333 q 388 1364 414 1364 q 342 1351 368 1364 q 296 1307 317 1339 l 231 1344 q 297 1442 251 1404 q 386 1481 342 1479 q 456 1465 429 1481 q 505 1435 482 1450 q 560 1421 528 1421 q 610 1439 586 1421 q 651 1489 633 1457 l 717 1456 z "},"Ä":{"ha":908,"x_min":1,"x_max":910,"o":"m 1 0 l 1 79 q 64 101 40 79 q 103 160 88 124 q 135 243 118 197 l 411 997 l 486 997 l 788 229 q 810 163 796 206 q 825 88 824 119 q 871 90 849 89 q 910 92 893 92 l 910 0 l 556 0 l 556 76 q 614 94 599 76 q 627 142 629 113 q 613 201 625 171 l 578 296 l 256 290 l 225 197 q 206 144 217 174 q 183 90 194 114 q 238 93 208 92 q 286 94 268 94 l 286 0 l 1 0 m 286 379 l 547 379 l 472 583 q 441 678 456 631 q 417 767 426 726 l 414 767 q 394 694 406 739 q 361 593 382 650 l 286 379 m 325 1097 q 265 1126 290 1097 q 239 1196 239 1156 q 265 1267 239 1238 q 326 1297 292 1297 q 388 1268 364 1297 q 413 1196 413 1239 q 386 1126 413 1156 q 325 1097 360 1097 m 569 1097 q 510 1126 536 1097 q 483 1196 483 1156 q 510 1267 483 1238 q 571 1297 538 1297 q 633 1268 608 1297 q 657 1196 657 1239 q 631 1126 657 1156 q 569 1097 606 1097 z "},"Ạ":{"ha":908,"x_min":1,"x_max":910,"o":"m 1 0 l 1 79 q 64 101 40 79 q 103 160 88 124 q 135 243 118 197 l 411 997 l 486 997 l 788 229 q 810 163 796 206 q 825 88 824 119 q 871 90 849 89 q 910 92 893 92 l 910 0 l 556 0 l 556 76 q 614 94 599 76 q 627 142 629 113 q 613 201 625 171 l 578 296 l 256 290 l 225 197 q 206 144 217 174 q 183 90 194 114 q 238 93 208 92 q 286 94 268 94 l 286 0 l 1 0 m 286 379 l 547 379 l 472 583 q 441 678 456 631 q 417 767 426 726 l 414 767 q 394 694 406 739 q 361 593 382 650 l 286 379 m 456 -262 q 399 -237 421 -262 q 376 -178 376 -212 q 400 -118 376 -143 q 456 -93 424 -93 q 510 -118 489 -93 q 532 -178 532 -143 q 510 -237 532 -212 q 456 -262 489 -262 z "},"À":{"ha":908,"x_min":1,"x_max":910,"o":"m 1 0 l 1 79 q 64 101 40 79 q 103 160 88 124 q 135 243 118 197 l 411 997 l 486 997 l 788 229 q 810 163 796 206 q 825 88 824 119 q 871 90 849 89 q 910 92 893 92 l 910 0 l 556 0 l 556 76 q 614 94 599 76 q 627 142 629 113 q 613 201 625 171 l 578 296 l 256 290 l 225 197 q 206 144 217 174 q 183 90 194 114 q 238 93 208 92 q 286 94 268 94 l 286 0 l 1 0 m 286 379 l 547 379 l 472 583 q 441 678 456 631 q 417 767 426 726 l 414 767 q 394 694 406 739 q 361 593 382 650 l 286 379 m 486 1046 l 288 1157 q 250 1193 263 1172 q 237 1235 238 1214 q 247 1274 236 1257 q 280 1297 260 1292 q 323 1297 300 1303 q 368 1269 346 1290 l 529 1106 l 486 1046 z "},"Ả":{"ha":908,"x_min":1,"x_max":910,"o":"m 1 0 l 1 79 q 64 101 40 79 q 103 160 88 124 q 135 243 118 197 l 411 997 l 486 997 l 788 229 q 810 163 796 206 q 825 88 824 119 q 871 90 849 89 q 910 92 893 92 l 910 0 l 556 0 l 556 76 q 614 94 599 76 q 627 142 629 113 q 613 201 625 171 l 578 296 l 256 290 l 225 197 q 206 144 217 174 q 183 90 194 114 q 238 93 208 92 q 286 94 268 94 l 286 0 l 1 0 m 286 379 l 547 379 l 472 583 q 441 678 456 631 q 417 767 426 726 l 414 767 q 394 694 406 739 q 361 593 382 650 l 286 379 m 422 1057 q 440 1101 422 1085 q 476 1135 458 1118 q 494 1160 488 1146 q 500 1190 500 1174 q 481 1235 500 1218 q 429 1253 461 1253 q 378 1239 396 1253 q 357 1214 360 1225 q 380 1203 372 1213 q 388 1182 388 1194 q 375 1153 388 1165 q 340 1140 363 1140 q 296 1158 314 1140 q 278 1206 278 1176 q 295 1262 278 1235 q 347 1307 313 1289 q 429 1325 382 1325 q 552 1290 508 1325 q 596 1201 596 1256 q 578 1144 596 1165 q 538 1108 561 1124 q 510 1082 521 1094 q 499 1057 499 1069 l 422 1057 z "},"Ā":{"ha":908,"x_min":1,"x_max":910,"o":"m 1 0 l 1 79 q 64 101 40 79 q 103 160 88 124 q 135 243 118 197 l 411 997 l 486 997 l 788 229 q 810 163 796 206 q 825 88 824 119 q 871 90 849 89 q 910 92 893 92 l 910 0 l 556 0 l 556 76 q 614 94 599 76 q 627 142 629 113 q 613 201 625 171 l 578 296 l 256 290 l 225 197 q 206 144 217 174 q 183 90 194 114 q 238 93 208 92 q 286 94 268 94 l 286 0 l 1 0 m 286 379 l 547 379 l 472 583 q 441 678 456 631 q 417 767 426 726 l 414 767 q 394 694 406 739 q 361 593 382 650 l 286 379 m 254 1154 l 254 1271 l 640 1271 l 640 1160 l 254 1154 z "},"Ą":{"ha":908,"x_min":1,"x_max":910,"o":"m 1 0 l 1 79 q 64 101 40 79 q 103 160 88 124 q 135 243 118 197 l 411 997 l 486 997 l 788 229 q 810 163 796 206 q 825 88 824 119 q 871 90 849 89 q 910 92 893 92 l 910 0 l 556 0 l 556 76 q 614 94 599 76 q 627 142 629 113 q 613 201 625 171 l 578 296 l 256 290 l 225 197 q 206 144 217 174 q 183 90 194 114 q 238 93 208 92 q 286 94 268 94 l 286 0 l 1 0 m 286 379 l 547 379 l 472 583 q 441 678 456 631 q 417 767 426 726 l 414 767 q 394 694 406 739 q 361 593 382 650 l 286 379 m 658 -365 q 550 -328 592 -365 q 508 -222 508 -290 q 553 -105 508 -160 q 669 -9 599 -50 q 817 54 740 32 l 817 0 q 730 -46 772 -18 q 663 -110 688 -74 q 638 -187 638 -146 q 658 -237 639 -218 q 707 -257 678 -257 q 751 -246 729 -257 q 794 -217 774 -235 l 835 -265 q 756 -336 803 -307 q 658 -365 708 -365 z "},"Å":{"ha":908,"x_min":1,"x_max":910,"o":"m 1 0 l 1 79 q 64 101 40 79 q 103 160 88 124 q 135 243 118 197 l 411 997 l 486 997 l 788 229 q 810 163 796 206 q 825 88 824 119 q 871 90 849 89 q 910 92 893 92 l 910 0 l 556 0 l 556 76 q 614 94 599 76 q 627 142 629 113 q 613 201 625 171 l 578 296 l 256 290 l 225 197 q 206 144 217 174 q 183 90 194 114 q 238 93 208 92 q 286 94 268 94 l 286 0 l 1 0 m 286 379 l 547 379 l 472 583 q 441 678 456 631 q 417 767 426 726 l 414 767 q 394 694 406 739 q 361 593 382 650 l 286 379 m 449 1026 q 367 1044 407 1026 q 301 1097 326 1061 q 272 1188 275 1132 q 297 1280 271 1240 q 363 1342 322 1319 q 447 1365 404 1365 q 528 1348 489 1365 q 595 1295 568 1331 q 625 1204 622 1260 q 600 1109 626 1149 q 533 1048 574 1069 q 449 1026 492 1026 m 457 1093 q 499 1117 482 1094 q 515 1182 515 1139 q 495 1272 515 1242 q 442 1300 475 1303 q 398 1273 415 1299 q 381 1204 381 1247 q 402 1121 381 1150 q 457 1093 424 1092 z "},"Ã":{"ha":908,"x_min":1,"x_max":910,"o":"m 1 0 l 1 79 q 64 101 40 79 q 103 160 88 124 q 135 243 118 197 l 411 997 l 486 997 l 788 229 q 810 163 796 206 q 825 88 824 119 q 871 90 849 89 q 910 92 893 92 l 910 0 l 556 0 l 556 76 q 614 94 599 76 q 627 142 629 113 q 613 201 625 171 l 578 296 l 256 290 l 225 197 q 206 144 217 174 q 183 90 194 114 q 238 93 208 92 q 286 94 268 94 l 286 0 l 1 0 m 286 379 l 547 379 l 472 583 q 441 678 456 631 q 417 767 426 726 l 414 767 q 394 694 406 739 q 361 593 382 650 l 286 379 m 731 1265 q 678 1162 708 1199 q 615 1111 647 1125 q 553 1097 582 1097 q 491 1109 518 1097 q 440 1137 464 1121 q 393 1165 417 1153 q 342 1176 369 1176 q 285 1158 314 1176 q 231 1100 257 1140 l 163 1143 q 242 1252 192 1215 q 340 1290 293 1289 q 405 1278 378 1290 q 455 1251 432 1267 q 501 1224 478 1236 q 551 1213 524 1213 q 613 1238 582 1213 q 664 1303 643 1264 l 731 1265 z "},"Æ":{"ha":1306,"x_min":-15,"x_max":1247,"o":"m -15 0 l -15 76 q 48 99 19 76 q 101 153 76 121 q 147 217 126 186 l 613 885 l 501 881 l 501 972 l 1197 972 l 1204 711 l 1128 711 q 1102 830 1128 790 q 1036 883 1076 869 q 954 896 996 897 l 881 894 q 823 882 844 893 q 792 842 801 871 q 783 758 783 814 l 783 546 l 979 544 l 972 665 l 1064 665 l 1064 343 l 988 343 q 969 428 988 403 q 919 460 951 454 q 842 465 886 467 l 783 463 l 783 207 q 782 138 783 169 q 778 89 781 107 l 993 88 q 1081 107 1042 88 q 1146 172 1121 126 q 1171 294 1171 217 l 1247 294 l 1239 0 l 511 0 l 511 78 q 567 88 546 79 q 598 122 588 96 q 608 201 608 147 l 608 294 l 315 288 l 260 206 q 215 142 238 174 q 169 88 192 111 l 279 92 l 279 0 l -15 0 m 374 375 l 608 375 l 608 732 l 374 375 z "},"B":{"ha":900,"x_min":72,"x_max":856,"o":"m 72 0 l 72 76 q 132 90 111 78 q 161 133 153 103 q 169 217 169 163 l 169 765 q 172 835 169 803 q 175 885 174 867 q 121 883 151 883 q 72 881 90 882 l 72 972 q 251 974 161 974 q 433 975 342 974 q 693 915 597 976 q 783 728 789 854 q 758 646 782 686 q 689 574 735 606 q 574 525 643 542 l 574 524 q 786 438 717 508 q 856 275 856 368 q 813 125 856 186 q 694 32 769 64 q 522 0 618 0 l 72 0 m 339 85 q 388 83 363 83 q 438 84 414 83 q 478 85 461 85 q 617 138 569 88 q 665 275 665 189 q 637 386 665 346 q 563 443 608 426 q 467 460 518 460 q 401 460 429 460 q 344 457 374 460 l 344 201 q 343 133 344 164 q 339 85 342 103 m 344 542 l 426 543 q 529 572 492 544 q 583 642 567 599 q 600 738 600 686 q 573 833 599 799 q 510 881 547 867 q 432 893 472 894 q 383 885 403 893 q 354 850 364 876 q 344 771 344 824 l 344 542 z "},"C":{"ha":961,"x_min":54,"x_max":939,"o":"m 806 661 q 724 845 789 782 q 554 908 658 908 q 423 876 481 908 q 326 787 365 843 q 265 656 286 731 q 244 497 244 582 q 284 279 244 374 q 395 131 324 185 q 563 76 467 76 q 738 120 651 76 q 882 244 825 164 l 939 193 q 800 58 874 104 q 656 -6 726 11 q 529 -22 586 -22 q 335 16 422 -22 q 185 122 249 54 q 88 278 122 189 q 54 472 54 368 q 84 661 54 568 q 174 829 114 754 q 326 949 235 904 q 539 994 418 994 q 667 976 600 994 q 792 921 733 957 l 786 985 l 882 985 l 882 661 l 806 661 z "},"Ć":{"ha":961,"x_min":54,"x_max":939,"o":"m 806 661 q 724 845 789 782 q 554 908 658 908 q 423 876 481 908 q 326 787 365 843 q 265 656 286 731 q 244 497 244 582 q 284 279 244 374 q 395 131 324 185 q 563 76 467 76 q 738 120 651 76 q 882 244 825 164 l 939 193 q 800 58 874 104 q 656 -6 726 11 q 529 -22 586 -22 q 335 16 422 -22 q 185 122 249 54 q 88 278 122 189 q 54 472 54 368 q 84 661 54 568 q 174 829 114 754 q 326 949 235 904 q 539 994 418 994 q 667 976 600 994 q 792 921 733 957 l 786 985 l 882 985 l 882 661 l 806 661 m 500 1046 l 457 1106 l 618 1269 q 663 1297 640 1290 q 706 1297 686 1303 q 739 1274 726 1292 q 751 1235 751 1257 q 737 1193 750 1214 q 699 1157 724 1172 l 500 1046 z "},"Č":{"ha":961,"x_min":54,"x_max":939,"o":"m 806 661 q 724 845 789 782 q 554 908 658 908 q 423 876 481 908 q 326 787 365 843 q 265 656 286 731 q 244 497 244 582 q 284 279 244 374 q 395 131 324 185 q 563 76 467 76 q 738 120 651 76 q 882 244 825 164 l 939 193 q 800 58 874 104 q 656 -6 726 11 q 529 -22 586 -22 q 335 16 422 -22 q 185 122 249 54 q 88 278 122 189 q 54 472 54 368 q 84 661 54 568 q 174 829 114 754 q 326 949 235 904 q 539 994 418 994 q 667 976 600 994 q 792 921 733 957 l 786 985 l 882 985 l 882 661 l 806 661 m 538 1069 l 272 1274 l 311 1332 l 554 1211 l 801 1335 l 835 1278 l 557 1069 l 538 1069 z "},"Ç":{"ha":961,"x_min":54,"x_max":939,"o":"m 806 661 q 724 845 789 782 q 554 908 658 908 q 423 876 481 908 q 326 787 365 843 q 265 656 286 731 q 244 497 244 582 q 284 279 244 374 q 395 131 324 185 q 563 76 467 76 q 738 120 651 76 q 882 244 825 164 l 939 193 q 800 58 874 104 q 656 -6 726 11 q 529 -22 586 -22 q 335 16 422 -22 q 185 122 249 54 q 88 278 122 189 q 54 472 54 368 q 84 661 54 568 q 174 829 114 754 q 326 949 235 904 q 539 994 418 994 q 667 976 600 994 q 792 921 733 957 l 786 985 l 882 985 l 882 661 l 806 661 m 428 -375 l 418 -307 q 470 -294 442 -303 q 525 -271 499 -285 q 569 -239 551 -257 q 586 -200 586 -221 q 568 -167 586 -174 q 527 -165 550 -160 q 488 -183 504 -171 l 433 -161 l 474 13 l 576 13 l 538 -97 q 584 -81 556 -87 q 631 -76 613 -75 q 707 -104 678 -78 q 736 -176 736 -131 q 703 -258 736 -224 q 621 -317 671 -293 q 519 -355 571 -340 q 428 -375 467 -369 z "},"Ĉ":{"ha":961,"x_min":54,"x_max":939,"o":"m 806 661 q 724 845 789 782 q 554 908 658 908 q 423 876 481 908 q 326 787 365 843 q 265 656 286 731 q 244 497 244 582 q 284 279 244 374 q 395 131 324 185 q 563 76 467 76 q 738 120 651 76 q 882 244 825 164 l 939 193 q 800 58 874 104 q 656 -6 726 11 q 529 -22 586 -22 q 335 16 422 -22 q 185 122 249 54 q 88 278 122 189 q 54 472 54 368 q 84 661 54 568 q 174 829 114 754 q 326 949 235 904 q 539 994 418 994 q 667 976 600 994 q 792 921 733 957 l 786 985 l 882 985 l 882 661 l 806 661 m 743 1068 l 556 1188 l 364 1071 l 328 1125 l 551 1331 l 571 1331 l 783 1126 l 743 1068 z "},"Ċ":{"ha":961,"x_min":54,"x_max":939,"o":"m 806 661 q 724 845 789 782 q 554 908 658 908 q 423 876 481 908 q 326 787 365 843 q 265 656 286 731 q 244 497 244 582 q 284 279 244 374 q 395 131 324 185 q 563 76 467 76 q 738 120 651 76 q 882 244 825 164 l 939 193 q 800 58 874 104 q 656 -6 726 11 q 529 -22 586 -22 q 335 16 422 -22 q 185 122 249 54 q 88 278 122 189 q 54 472 54 368 q 84 661 54 568 q 174 829 114 754 q 326 949 235 904 q 539 994 418 994 q 667 976 600 994 q 792 921 733 957 l 786 985 l 882 985 l 882 661 l 806 661 m 554 1106 q 486 1135 514 1106 q 458 1208 458 1165 q 487 1282 458 1251 q 554 1313 515 1313 q 622 1282 594 1313 q 649 1208 649 1251 q 622 1135 649 1165 q 554 1106 596 1106 z "},"D":{"ha":1047,"x_min":72,"x_max":994,"o":"m 72 76 q 132 90 111 78 q 161 131 153 101 q 169 214 169 161 l 169 768 q 172 835 169 803 q 175 885 174 867 q 121 883 151 883 q 72 881 90 882 l 72 972 l 450 974 q 685 937 583 974 q 856 833 788 900 q 959 679 924 767 q 994 492 994 592 q 963 317 994 404 q 867 158 932 229 q 701 43 803 86 q 458 0 599 0 l 72 0 l 72 76 m 344 207 q 343 138 344 169 q 339 88 342 106 q 388 87 361 88 q 439 85 414 86 q 476 85 464 85 q 618 117 557 85 q 720 203 679 149 q 782 327 761 257 q 803 475 803 397 q 760 705 803 613 q 639 845 718 797 q 443 894 560 893 q 382 883 404 896 q 352 842 360 871 q 344 760 344 813 l 344 207 z "},"Ð":{"ha":1047,"x_min":36,"x_max":994,"o":"m 36 444 l 36 536 l 572 536 l 572 447 l 36 444 m 72 76 q 132 90 111 78 q 161 131 153 101 q 169 214 169 161 l 169 768 q 172 835 169 803 q 175 885 174 867 q 121 883 151 883 q 72 881 90 882 l 72 972 l 450 974 q 685 937 583 974 q 856 833 788 900 q 959 679 924 767 q 994 492 994 592 q 963 317 994 404 q 867 158 932 229 q 701 43 803 86 q 458 0 599 0 l 72 0 l 72 76 m 344 207 q 343 138 344 169 q 339 88 342 106 q 388 87 361 88 q 439 85 414 86 q 476 85 464 85 q 618 117 557 85 q 720 203 679 149 q 782 327 761 257 q 803 475 803 397 q 760 705 803 613 q 639 845 718 797 q 443 894 560 893 q 382 883 404 896 q 352 842 360 871 q 344 760 344 813 l 344 207 z "},"Ď":{"ha":1047,"x_min":72,"x_max":994,"o":"m 72 76 q 132 90 111 78 q 161 131 153 101 q 169 214 169 161 l 169 768 q 172 835 169 803 q 175 885 174 867 q 121 883 151 883 q 72 881 90 882 l 72 972 l 450 974 q 685 937 583 974 q 856 833 788 900 q 959 679 924 767 q 994 492 994 592 q 963 317 994 404 q 867 158 932 229 q 701 43 803 86 q 458 0 599 0 l 72 0 l 72 76 m 344 207 q 343 138 344 169 q 339 88 342 106 q 388 87 361 88 q 439 85 414 86 q 476 85 464 85 q 618 117 557 85 q 720 203 679 149 q 782 327 761 257 q 803 475 803 397 q 760 705 803 613 q 639 845 718 797 q 443 894 560 893 q 382 883 404 896 q 352 842 360 871 q 344 760 344 813 l 344 207 m 478 1069 l 213 1274 l 251 1332 l 494 1211 l 742 1335 l 775 1278 l 497 1069 l 478 1069 z "},"Đ":{"ha":1047,"x_min":36,"x_max":994,"o":"m 36 444 l 36 536 l 572 536 l 572 447 l 36 444 m 72 76 q 132 90 111 78 q 161 131 153 101 q 169 214 169 161 l 169 768 q 172 835 169 803 q 175 885 174 867 q 121 883 151 883 q 72 881 90 882 l 72 972 l 450 974 q 685 937 583 974 q 856 833 788 900 q 959 679 924 767 q 994 492 994 592 q 963 317 994 404 q 867 158 932 229 q 701 43 803 86 q 458 0 599 0 l 72 0 l 72 76 m 344 207 q 343 138 344 169 q 339 88 342 106 q 388 87 361 88 q 439 85 414 86 q 476 85 464 85 q 618 117 557 85 q 720 203 679 149 q 782 327 761 257 q 803 475 803 397 q 760 705 803 613 q 639 845 718 797 q 443 894 560 893 q 382 883 404 896 q 352 842 360 871 q 344 760 344 813 l 344 207 z "},"E":{"ha":865,"x_min":72,"x_max":807,"o":"m 547 343 q 530 429 547 403 q 480 461 513 456 q 401 465 447 467 l 344 463 l 344 206 q 343 137 344 168 q 339 88 342 106 l 551 89 q 640 108 600 89 q 706 172 681 126 q 731 294 731 217 l 807 294 l 800 0 l 72 0 l 72 76 q 132 90 111 78 q 161 131 153 101 q 169 214 169 161 l 169 768 q 172 835 169 803 q 175 885 174 867 q 121 883 151 883 q 72 881 90 882 l 72 972 l 757 972 l 765 711 l 689 711 q 663 830 689 790 q 597 883 638 869 q 514 896 557 897 l 442 894 q 383 882 404 893 q 353 842 363 871 q 344 758 344 814 l 344 546 l 539 544 l 532 665 l 624 665 l 624 343 l 547 343 z "},"É":{"ha":865,"x_min":72,"x_max":807,"o":"m 547 343 q 530 429 547 403 q 480 461 513 456 q 401 465 447 467 l 344 463 l 344 206 q 343 137 344 168 q 339 88 342 106 l 551 89 q 640 108 600 89 q 706 172 681 126 q 731 294 731 217 l 807 294 l 800 0 l 72 0 l 72 76 q 132 90 111 78 q 161 131 153 101 q 169 214 169 161 l 169 768 q 172 835 169 803 q 175 885 174 867 q 121 883 151 883 q 72 881 90 882 l 72 972 l 757 972 l 765 711 l 689 711 q 663 830 689 790 q 597 883 638 869 q 514 896 557 897 l 442 894 q 383 882 404 893 q 353 842 363 871 q 344 758 344 814 l 344 546 l 539 544 l 532 665 l 624 665 l 624 343 l 547 343 m 399 1046 l 354 1106 l 515 1269 q 561 1297 538 1290 q 605 1297 585 1303 q 636 1274 625 1292 q 648 1235 649 1257 q 635 1193 647 1214 q 597 1157 622 1172 l 399 1046 z "},"Ĕ":{"ha":865,"x_min":72,"x_max":807,"o":"m 547 343 q 530 429 547 403 q 480 461 513 456 q 401 465 447 467 l 344 463 l 344 206 q 343 137 344 168 q 339 88 342 106 l 551 89 q 640 108 600 89 q 706 172 681 126 q 731 294 731 217 l 807 294 l 800 0 l 72 0 l 72 76 q 132 90 111 78 q 161 131 153 101 q 169 214 169 161 l 169 768 q 172 835 169 803 q 175 885 174 867 q 121 883 151 883 q 72 881 90 882 l 72 972 l 757 972 l 765 711 l 689 711 q 663 830 689 790 q 597 883 638 869 q 514 896 557 897 l 442 894 q 383 882 404 893 q 353 842 363 871 q 344 758 344 814 l 344 546 l 539 544 l 532 665 l 624 665 l 624 343 l 547 343 m 454 1099 q 366 1115 410 1099 q 286 1166 322 1131 q 228 1258 250 1201 l 279 1283 q 349 1231 306 1254 q 454 1207 393 1207 q 558 1231 515 1207 q 628 1283 601 1254 l 679 1258 q 621 1166 657 1201 q 541 1115 585 1131 q 454 1099 497 1099 z "},"Ě":{"ha":865,"x_min":72,"x_max":807,"o":"m 547 343 q 530 429 547 403 q 480 461 513 456 q 401 465 447 467 l 344 463 l 344 206 q 343 137 344 168 q 339 88 342 106 l 551 89 q 640 108 600 89 q 706 172 681 126 q 731 294 731 217 l 807 294 l 800 0 l 72 0 l 72 76 q 132 90 111 78 q 161 131 153 101 q 169 214 169 161 l 169 768 q 172 835 169 803 q 175 885 174 867 q 121 883 151 883 q 72 881 90 882 l 72 972 l 757 972 l 765 711 l 689 711 q 663 830 689 790 q 597 883 638 869 q 514 896 557 897 l 442 894 q 383 882 404 893 q 353 842 363 871 q 344 758 344 814 l 344 546 l 539 544 l 532 665 l 624 665 l 624 343 l 547 343 m 435 1069 l 169 1274 l 208 1332 l 451 1211 l 699 1335 l 732 1278 l 454 1069 l 435 1069 z "},"Ê":{"ha":865,"x_min":72,"x_max":807,"o":"m 547 343 q 530 429 547 403 q 480 461 513 456 q 401 465 447 467 l 344 463 l 344 206 q 343 137 344 168 q 339 88 342 106 l 551 89 q 640 108 600 89 q 706 172 681 126 q 731 294 731 217 l 807 294 l 800 0 l 72 0 l 72 76 q 132 90 111 78 q 161 131 153 101 q 169 214 169 161 l 169 768 q 172 835 169 803 q 175 885 174 867 q 121 883 151 883 q 72 881 90 882 l 72 972 l 757 972 l 765 711 l 689 711 q 663 830 689 790 q 597 883 638 869 q 514 896 557 897 l 442 894 q 383 882 404 893 q 353 842 363 871 q 344 758 344 814 l 344 546 l 539 544 l 532 665 l 624 665 l 624 343 l 547 343 m 640 1068 l 453 1188 l 261 1071 l 225 1125 l 449 1331 l 468 1331 l 681 1126 l 640 1068 z "},"Ế":{"ha":865,"x_min":72,"x_max":885,"o":"m 547 343 q 530 429 547 403 q 480 461 513 456 q 401 465 447 467 l 344 463 l 344 206 q 343 137 344 168 q 339 88 342 106 l 551 89 q 640 108 600 89 q 706 172 681 126 q 731 294 731 217 l 807 294 l 800 0 l 72 0 l 72 76 q 132 90 111 78 q 161 131 153 101 q 169 214 169 161 l 169 768 q 172 835 169 803 q 175 885 174 867 q 121 883 151 883 q 72 881 90 882 l 72 972 l 757 972 l 765 711 l 689 711 q 663 830 689 790 q 597 883 638 869 q 514 896 557 897 l 442 894 q 383 882 404 893 q 353 842 363 871 q 344 758 344 814 l 344 546 l 539 544 l 532 665 l 624 665 l 624 343 l 547 343 m 610 1053 l 453 1151 l 296 1054 l 264 1099 l 451 1268 l 465 1268 l 642 1100 l 610 1053 m 683 1168 l 628 1217 l 743 1410 q 780 1447 758 1436 q 823 1455 801 1457 q 860 1440 844 1453 q 881 1404 876 1426 q 878 1358 886 1382 q 847 1315 869 1335 l 683 1168 z "},"Ệ":{"ha":865,"x_min":72,"x_max":807,"o":"m 547 343 q 530 429 547 403 q 480 461 513 456 q 401 465 447 467 l 344 463 l 344 206 q 343 137 344 168 q 339 88 342 106 l 551 89 q 640 108 600 89 q 706 172 681 126 q 731 294 731 217 l 807 294 l 800 0 l 72 0 l 72 76 q 132 90 111 78 q 161 131 153 101 q 169 214 169 161 l 169 768 q 172 835 169 803 q 175 885 174 867 q 121 883 151 883 q 72 881 90 882 l 72 972 l 757 972 l 765 711 l 689 711 q 663 830 689 790 q 597 883 638 869 q 514 896 557 897 l 442 894 q 383 882 404 893 q 353 842 363 871 q 344 758 344 814 l 344 546 l 539 544 l 532 665 l 624 665 l 624 343 l 547 343 m 471 -262 q 414 -237 436 -262 q 392 -178 392 -212 q 415 -118 392 -143 q 471 -93 439 -93 q 526 -118 504 -93 q 547 -178 547 -143 q 526 -237 547 -212 q 471 -262 504 -262 m 640 1068 l 453 1188 l 261 1071 l 225 1125 l 449 1331 l 468 1331 l 681 1126 l 640 1068 z "},"Ề":{"ha":865,"x_min":72,"x_max":807,"o":"m 547 343 q 530 429 547 403 q 480 461 513 456 q 401 465 447 467 l 344 463 l 344 206 q 343 137 344 168 q 339 88 342 106 l 551 89 q 640 108 600 89 q 706 172 681 126 q 731 294 731 217 l 807 294 l 800 0 l 72 0 l 72 76 q 132 90 111 78 q 161 131 153 101 q 169 214 169 161 l 169 768 q 172 835 169 803 q 175 885 174 867 q 121 883 151 883 q 72 881 90 882 l 72 972 l 757 972 l 765 711 l 689 711 q 663 830 689 790 q 597 883 638 869 q 514 896 557 897 l 442 894 q 383 882 404 893 q 353 842 363 871 q 344 758 344 814 l 344 546 l 539 544 l 532 665 l 624 665 l 624 343 l 547 343 m 610 1053 l 453 1151 l 296 1054 l 264 1099 l 451 1268 l 465 1268 l 642 1100 l 610 1053 m 653 1222 l 489 1369 q 460 1413 468 1389 q 456 1458 451 1436 q 478 1494 461 1481 q 515 1509 494 1507 q 557 1501 536 1511 q 594 1464 578 1490 l 708 1271 l 653 1222 z "},"Ể":{"ha":865,"x_min":72,"x_max":807,"o":"m 547 343 q 530 429 547 403 q 480 461 513 456 q 401 465 447 467 l 344 463 l 344 206 q 343 137 344 168 q 339 88 342 106 l 551 89 q 640 108 600 89 q 706 172 681 126 q 731 294 731 217 l 807 294 l 800 0 l 72 0 l 72 76 q 132 90 111 78 q 161 131 153 101 q 169 214 169 161 l 169 768 q 172 835 169 803 q 175 885 174 867 q 121 883 151 883 q 72 881 90 882 l 72 972 l 757 972 l 765 711 l 689 711 q 663 830 689 790 q 597 883 638 869 q 514 896 557 897 l 442 894 q 383 882 404 893 q 353 842 363 871 q 344 758 344 814 l 344 546 l 539 544 l 532 665 l 624 665 l 624 343 l 547 343 m 608 1053 l 453 1151 l 294 1053 l 264 1099 l 450 1268 l 465 1268 l 642 1099 l 608 1053 m 619 1224 q 638 1268 619 1251 q 674 1301 656 1285 q 691 1326 685 1313 q 697 1357 697 1340 q 678 1402 697 1385 q 626 1419 658 1419 q 575 1406 593 1419 q 554 1381 557 1392 q 577 1370 569 1379 q 585 1349 585 1361 q 572 1319 585 1332 q 538 1307 560 1307 q 493 1325 511 1307 q 475 1372 475 1343 q 492 1428 475 1401 q 544 1474 510 1456 q 626 1492 579 1492 q 749 1457 706 1492 q 793 1368 793 1422 q 774 1313 793 1332 q 735 1275 756 1293 q 707 1249 718 1261 q 696 1224 696 1236 l 619 1224 z "},"Ễ":{"ha":865,"x_min":72,"x_max":807,"o":"m 547 343 q 530 429 547 403 q 480 461 513 456 q 401 465 447 467 l 344 463 l 344 206 q 343 137 344 168 q 339 88 342 106 l 551 89 q 640 108 600 89 q 706 172 681 126 q 731 294 731 217 l 807 294 l 800 0 l 72 0 l 72 76 q 132 90 111 78 q 161 131 153 101 q 169 214 169 161 l 169 768 q 172 835 169 803 q 175 885 174 867 q 121 883 151 883 q 72 881 90 882 l 72 972 l 757 972 l 765 711 l 689 711 q 663 830 689 790 q 597 883 638 869 q 514 896 557 897 l 442 894 q 383 882 404 893 q 353 842 363 871 q 344 758 344 814 l 344 546 l 539 544 l 532 665 l 624 665 l 624 343 l 547 343 m 608 1053 l 453 1151 l 294 1054 l 264 1099 l 450 1268 l 465 1268 l 642 1100 l 608 1053 m 721 1456 q 649 1339 694 1375 q 564 1303 604 1303 q 497 1318 525 1303 q 443 1349 468 1333 q 392 1364 418 1364 q 347 1351 372 1364 q 300 1307 321 1339 l 235 1344 q 301 1442 256 1404 q 390 1481 346 1479 q 460 1465 433 1481 q 509 1435 486 1450 q 564 1421 532 1421 q 614 1439 590 1421 q 656 1489 638 1457 l 721 1456 z "},"Ë":{"ha":865,"x_min":72,"x_max":807,"o":"m 547 343 q 530 429 547 403 q 480 461 513 456 q 401 465 447 467 l 344 463 l 344 206 q 343 137 344 168 q 339 88 342 106 l 551 89 q 640 108 600 89 q 706 172 681 126 q 731 294 731 217 l 807 294 l 800 0 l 72 0 l 72 76 q 132 90 111 78 q 161 131 153 101 q 169 214 169 161 l 169 768 q 172 835 169 803 q 175 885 174 867 q 121 883 151 883 q 72 881 90 882 l 72 972 l 757 972 l 765 711 l 689 711 q 663 830 689 790 q 597 883 638 869 q 514 896 557 897 l 442 894 q 383 882 404 893 q 353 842 363 871 q 344 758 344 814 l 344 546 l 539 544 l 532 665 l 624 665 l 624 343 l 547 343 m 329 1097 q 269 1126 294 1097 q 243 1196 243 1156 q 269 1267 243 1238 q 331 1297 296 1297 q 392 1268 368 1297 q 417 1196 417 1239 q 390 1126 417 1156 q 329 1097 364 1097 m 574 1097 q 514 1126 540 1097 q 488 1196 488 1156 q 515 1267 488 1238 q 575 1297 542 1297 q 637 1268 613 1297 q 661 1196 661 1239 q 635 1126 661 1156 q 574 1097 610 1097 z "},"Ė":{"ha":865,"x_min":72,"x_max":807,"o":"m 547 343 q 530 429 547 403 q 480 461 513 456 q 401 465 447 467 l 344 463 l 344 206 q 343 137 344 168 q 339 88 342 106 l 551 89 q 640 108 600 89 q 706 172 681 126 q 731 294 731 217 l 807 294 l 800 0 l 72 0 l 72 76 q 132 90 111 78 q 161 131 153 101 q 169 214 169 161 l 169 768 q 172 835 169 803 q 175 885 174 867 q 121 883 151 883 q 72 881 90 882 l 72 972 l 757 972 l 765 711 l 689 711 q 663 830 689 790 q 597 883 638 869 q 514 896 557 897 l 442 894 q 383 882 404 893 q 353 842 363 871 q 344 758 344 814 l 344 546 l 539 544 l 532 665 l 624 665 l 624 343 l 547 343 m 453 1106 q 385 1135 413 1106 q 357 1208 357 1165 q 385 1282 357 1251 q 453 1313 414 1313 q 520 1282 493 1313 q 547 1208 547 1251 q 521 1135 547 1165 q 453 1106 494 1106 z "},"Ẹ":{"ha":865,"x_min":72,"x_max":807,"o":"m 547 343 q 530 429 547 403 q 480 461 513 456 q 401 465 447 467 l 344 463 l 344 206 q 343 137 344 168 q 339 88 342 106 l 551 89 q 640 108 600 89 q 706 172 681 126 q 731 294 731 217 l 807 294 l 800 0 l 72 0 l 72 76 q 132 90 111 78 q 161 131 153 101 q 169 214 169 161 l 169 768 q 172 835 169 803 q 175 885 174 867 q 121 883 151 883 q 72 881 90 882 l 72 972 l 757 972 l 765 711 l 689 711 q 663 830 689 790 q 597 883 638 869 q 514 896 557 897 l 442 894 q 383 882 404 893 q 353 842 363 871 q 344 758 344 814 l 344 546 l 539 544 l 532 665 l 624 665 l 624 343 l 547 343 m 471 -262 q 414 -237 436 -262 q 392 -178 392 -212 q 415 -118 392 -143 q 471 -93 439 -93 q 526 -118 504 -93 q 547 -178 547 -143 q 526 -237 547 -212 q 471 -262 504 -262 z "},"È":{"ha":865,"x_min":72,"x_max":807,"o":"m 547 343 q 530 429 547 403 q 480 461 513 456 q 401 465 447 467 l 344 463 l 344 206 q 343 137 344 168 q 339 88 342 106 l 551 89 q 640 108 600 89 q 706 172 681 126 q 731 294 731 217 l 807 294 l 800 0 l 72 0 l 72 76 q 132 90 111 78 q 161 131 153 101 q 169 214 169 161 l 169 768 q 172 835 169 803 q 175 885 174 867 q 121 883 151 883 q 72 881 90 882 l 72 972 l 757 972 l 765 711 l 689 711 q 663 830 689 790 q 597 883 638 869 q 514 896 557 897 l 442 894 q 383 882 404 893 q 353 842 363 871 q 344 758 344 814 l 344 546 l 539 544 l 532 665 l 624 665 l 624 343 l 547 343 m 490 1046 l 292 1157 q 254 1193 267 1172 q 241 1235 242 1214 q 251 1274 240 1257 q 284 1297 264 1292 q 327 1297 304 1303 q 372 1269 350 1290 l 533 1106 l 490 1046 z "},"Ẻ":{"ha":865,"x_min":72,"x_max":807,"o":"m 547 343 q 530 429 547 403 q 480 461 513 456 q 401 465 447 467 l 344 463 l 344 206 q 343 137 344 168 q 339 88 342 106 l 551 89 q 640 108 600 89 q 706 172 681 126 q 731 294 731 217 l 807 294 l 800 0 l 72 0 l 72 76 q 132 90 111 78 q 161 131 153 101 q 169 214 169 161 l 169 768 q 172 835 169 803 q 175 885 174 867 q 121 883 151 883 q 72 881 90 882 l 72 972 l 757 972 l 765 711 l 689 711 q 663 830 689 790 q 597 883 638 869 q 514 896 557 897 l 442 894 q 383 882 404 893 q 353 842 363 871 q 344 758 344 814 l 344 546 l 539 544 l 532 665 l 624 665 l 624 343 l 547 343 m 425 1057 q 443 1101 425 1085 q 479 1135 461 1118 q 497 1160 490 1146 q 503 1190 503 1174 q 483 1235 503 1218 q 432 1253 464 1253 q 381 1239 399 1253 q 360 1214 363 1225 q 383 1203 375 1213 q 390 1182 390 1194 q 378 1153 390 1165 q 343 1140 365 1140 q 299 1158 317 1140 q 281 1206 281 1176 q 298 1262 281 1235 q 350 1307 315 1289 q 432 1325 385 1325 q 555 1290 511 1325 q 599 1201 599 1256 q 581 1144 599 1165 q 540 1108 564 1124 q 513 1082 524 1094 q 501 1057 501 1069 l 425 1057 z "},"Ē":{"ha":865,"x_min":72,"x_max":807,"o":"m 547 343 q 530 429 547 403 q 480 461 513 456 q 401 465 447 467 l 344 463 l 344 206 q 343 137 344 168 q 339 88 342 106 l 551 89 q 640 108 600 89 q 706 172 681 126 q 731 294 731 217 l 807 294 l 800 0 l 72 0 l 72 76 q 132 90 111 78 q 161 131 153 101 q 169 214 169 161 l 169 768 q 172 835 169 803 q 175 885 174 867 q 121 883 151 883 q 72 881 90 882 l 72 972 l 757 972 l 765 711 l 689 711 q 663 830 689 790 q 597 883 638 869 q 514 896 557 897 l 442 894 q 383 882 404 893 q 353 842 363 871 q 344 758 344 814 l 344 546 l 539 544 l 532 665 l 624 665 l 624 343 l 547 343 m 258 1154 l 258 1271 l 644 1271 l 644 1160 l 258 1154 z "},"Ę":{"ha":865,"x_min":72,"x_max":807,"o":"m 547 343 q 530 429 547 403 q 480 461 513 456 q 401 465 447 467 l 344 463 l 344 206 q 343 137 344 168 q 339 88 342 106 l 551 89 q 640 108 600 89 q 706 172 681 126 q 731 294 731 217 l 807 294 l 800 0 l 72 0 l 72 76 q 132 90 111 78 q 161 131 153 101 q 169 214 169 161 l 169 768 q 172 835 169 803 q 175 885 174 867 q 121 883 151 883 q 72 881 90 882 l 72 972 l 757 972 l 765 711 l 689 711 q 663 830 689 790 q 597 883 638 869 q 514 896 557 897 l 442 894 q 383 882 404 893 q 353 842 363 871 q 344 758 344 814 l 344 546 l 539 544 l 532 665 l 624 665 l 624 343 l 547 343 m 621 -358 q 513 -321 554 -358 q 471 -215 471 -283 q 516 -98 471 -153 q 632 -2 561 -43 q 779 61 703 39 l 779 7 q 692 -39 735 -11 q 625 -103 650 -67 q 600 -181 600 -139 q 621 -231 601 -211 q 669 -250 640 -250 q 714 -239 692 -250 q 757 -210 736 -228 l 797 -258 q 718 -329 765 -300 q 621 -358 671 -358 z "},"Ẽ":{"ha":865,"x_min":72,"x_max":807,"o":"m 547 343 q 530 429 547 403 q 480 461 513 456 q 401 465 447 467 l 344 463 l 344 206 q 343 137 344 168 q 339 88 342 106 l 551 89 q 640 108 600 89 q 706 172 681 126 q 731 294 731 217 l 807 294 l 800 0 l 72 0 l 72 76 q 132 90 111 78 q 161 131 153 101 q 169 214 169 161 l 169 768 q 172 835 169 803 q 175 885 174 867 q 121 883 151 883 q 72 881 90 882 l 72 972 l 757 972 l 765 711 l 689 711 q 663 830 689 790 q 597 883 638 869 q 514 896 557 897 l 442 894 q 383 882 404 893 q 353 842 363 871 q 344 758 344 814 l 344 546 l 539 544 l 532 665 l 624 665 l 624 343 l 547 343 m 735 1265 q 682 1162 713 1199 q 619 1111 651 1125 q 557 1097 586 1097 q 495 1109 522 1097 q 444 1137 468 1121 q 397 1165 421 1153 q 346 1176 374 1176 q 290 1158 318 1176 q 235 1100 261 1140 l 167 1143 q 247 1252 196 1215 q 344 1290 297 1289 q 409 1278 382 1290 q 459 1251 436 1267 q 505 1224 482 1236 q 556 1213 528 1213 q 617 1238 586 1213 q 668 1303 647 1264 l 735 1265 z "},"Ə":{"ha":1046,"x_min":71,"x_max":993,"o":"m 519 -22 q 317 17 403 -22 q 178 124 232 57 q 97 276 124 190 q 71 454 71 361 q 72 492 71 472 q 75 531 74 513 l 800 535 q 774 674 796 607 q 713 792 751 740 q 615 874 674 844 q 478 904 557 904 q 350 879 408 904 q 253 804 292 854 q 203 679 214 754 l 125 679 l 125 985 l 221 985 l 217 921 q 311 963 257 947 q 419 987 365 979 q 513 994 472 994 q 738 951 646 994 q 885 835 829 907 q 967 674 942 763 q 993 494 993 585 q 963 302 993 394 q 872 137 932 210 q 724 21 813 64 q 519 -22 636 -22 m 538 64 q 652 98 604 67 q 733 183 700 129 q 782 303 765 236 q 803 443 799 371 l 257 442 q 277 297 258 365 q 331 176 296 228 q 419 94 367 124 q 538 64 471 64 z "},"Ʒ":{"ha":885,"x_min":46,"x_max":840,"o":"m 497 572 q 690 541 614 581 q 803 435 765 501 q 840 290 840 368 q 807 156 840 214 q 717 57 774 97 q 590 -3 661 17 q 440 -22 518 -24 q 350 -14 400 -22 q 247 17 300 -6 q 142 79 193 39 q 46 185 92 119 l 104 233 q 247 114 161 153 q 419 75 333 75 q 535 97 483 75 q 617 169 586 119 q 649 296 649 218 q 597 446 649 392 q 440 501 546 500 l 349 501 l 349 553 l 497 572 m 522 761 q 585 835 558 807 q 646 890 613 864 l 353 893 q 228 844 275 894 q 181 679 181 794 l 104 679 l 113 972 l 807 972 l 807 886 l 518 536 l 349 553 l 522 761 z "},"Ǯ":{"ha":885,"x_min":46,"x_max":840,"o":"m 497 572 q 690 541 614 581 q 803 435 765 501 q 840 290 840 368 q 807 156 840 214 q 717 57 774 97 q 590 -3 661 17 q 440 -22 518 -24 q 350 -14 400 -22 q 247 17 300 -6 q 142 79 193 39 q 46 185 92 119 l 104 233 q 247 114 161 153 q 419 75 333 75 q 535 97 483 75 q 617 169 586 119 q 649 296 649 218 q 597 446 649 392 q 440 501 546 500 l 349 501 l 349 553 l 497 572 m 522 761 q 585 835 558 807 q 646 890 613 864 l 353 893 q 228 844 275 894 q 181 679 181 794 l 104 679 l 113 972 l 807 972 l 807 886 l 518 536 l 349 553 l 522 761 m 426 1069 l 161 1274 l 200 1332 l 443 1211 l 690 1335 l 724 1278 l 446 1069 l 426 1069 z "},"F":{"ha":782,"x_min":72,"x_max":757,"o":"m 72 0 l 72 76 q 132 90 111 78 q 161 131 153 101 q 169 214 169 161 l 169 768 q 172 835 169 803 q 175 885 174 867 q 121 883 151 883 q 72 881 90 882 l 72 972 l 750 972 l 757 711 l 681 711 q 654 830 681 790 q 588 883 628 869 q 506 896 547 897 l 438 894 q 381 881 401 893 q 353 838 361 868 q 344 757 344 808 l 344 515 l 519 515 l 513 635 l 604 635 l 604 313 l 529 313 q 511 399 529 372 q 460 431 493 425 q 383 435 428 438 l 344 433 l 344 207 q 343 138 344 169 q 339 88 342 106 q 381 90 357 89 q 430 91 406 90 q 468 92 454 92 l 468 0 l 72 0 z "},"G":{"ha":1050,"x_min":56,"x_max":1025,"o":"m 528 -22 q 275 41 381 -22 q 113 216 169 104 q 56 469 56 328 q 85 659 56 565 q 175 828 115 753 q 326 949 235 904 q 538 994 417 994 q 628 986 579 994 q 724 962 676 978 q 810 924 772 946 l 804 985 l 901 985 l 901 663 l 825 663 q 776 799 814 744 q 681 881 739 853 q 553 910 624 910 q 423 876 481 910 q 326 786 365 843 q 265 656 286 729 q 244 499 244 582 q 283 280 244 376 q 392 128 321 183 q 563 74 463 74 q 631 78 593 74 q 706 94 668 83 q 772 121 743 106 l 772 264 q 774 335 772 300 q 776 392 775 369 q 722 390 753 390 q 674 388 692 389 l 674 479 l 1025 479 l 1025 403 q 978 392 996 401 q 949 366 960 383 q 933 324 938 349 q 929 267 929 299 l 929 49 l 894 49 q 821 38 861 49 q 733 13 781 28 q 638 -12 690 -1 q 528 -22 585 -22 z "},"Ğ":{"ha":1050,"x_min":56,"x_max":1025,"o":"m 528 -22 q 275 41 381 -22 q 113 216 169 104 q 56 469 56 328 q 85 659 56 565 q 175 828 115 753 q 326 949 235 904 q 538 994 417 994 q 628 986 579 994 q 724 962 676 978 q 810 924 772 946 l 804 985 l 901 985 l 901 663 l 825 663 q 776 799 814 744 q 681 881 739 853 q 553 910 624 910 q 423 876 481 910 q 326 786 365 843 q 265 656 286 729 q 244 499 244 582 q 283 280 244 376 q 392 128 321 183 q 563 74 463 74 q 631 78 593 74 q 706 94 668 83 q 772 121 743 106 l 772 264 q 774 335 772 300 q 776 392 775 369 q 722 390 753 390 q 674 388 692 389 l 674 479 l 1025 479 l 1025 403 q 978 392 996 401 q 949 366 960 383 q 933 324 938 349 q 929 267 929 299 l 929 49 l 894 49 q 821 38 861 49 q 733 13 781 28 q 638 -12 690 -1 q 528 -22 585 -22 m 544 1099 q 456 1115 500 1099 q 376 1166 413 1131 q 318 1258 340 1201 l 369 1283 q 440 1231 396 1254 q 544 1207 483 1207 q 649 1231 606 1207 q 718 1283 692 1254 l 769 1258 q 711 1166 747 1201 q 631 1115 675 1131 q 544 1099 588 1099 z "},"Ǧ":{"ha":1050,"x_min":56,"x_max":1025,"o":"m 528 -22 q 275 41 381 -22 q 113 216 169 104 q 56 469 56 328 q 85 659 56 565 q 175 828 115 753 q 326 949 235 904 q 538 994 417 994 q 628 986 579 994 q 724 962 676 978 q 810 924 772 946 l 804 985 l 901 985 l 901 663 l 825 663 q 776 799 814 744 q 681 881 739 853 q 553 910 624 910 q 423 876 481 910 q 326 786 365 843 q 265 656 286 729 q 244 499 244 582 q 283 280 244 376 q 392 128 321 183 q 563 74 463 74 q 631 78 593 74 q 706 94 668 83 q 772 121 743 106 l 772 264 q 774 335 772 300 q 776 392 775 369 q 722 390 753 390 q 674 388 692 389 l 674 479 l 1025 479 l 1025 403 q 978 392 996 401 q 949 366 960 383 q 933 324 938 349 q 929 267 929 299 l 929 49 l 894 49 q 821 38 861 49 q 733 13 781 28 q 638 -12 690 -1 q 528 -22 585 -22 m 525 1069 l 260 1274 l 299 1332 l 542 1211 l 789 1335 l 822 1278 l 544 1069 l 525 1069 z "},"Ĝ":{"ha":1050,"x_min":56,"x_max":1025,"o":"m 528 -22 q 275 41 381 -22 q 113 216 169 104 q 56 469 56 328 q 85 659 56 565 q 175 828 115 753 q 326 949 235 904 q 538 994 417 994 q 628 986 579 994 q 724 962 676 978 q 810 924 772 946 l 804 985 l 901 985 l 901 663 l 825 663 q 776 799 814 744 q 681 881 739 853 q 553 910 624 910 q 423 876 481 910 q 326 786 365 843 q 265 656 286 729 q 244 499 244 582 q 283 280 244 376 q 392 128 321 183 q 563 74 463 74 q 631 78 593 74 q 706 94 668 83 q 772 121 743 106 l 772 264 q 774 335 772 300 q 776 392 775 369 q 722 390 753 390 q 674 388 692 389 l 674 479 l 1025 479 l 1025 403 q 978 392 996 401 q 949 366 960 383 q 933 324 938 349 q 929 267 929 299 l 929 49 l 894 49 q 821 38 861 49 q 733 13 781 28 q 638 -12 690 -1 q 528 -22 585 -22 m 731 1068 l 543 1188 l 351 1071 l 315 1125 l 539 1331 l 558 1331 l 771 1126 l 731 1068 z "},"Ģ":{"ha":1050,"x_min":56,"x_max":1025,"o":"m 528 -22 q 275 41 381 -22 q 113 216 169 104 q 56 469 56 328 q 85 659 56 565 q 175 828 115 753 q 326 949 235 904 q 538 994 417 994 q 628 986 579 994 q 724 962 676 978 q 810 924 772 946 l 804 985 l 901 985 l 901 663 l 825 663 q 776 799 814 744 q 681 881 739 853 q 553 910 624 910 q 423 876 481 910 q 326 786 365 843 q 265 656 286 729 q 244 499 244 582 q 283 280 244 376 q 392 128 321 183 q 563 74 463 74 q 631 78 593 74 q 706 94 668 83 q 772 121 743 106 l 772 264 q 774 335 772 300 q 776 392 775 369 q 722 390 753 390 q 674 388 692 389 l 674 479 l 1025 479 l 1025 403 q 978 392 996 401 q 949 366 960 383 q 933 324 938 349 q 929 267 929 299 l 929 49 l 894 49 q 821 38 861 49 q 733 13 781 28 q 638 -12 690 -1 q 528 -22 585 -22 m 550 -383 l 497 -342 q 540 -244 528 -287 q 551 -160 553 -200 q 538 -78 550 -121 l 653 -51 q 679 -149 679 -97 q 644 -267 679 -207 q 550 -383 608 -328 z "},"Ġ":{"ha":1050,"x_min":56,"x_max":1025,"o":"m 528 -22 q 275 41 381 -22 q 113 216 169 104 q 56 469 56 328 q 85 659 56 565 q 175 828 115 753 q 326 949 235 904 q 538 994 417 994 q 628 986 579 994 q 724 962 676 978 q 810 924 772 946 l 804 985 l 901 985 l 901 663 l 825 663 q 776 799 814 744 q 681 881 739 853 q 553 910 624 910 q 423 876 481 910 q 326 786 365 843 q 265 656 286 729 q 244 499 244 582 q 283 280 244 376 q 392 128 321 183 q 563 74 463 74 q 631 78 593 74 q 706 94 668 83 q 772 121 743 106 l 772 264 q 774 335 772 300 q 776 392 775 369 q 722 390 753 390 q 674 388 692 389 l 674 479 l 1025 479 l 1025 403 q 978 392 996 401 q 949 366 960 383 q 933 324 938 349 q 929 267 929 299 l 929 49 l 894 49 q 821 38 861 49 q 733 13 781 28 q 638 -12 690 -1 q 528 -22 585 -22 m 543 1106 q 475 1135 503 1106 q 447 1208 447 1165 q 476 1282 447 1251 q 543 1313 504 1313 q 610 1282 583 1313 q 638 1208 638 1251 q 611 1135 638 1165 q 543 1106 585 1106 z "},"Ǥ":{"ha":1050,"x_min":56,"x_max":1044,"o":"m 631 257 l 631 317 l 1044 317 l 1044 263 l 631 257 m 528 -22 q 275 41 381 -22 q 113 216 169 104 q 56 469 56 328 q 85 659 56 565 q 175 828 115 753 q 326 949 235 904 q 538 994 417 994 q 628 986 579 994 q 724 962 676 978 q 810 924 772 946 l 804 985 l 901 985 l 901 663 l 825 663 q 776 799 814 744 q 681 881 739 853 q 553 910 624 910 q 423 876 481 910 q 326 786 365 843 q 265 656 286 729 q 244 499 244 582 q 283 280 244 376 q 392 128 321 183 q 563 74 463 74 q 631 78 593 74 q 706 94 668 83 q 772 121 743 106 l 772 264 q 774 335 772 300 q 776 392 775 369 q 722 390 753 390 q 674 388 692 389 l 674 479 l 1025 479 l 1025 403 q 978 392 996 401 q 949 366 960 383 q 933 324 938 349 q 929 267 929 299 l 929 49 l 894 49 q 821 38 861 49 q 733 13 781 28 q 638 -12 690 -1 q 528 -22 585 -22 z "},"H":{"ha":1108,"x_min":72,"x_max":1036,"o":"m 72 0 l 72 76 q 132 90 111 78 q 161 131 153 101 q 169 214 169 161 l 169 768 q 172 835 169 803 q 175 885 174 867 q 121 883 151 883 q 72 881 90 882 l 72 972 l 442 972 l 442 896 q 383 883 404 894 q 353 842 361 871 q 344 758 344 813 l 344 538 l 764 538 l 764 768 q 765 835 764 803 q 769 885 767 867 q 715 883 746 883 q 667 881 685 882 l 667 972 l 1036 972 l 1036 896 q 977 883 999 894 q 947 842 956 871 q 939 758 939 813 l 939 207 q 938 138 939 169 q 933 88 936 106 q 988 90 957 89 q 1036 92 1019 92 l 1036 0 l 667 0 l 667 76 q 726 90 706 78 q 756 131 747 101 q 764 214 764 161 l 764 449 l 344 443 l 344 207 q 343 138 344 169 q 339 88 342 106 q 393 90 363 89 q 442 92 424 92 l 442 0 l 72 0 z "},"Ħ":{"ha":1108,"x_min":64,"x_max":1043,"o":"m 64 688 l 64 757 l 1043 757 l 1043 693 l 64 688 m 72 0 l 72 76 q 132 90 111 78 q 161 131 153 101 q 169 214 169 161 l 169 768 q 172 835 169 803 q 175 885 174 867 q 121 883 151 883 q 72 881 90 882 l 72 972 l 442 972 l 442 896 q 383 883 404 894 q 353 842 361 871 q 344 758 344 813 l 344 538 l 764 538 l 764 768 q 765 835 764 803 q 769 885 767 867 q 715 883 746 883 q 667 881 685 882 l 667 972 l 1036 972 l 1036 896 q 977 883 999 894 q 947 842 956 871 q 939 758 939 813 l 939 207 q 938 138 939 169 q 933 88 936 106 q 988 90 957 89 q 1036 92 1019 92 l 1036 0 l 667 0 l 667 76 q 726 90 706 78 q 756 131 747 101 q 764 214 764 161 l 764 449 l 344 443 l 344 207 q 343 138 344 169 q 339 88 342 106 q 393 90 363 89 q 442 92 424 92 l 442 0 l 72 0 z "},"Ȟ":{"ha":1108,"x_min":72,"x_max":1036,"o":"m 72 0 l 72 76 q 132 90 111 78 q 161 131 153 101 q 169 214 169 161 l 169 768 q 172 835 169 803 q 175 885 174 867 q 121 883 151 883 q 72 881 90 882 l 72 972 l 442 972 l 442 896 q 383 883 404 894 q 353 842 361 871 q 344 758 344 813 l 344 538 l 764 538 l 764 768 q 765 835 764 803 q 769 885 767 867 q 715 883 746 883 q 667 881 685 882 l 667 972 l 1036 972 l 1036 896 q 977 883 999 894 q 947 842 956 871 q 939 758 939 813 l 939 207 q 938 138 939 169 q 933 88 936 106 q 988 90 957 89 q 1036 92 1019 92 l 1036 0 l 667 0 l 667 76 q 726 90 706 78 q 756 131 747 101 q 764 214 764 161 l 764 449 l 344 443 l 344 207 q 343 138 344 169 q 339 88 342 106 q 393 90 363 89 q 442 92 424 92 l 442 0 l 72 0 m 538 1069 l 272 1274 l 311 1332 l 554 1211 l 801 1335 l 835 1278 l 557 1069 l 538 1069 z "},"Ĥ":{"ha":1108,"x_min":72,"x_max":1036,"o":"m 72 0 l 72 76 q 132 90 111 78 q 161 131 153 101 q 169 214 169 161 l 169 768 q 172 835 169 803 q 175 885 174 867 q 121 883 151 883 q 72 881 90 882 l 72 972 l 442 972 l 442 896 q 383 883 404 894 q 353 842 361 871 q 344 758 344 813 l 344 538 l 764 538 l 764 768 q 765 835 764 803 q 769 885 767 867 q 715 883 746 883 q 667 881 685 882 l 667 972 l 1036 972 l 1036 896 q 977 883 999 894 q 947 842 956 871 q 939 758 939 813 l 939 207 q 938 138 939 169 q 933 88 936 106 q 988 90 957 89 q 1036 92 1019 92 l 1036 0 l 667 0 l 667 76 q 726 90 706 78 q 756 131 747 101 q 764 214 764 161 l 764 449 l 344 443 l 344 207 q 343 138 344 169 q 339 88 342 106 q 393 90 363 89 q 442 92 424 92 l 442 0 l 72 0 m 743 1068 l 556 1188 l 364 1071 l 328 1125 l 551 1331 l 571 1331 l 783 1126 l 743 1068 z "},"I":{"ha":514,"x_min":72,"x_max":442,"o":"m 442 896 q 383 883 404 894 q 353 842 361 871 q 344 758 344 813 l 344 207 q 343 138 344 169 q 339 88 342 106 q 393 90 363 89 q 442 92 424 92 l 442 0 l 72 0 l 72 76 q 132 90 111 78 q 161 131 153 101 q 169 214 169 161 l 169 768 q 172 835 169 803 q 175 885 174 867 q 121 883 151 883 q 72 881 90 882 l 72 972 l 442 972 l 442 896 z "},"Ĳ":{"ha":1104,"x_min":72,"x_max":1065,"o":"m 442 896 q 383 883 404 894 q 353 842 361 871 q 344 758 344 813 l 344 207 q 343 138 344 169 q 339 88 342 106 q 393 90 363 89 q 442 92 424 92 l 442 0 l 72 0 l 72 76 q 132 90 111 78 q 161 131 153 101 q 169 214 169 161 l 169 768 q 172 835 169 803 q 175 885 174 867 q 121 883 151 883 q 72 881 90 882 l 72 972 l 442 972 l 442 896 m 696 -22 q 605 -6 646 -22 q 539 41 564 11 q 514 110 514 71 q 535 179 514 149 q 597 211 556 210 q 664 188 644 214 q 685 131 683 161 q 683 108 686 121 q 675 86 681 96 q 698 67 682 72 q 721 64 714 63 q 772 93 754 64 q 789 189 789 122 l 789 761 q 790 829 789 796 q 793 885 792 863 q 733 883 767 883 q 676 881 699 882 l 676 972 l 1065 972 l 1065 896 q 1007 884 1029 894 q 974 847 985 874 q 964 769 964 821 l 964 349 q 897 64 964 150 q 696 -22 829 -22 z "},"Í":{"ha":514,"x_min":72,"x_max":454,"o":"m 442 896 q 383 883 404 894 q 353 842 361 871 q 344 758 344 813 l 344 207 q 343 138 344 169 q 339 88 342 106 q 393 90 363 89 q 442 92 424 92 l 442 0 l 72 0 l 72 76 q 132 90 111 78 q 161 131 153 101 q 169 214 169 161 l 169 768 q 172 835 169 803 q 175 885 174 867 q 121 883 151 883 q 72 881 90 882 l 72 972 l 442 972 l 442 896 m 204 1046 l 160 1106 l 321 1269 q 367 1297 343 1290 q 410 1297 390 1303 q 442 1274 431 1292 q 453 1235 454 1257 q 440 1193 453 1214 q 403 1157 428 1172 l 204 1046 z "},"Ĭ":{"ha":514,"x_min":33,"x_max":485,"o":"m 442 896 q 383 883 404 894 q 353 842 361 871 q 344 758 344 813 l 344 207 q 343 138 344 169 q 339 88 342 106 q 393 90 363 89 q 442 92 424 92 l 442 0 l 72 0 l 72 76 q 132 90 111 78 q 161 131 153 101 q 169 214 169 161 l 169 768 q 172 835 169 803 q 175 885 174 867 q 121 883 151 883 q 72 881 90 882 l 72 972 l 442 972 l 442 896 m 260 1099 q 172 1115 215 1099 q 92 1166 128 1131 q 33 1258 56 1201 l 85 1283 q 155 1231 111 1254 q 260 1207 199 1207 q 364 1231 321 1207 q 433 1283 407 1254 l 485 1258 q 426 1166 463 1201 q 347 1115 390 1131 q 260 1099 303 1099 z "},"Î":{"ha":514,"x_min":31,"x_max":488,"o":"m 442 896 q 383 883 404 894 q 353 842 361 871 q 344 758 344 813 l 344 207 q 343 138 344 169 q 339 88 342 106 q 393 90 363 89 q 442 92 424 92 l 442 0 l 72 0 l 72 76 q 132 90 111 78 q 161 131 153 101 q 169 214 169 161 l 169 768 q 172 835 169 803 q 175 885 174 867 q 121 883 151 883 q 72 881 90 882 l 72 972 l 442 972 l 442 896 m 446 1068 l 258 1188 l 67 1071 l 31 1125 l 254 1331 l 274 1331 l 486 1126 l 446 1068 z "},"Ï":{"ha":514,"x_min":47,"x_max":467,"o":"m 442 896 q 383 883 404 894 q 353 842 361 871 q 344 758 344 813 l 344 207 q 343 138 344 169 q 339 88 342 106 q 393 90 363 89 q 442 92 424 92 l 442 0 l 72 0 l 72 76 q 132 90 111 78 q 161 131 153 101 q 169 214 169 161 l 169 768 q 172 835 169 803 q 175 885 174 867 q 121 883 151 883 q 72 881 90 882 l 72 972 l 442 972 l 442 896 m 135 1097 q 74 1126 100 1097 q 49 1196 49 1156 q 75 1267 49 1238 q 136 1297 101 1297 q 198 1268 174 1297 q 222 1196 222 1239 q 196 1126 222 1156 q 135 1097 169 1097 m 379 1097 q 319 1126 346 1097 q 293 1196 293 1156 q 320 1267 293 1238 q 381 1297 347 1297 q 442 1268 418 1297 q 467 1196 467 1239 q 441 1126 467 1156 q 379 1097 415 1097 z "},"İ":{"ha":514,"x_min":72,"x_max":442,"o":"m 442 896 q 383 883 404 894 q 353 842 361 871 q 344 758 344 813 l 344 207 q 343 138 344 169 q 339 88 342 106 q 393 90 363 89 q 442 92 424 92 l 442 0 l 72 0 l 72 76 q 132 90 111 78 q 161 131 153 101 q 169 214 169 161 l 169 768 q 172 835 169 803 q 175 885 174 867 q 121 883 151 883 q 72 881 90 882 l 72 972 l 442 972 l 442 896 m 258 1106 q 190 1135 218 1106 q 163 1208 163 1165 q 191 1282 163 1251 q 258 1313 219 1313 q 326 1282 299 1313 q 353 1208 353 1251 q 326 1135 353 1165 q 258 1106 300 1106 z "},"Ị":{"ha":514,"x_min":72,"x_max":442,"o":"m 442 896 q 383 883 404 894 q 353 842 361 871 q 344 758 344 813 l 344 207 q 343 138 344 169 q 339 88 342 106 q 393 90 363 89 q 442 92 424 92 l 442 0 l 72 0 l 72 76 q 132 90 111 78 q 161 131 153 101 q 169 214 169 161 l 169 768 q 172 835 169 803 q 175 885 174 867 q 121 883 151 883 q 72 881 90 882 l 72 972 l 442 972 l 442 896 m 260 -262 q 203 -237 225 -262 q 181 -178 181 -212 q 204 -118 181 -143 q 260 -93 228 -93 q 315 -118 293 -93 q 336 -178 336 -143 q 315 -237 336 -212 q 260 -262 293 -262 z "},"Ì":{"ha":514,"x_min":44,"x_max":442,"o":"m 442 896 q 383 883 404 894 q 353 842 361 871 q 344 758 344 813 l 344 207 q 343 138 344 169 q 339 88 342 106 q 393 90 363 89 q 442 92 424 92 l 442 0 l 72 0 l 72 76 q 132 90 111 78 q 161 131 153 101 q 169 214 169 161 l 169 768 q 172 835 169 803 q 175 885 174 867 q 121 883 151 883 q 72 881 90 882 l 72 972 l 442 972 l 442 896 m 296 1046 l 97 1157 q 60 1193 72 1172 q 47 1235 47 1214 q 57 1274 46 1257 q 90 1297 69 1292 q 133 1297 110 1303 q 178 1269 156 1290 l 339 1106 l 296 1046 z "},"Ỉ":{"ha":514,"x_min":72,"x_max":442,"o":"m 442 896 q 383 883 404 894 q 353 842 361 871 q 344 758 344 813 l 344 207 q 343 138 344 169 q 339 88 342 106 q 393 90 363 89 q 442 92 424 92 l 442 0 l 72 0 l 72 76 q 132 90 111 78 q 161 131 153 101 q 169 214 169 161 l 169 768 q 172 835 169 803 q 175 885 174 867 q 121 883 151 883 q 72 881 90 882 l 72 972 l 442 972 l 442 896 m 231 1057 q 249 1101 231 1085 q 285 1135 267 1118 q 302 1160 296 1146 q 308 1190 308 1174 q 289 1235 308 1218 q 238 1253 269 1253 q 186 1239 204 1253 q 165 1214 168 1225 q 188 1203 181 1213 q 196 1182 196 1194 q 183 1153 196 1165 q 149 1140 171 1140 q 104 1158 122 1140 q 86 1206 86 1176 q 103 1262 86 1235 q 156 1307 121 1289 q 238 1325 190 1325 q 360 1290 317 1325 q 404 1201 404 1256 q 387 1144 404 1165 q 346 1108 369 1124 q 318 1082 329 1094 q 307 1057 307 1069 l 231 1057 z "},"Ī":{"ha":514,"x_min":64,"x_max":450,"o":"m 442 896 q 383 883 404 894 q 353 842 361 871 q 344 758 344 813 l 344 207 q 343 138 344 169 q 339 88 342 106 q 393 90 363 89 q 442 92 424 92 l 442 0 l 72 0 l 72 76 q 132 90 111 78 q 161 131 153 101 q 169 214 169 161 l 169 768 q 172 835 169 803 q 175 885 174 867 q 121 883 151 883 q 72 881 90 882 l 72 972 l 442 972 l 442 896 m 64 1154 l 64 1271 l 450 1271 l 450 1160 l 64 1154 z "},"Į":{"ha":514,"x_min":72,"x_max":456,"o":"m 442 896 q 383 883 404 894 q 353 842 361 871 q 344 758 344 813 l 344 207 q 343 138 344 169 q 339 88 342 106 q 393 90 363 89 q 442 92 424 92 l 442 0 l 72 0 l 72 76 q 132 90 111 78 q 161 131 153 101 q 169 214 169 161 l 169 768 q 172 835 169 803 q 175 885 174 867 q 121 883 151 883 q 72 881 90 882 l 72 972 l 442 972 l 442 896 m 279 -365 q 171 -328 213 -365 q 129 -222 129 -290 q 174 -105 129 -160 q 290 -9 219 -50 q 438 54 361 32 l 438 0 q 351 -46 393 -18 q 283 -110 308 -74 q 258 -187 258 -146 q 279 -237 260 -218 q 328 -257 299 -257 q 372 -246 350 -257 q 415 -217 394 -235 l 456 -265 q 376 -336 424 -307 q 279 -365 329 -365 z "},"Ĩ":{"ha":514,"x_min":14,"x_max":500,"o":"m 442 896 q 383 883 404 894 q 353 842 361 871 q 344 758 344 813 l 344 207 q 343 138 344 169 q 339 88 342 106 q 393 90 363 89 q 442 92 424 92 l 442 0 l 72 0 l 72 76 q 132 90 111 78 q 161 131 153 101 q 169 214 169 161 l 169 768 q 172 835 169 803 q 175 885 174 867 q 121 883 151 883 q 72 881 90 882 l 72 972 l 442 972 l 442 896 m 500 1275 q 428 1160 474 1196 q 343 1124 382 1124 q 274 1139 303 1124 q 222 1169 246 1154 q 169 1185 197 1185 q 124 1172 150 1185 q 79 1126 99 1160 l 13 1165 q 79 1262 35 1224 q 168 1300 124 1300 q 239 1286 213 1301 q 288 1256 265 1271 q 343 1240 310 1240 q 392 1259 368 1240 q 433 1310 417 1278 l 500 1275 z "},"J":{"ha":590,"x_min":0,"x_max":551,"o":"m 182 -22 q 91 -6 132 -22 q 25 41 50 11 q 0 110 0 71 q 21 179 0 149 q 83 211 42 210 q 150 188 131 214 q 171 131 169 161 q 169 108 172 121 q 161 86 167 96 q 184 67 168 72 q 207 64 200 63 q 258 93 240 64 q 275 189 275 122 l 275 761 q 276 829 275 796 q 279 885 278 863 q 219 883 253 883 q 163 881 185 882 l 163 972 l 551 972 l 551 896 q 493 884 515 894 q 460 847 471 874 q 450 769 450 821 l 450 349 q 383 64 450 150 q 182 -22 315 -22 z "},"Ĵ":{"ha":590,"x_min":0,"x_max":567,"o":"m 182 -22 q 91 -6 132 -22 q 25 41 50 11 q 0 110 0 71 q 21 179 0 149 q 83 211 42 210 q 150 188 131 214 q 171 131 169 161 q 169 108 172 121 q 161 86 167 96 q 184 67 168 72 q 207 64 200 63 q 258 93 240 64 q 275 189 275 122 l 275 761 q 276 829 275 796 q 279 885 278 863 q 219 883 253 883 q 163 881 185 882 l 163 972 l 551 972 l 551 896 q 493 884 515 894 q 460 847 471 874 q 450 769 450 821 l 450 349 q 383 64 450 150 q 182 -22 315 -22 m 526 1068 l 339 1188 l 147 1071 l 111 1125 l 335 1331 l 354 1331 l 567 1126 l 526 1068 z "},"K":{"ha":975,"x_min":72,"x_max":972,"o":"m 72 0 l 72 76 q 132 90 111 78 q 161 131 153 101 q 169 214 169 161 l 169 768 q 172 835 169 803 q 175 885 174 867 q 121 883 151 883 q 72 881 90 882 l 72 972 l 442 972 l 442 896 q 383 883 404 894 q 353 842 361 871 q 344 758 344 813 l 344 542 l 446 542 l 575 754 q 622 831 596 792 q 671 886 649 869 q 625 884 649 885 q 583 882 601 883 l 583 972 l 910 972 l 910 896 q 832 882 871 893 q 754 838 793 871 q 674 739 715 806 l 539 524 q 594 481 571 504 q 636 431 617 457 l 783 226 q 851 144 819 178 q 912 94 882 111 q 972 76 942 78 l 972 0 l 774 0 q 737 24 761 1 q 685 78 713 46 q 636 140 658 111 l 489 349 q 444 406 468 378 q 400 450 421 435 l 344 449 l 344 207 q 343 138 344 169 q 339 88 342 106 q 393 90 363 89 q 442 92 424 92 l 442 0 l 72 0 z "},"Ǩ":{"ha":975,"x_min":72,"x_max":972,"o":"m 72 0 l 72 76 q 132 90 111 78 q 161 131 153 101 q 169 214 169 161 l 169 768 q 172 835 169 803 q 175 885 174 867 q 121 883 151 883 q 72 881 90 882 l 72 972 l 442 972 l 442 896 q 383 883 404 894 q 353 842 361 871 q 344 758 344 813 l 344 542 l 446 542 l 575 754 q 622 831 596 792 q 671 886 649 869 q 625 884 649 885 q 583 882 601 883 l 583 972 l 910 972 l 910 896 q 832 882 871 893 q 754 838 793 871 q 674 739 715 806 l 539 524 q 594 481 571 504 q 636 431 617 457 l 783 226 q 851 144 819 178 q 912 94 882 111 q 972 76 942 78 l 972 0 l 774 0 q 737 24 761 1 q 685 78 713 46 q 636 140 658 111 l 489 349 q 444 406 468 378 q 400 450 421 435 l 344 449 l 344 207 q 343 138 344 169 q 339 88 342 106 q 393 90 363 89 q 442 92 424 92 l 442 0 l 72 0 m 488 1069 l 222 1274 l 261 1332 l 504 1211 l 751 1335 l 785 1278 l 507 1069 l 488 1069 z "},"Ķ":{"ha":975,"x_min":72,"x_max":972,"o":"m 72 0 l 72 76 q 132 90 111 78 q 161 131 153 101 q 169 214 169 161 l 169 768 q 172 835 169 803 q 175 885 174 867 q 121 883 151 883 q 72 881 90 882 l 72 972 l 442 972 l 442 896 q 383 883 404 894 q 353 842 361 871 q 344 758 344 813 l 344 542 l 446 542 l 575 754 q 622 831 596 792 q 671 886 649 869 q 625 884 649 885 q 583 882 601 883 l 583 972 l 910 972 l 910 896 q 832 882 871 893 q 754 838 793 871 q 674 739 715 806 l 539 524 q 594 481 571 504 q 636 431 617 457 l 783 226 q 851 144 819 178 q 912 94 882 111 q 972 76 942 78 l 972 0 l 774 0 q 737 24 761 1 q 685 78 713 46 q 636 140 658 111 l 489 349 q 444 406 468 378 q 400 450 421 435 l 344 449 l 344 207 q 343 138 344 169 q 339 88 342 106 q 393 90 363 89 q 442 92 424 92 l 442 0 l 72 0 m 506 -383 l 453 -342 q 496 -244 483 -287 q 507 -160 508 -200 q 493 -78 506 -121 l 608 -51 q 635 -149 635 -97 q 599 -267 635 -207 q 506 -383 564 -328 z "},"L":{"ha":826,"x_min":72,"x_max":803,"o":"m 72 0 l 72 76 q 132 90 111 78 q 161 131 153 101 q 169 214 169 161 l 169 768 q 172 835 169 803 q 175 885 174 867 q 121 883 151 883 q 72 881 90 882 l 72 972 l 442 972 l 442 896 q 383 883 404 894 q 353 842 361 871 q 344 758 344 813 l 344 206 q 343 137 344 168 q 339 88 342 106 l 550 89 q 679 145 633 89 q 725 318 725 201 l 803 318 l 794 0 l 72 0 z "},"Ĺ":{"ha":826,"x_min":72,"x_max":803,"o":"m 72 0 l 72 76 q 132 90 111 78 q 161 131 153 101 q 169 214 169 161 l 169 768 q 172 835 169 803 q 175 885 174 867 q 121 883 151 883 q 72 881 90 882 l 72 972 l 442 972 l 442 896 q 383 883 404 894 q 353 842 361 871 q 344 758 344 813 l 344 206 q 343 137 344 168 q 339 88 342 106 l 550 89 q 679 145 633 89 q 725 318 725 201 l 803 318 l 794 0 l 72 0 m 221 1046 l 176 1106 l 338 1269 q 383 1297 360 1290 q 427 1297 407 1303 q 458 1274 447 1292 q 470 1235 471 1257 q 457 1193 469 1214 q 419 1157 444 1172 l 221 1046 z "},"Ľ":{"ha":826,"x_min":72,"x_max":803,"o":"m 610 665 l 561 701 q 606 812 594 763 q 615 905 618 861 q 600 992 611 949 l 714 971 q 730 926 726 944 q 731 881 733 907 q 690 767 725 824 q 610 665 656 711 m 72 0 l 72 76 q 132 90 111 78 q 161 131 153 101 q 169 214 169 161 l 169 768 q 172 835 169 803 q 175 885 174 867 q 121 883 151 883 q 72 881 90 882 l 72 972 l 442 972 l 442 896 q 383 883 404 894 q 353 842 361 871 q 344 758 344 813 l 344 206 q 343 137 344 168 q 339 88 342 106 l 550 89 q 679 145 633 89 q 725 318 725 201 l 803 318 l 794 0 l 72 0 z "},"Ļ":{"ha":826,"x_min":72,"x_max":803,"o":"m 72 0 l 72 76 q 132 90 111 78 q 161 131 153 101 q 169 214 169 161 l 169 768 q 172 835 169 803 q 175 885 174 867 q 121 883 151 883 q 72 881 90 882 l 72 972 l 442 972 l 442 896 q 383 883 404 894 q 353 842 361 871 q 344 758 344 813 l 344 206 q 343 137 344 168 q 339 88 342 106 l 550 89 q 679 145 633 89 q 725 318 725 201 l 803 318 l 794 0 l 72 0 m 422 -383 l 369 -342 q 413 -244 400 -287 q 424 -160 425 -200 q 410 -78 422 -121 l 525 -51 q 551 -149 551 -97 q 516 -267 551 -207 q 422 -383 481 -328 z "},"Ŀ":{"ha":826,"x_min":72,"x_max":803,"o":"m 72 0 l 72 76 q 132 90 111 78 q 161 131 153 101 q 169 214 169 161 l 169 768 q 172 835 169 803 q 175 885 174 867 q 121 883 151 883 q 72 881 90 882 l 72 972 l 442 972 l 442 896 q 383 883 404 894 q 353 842 361 871 q 344 758 344 813 l 344 206 q 343 137 344 168 q 339 88 342 106 l 550 89 q 679 145 633 89 q 725 318 725 201 l 803 318 l 794 0 l 72 0 m 571 367 q 503 397 531 367 q 476 468 476 426 q 505 541 476 511 q 571 571 533 571 q 638 541 611 571 q 664 468 664 511 q 638 397 664 426 q 571 367 611 367 z "},"Ł":{"ha":828,"x_min":64,"x_max":803,"o":"m 64 269 l 64 401 l 585 788 l 585 657 l 64 269 m 72 0 l 72 76 q 132 90 111 78 q 161 131 153 101 q 169 214 169 161 l 169 768 q 172 835 169 803 q 175 885 174 867 q 121 883 151 883 q 72 881 90 882 l 72 972 l 442 972 l 442 896 q 383 883 404 894 q 353 842 361 871 q 344 758 344 813 l 344 206 q 343 137 344 168 q 339 88 342 106 l 550 89 q 679 145 633 89 q 725 318 725 201 l 803 318 l 794 0 l 72 0 z "},"M":{"ha":1325,"x_min":64,"x_max":1271,"o":"m 578 -14 q 474 231 526 110 q 371 476 422 353 q 339 556 357 508 q 303 660 321 603 q 268 776 285 717 q 272 669 271 719 q 271 571 272 618 q 270 489 271 533 q 268 397 269 444 q 266 302 267 350 q 265 210 265 254 q 263 142 264 175 q 258 88 261 108 q 315 90 283 89 q 364 92 346 92 l 364 0 l 64 0 l 64 76 q 121 88 100 78 q 151 125 142 99 q 161 200 161 151 l 176 765 q 178 832 178 800 q 181 885 179 864 q 128 883 158 883 q 78 881 97 882 l 78 972 l 354 972 l 574 431 q 603 353 588 394 q 635 271 619 311 q 661 200 650 231 l 663 200 q 697 292 681 244 q 731 382 714 340 q 844 676 786 529 q 960 972 901 822 l 1242 972 l 1242 896 q 1187 886 1210 896 q 1153 849 1164 876 q 1143 765 1142 822 l 1169 200 q 1170 136 1172 167 q 1167 88 1168 106 q 1222 91 1190 90 q 1271 92 1253 92 l 1271 0 l 910 0 l 910 76 q 967 89 944 78 q 999 128 989 100 q 1006 213 1008 157 l 989 561 q 986 614 989 579 q 982 689 983 649 q 979 765 981 729 q 970 746 975 756 q 963 726 965 736 l 678 -14 l 578 -14 z "},"N":{"ha":1068,"x_min":71,"x_max":1017,"o":"m 818 -17 l 336 610 q 303 655 321 632 q 269 701 286 678 l 268 701 l 271 217 q 270 144 271 179 q 267 88 269 110 q 321 90 290 89 q 369 92 351 92 l 369 0 l 74 0 l 74 76 q 130 88 110 78 q 160 124 150 99 q 169 193 169 150 l 168 771 q 169 835 168 804 q 172 885 171 865 q 119 883 150 883 q 71 881 89 882 l 71 972 l 271 972 l 728 382 q 778 315 757 344 q 817 263 800 286 l 818 263 l 818 768 q 819 835 818 803 q 822 885 821 867 q 769 883 800 883 q 719 881 739 882 l 719 972 l 1017 972 l 1017 896 q 958 883 979 894 q 928 842 936 871 q 919 758 919 813 l 918 -17 l 818 -17 z "},"Ń":{"ha":1068,"x_min":71,"x_max":1017,"o":"m 818 -17 l 336 610 q 303 655 321 632 q 269 701 286 678 l 268 701 l 271 217 q 270 144 271 179 q 267 88 269 110 q 321 90 290 89 q 369 92 351 92 l 369 0 l 74 0 l 74 76 q 130 88 110 78 q 160 124 150 99 q 169 193 169 150 l 168 771 q 169 835 168 804 q 172 885 171 865 q 119 883 150 883 q 71 881 89 882 l 71 972 l 271 972 l 728 382 q 778 315 757 344 q 817 263 800 286 l 818 263 l 818 768 q 819 835 818 803 q 822 885 821 867 q 769 883 800 883 q 719 881 739 882 l 719 972 l 1017 972 l 1017 896 q 958 883 979 894 q 928 842 936 871 q 919 758 919 813 l 918 -17 l 818 -17 m 488 1046 l 444 1106 l 606 1269 q 651 1297 628 1290 q 695 1297 675 1303 q 726 1274 715 1292 q 738 1235 739 1257 q 725 1193 738 1214 q 686 1157 713 1172 l 488 1046 z "},"Ň":{"ha":1068,"x_min":71,"x_max":1017,"o":"m 818 -17 l 336 610 q 303 655 321 632 q 269 701 286 678 l 268 701 l 271 217 q 270 144 271 179 q 267 88 269 110 q 321 90 290 89 q 369 92 351 92 l 369 0 l 74 0 l 74 76 q 130 88 110 78 q 160 124 150 99 q 169 193 169 150 l 168 771 q 169 835 168 804 q 172 885 171 865 q 119 883 150 883 q 71 881 89 882 l 71 972 l 271 972 l 728 382 q 778 315 757 344 q 817 263 800 286 l 818 263 l 818 768 q 819 835 818 803 q 822 885 821 867 q 769 883 800 883 q 719 881 739 882 l 719 972 l 1017 972 l 1017 896 q 958 883 979 894 q 928 842 936 871 q 919 758 919 813 l 918 -17 l 818 -17 m 525 1069 l 260 1274 l 299 1332 l 542 1211 l 789 1335 l 822 1278 l 544 1069 l 525 1069 z "},"Ņ":{"ha":1068,"x_min":71,"x_max":1017,"o":"m 818 -17 l 336 610 q 303 655 321 632 q 269 701 286 678 l 268 701 l 271 217 q 270 144 271 179 q 267 88 269 110 q 321 90 290 89 q 369 92 351 92 l 369 0 l 74 0 l 74 76 q 130 88 110 78 q 160 124 150 99 q 169 193 169 150 l 168 771 q 169 835 168 804 q 172 885 171 865 q 119 883 150 883 q 71 881 89 882 l 71 972 l 271 972 l 728 382 q 778 315 757 344 q 817 263 800 286 l 818 263 l 818 768 q 819 835 818 803 q 822 885 821 867 q 769 883 800 883 q 719 881 739 882 l 719 972 l 1017 972 l 1017 896 q 958 883 979 894 q 928 842 936 871 q 919 758 919 813 l 918 -17 l 818 -17 m 504 -383 l 451 -342 q 494 -244 482 -287 q 506 -160 507 -200 q 492 -78 504 -121 l 607 -51 q 633 -149 633 -97 q 598 -267 633 -207 q 504 -383 563 -328 z "},"Ñ":{"ha":1068,"x_min":71,"x_max":1017,"o":"m 818 -17 l 336 610 q 303 655 321 632 q 269 701 286 678 l 268 701 l 271 217 q 270 144 271 179 q 267 88 269 110 q 321 90 290 89 q 369 92 351 92 l 369 0 l 74 0 l 74 76 q 130 88 110 78 q 160 124 150 99 q 169 193 169 150 l 168 771 q 169 835 168 804 q 172 885 171 865 q 119 883 150 883 q 71 881 89 882 l 71 972 l 271 972 l 728 382 q 778 315 757 344 q 817 263 800 286 l 818 263 l 818 768 q 819 835 818 803 q 822 885 821 867 q 769 883 800 883 q 719 881 739 882 l 719 972 l 1017 972 l 1017 896 q 958 883 979 894 q 928 842 936 871 q 919 758 919 813 l 918 -17 l 818 -17 m 825 1265 q 772 1162 803 1199 q 709 1111 742 1125 q 647 1097 676 1097 q 585 1109 613 1097 q 535 1137 558 1121 q 488 1165 511 1153 q 436 1176 464 1176 q 380 1158 408 1176 q 325 1100 351 1140 l 257 1143 q 337 1252 286 1215 q 435 1290 388 1289 q 499 1278 472 1290 q 549 1251 526 1267 q 595 1224 572 1236 q 646 1213 618 1213 q 707 1238 676 1213 q 758 1303 738 1264 l 825 1265 z "},"Ŋ":{"ha":1068,"x_min":71,"x_max":1017,"o":"m 714 -376 q 608 -345 643 -376 q 572 -275 572 -314 q 593 -217 572 -242 q 651 -190 614 -192 q 708 -212 688 -189 q 728 -264 728 -235 q 727 -273 728 -268 q 725 -283 726 -278 q 751 -290 738 -290 q 775 -284 765 -290 q 792 -268 785 -278 q 813 -221 807 -250 q 818 -157 818 -192 l 818 146 l 918 146 l 918 -36 q 860 -292 918 -208 q 714 -376 803 -376 m 818 -17 l 336 610 q 303 655 321 632 q 269 701 286 678 l 268 701 l 271 217 q 270 144 271 179 q 267 88 269 110 q 321 90 290 89 q 369 92 351 92 l 369 0 l 74 0 l 74 76 q 130 88 110 78 q 160 124 150 99 q 169 193 169 150 l 168 771 q 169 835 168 804 q 172 885 171 865 q 119 883 150 883 q 71 881 89 882 l 71 972 l 271 972 l 728 382 q 778 315 757 344 q 817 263 800 286 l 818 263 l 818 768 q 819 835 818 803 q 822 885 821 867 q 769 883 800 883 q 719 881 739 882 l 719 972 l 1017 972 l 1017 896 q 958 883 979 894 q 928 842 936 871 q 919 758 919 813 l 918 -17 l 818 -17 z "},"O":{"ha":1079,"x_min":54,"x_max":1026,"o":"m 540 -22 q 315 22 408 -22 q 165 141 222 67 q 81 306 107 215 q 54 486 54 396 q 83 663 54 574 q 173 828 113 753 q 325 949 233 903 q 540 994 417 994 q 759 949 667 994 q 910 827 851 903 q 998 663 969 751 q 1026 486 1026 574 q 997 311 1026 400 q 908 147 968 222 q 756 24 847 71 q 540 -22 664 -22 m 551 64 q 683 100 629 64 q 769 194 736 136 q 819 323 803 253 q 835 461 835 393 q 815 635 835 554 q 758 778 796 717 q 661 874 719 839 q 526 908 603 910 q 397 870 450 907 q 309 774 343 833 q 260 644 275 715 q 244 506 244 574 q 261 360 244 436 q 314 215 278 283 q 409 106 350 147 q 551 64 468 64 z "},"Ó":{"ha":1079,"x_min":54,"x_max":1026,"o":"m 540 -22 q 315 22 408 -22 q 165 141 222 67 q 81 306 107 215 q 54 486 54 396 q 83 663 54 574 q 173 828 113 753 q 325 949 233 903 q 540 994 417 994 q 759 949 667 994 q 910 827 851 903 q 998 663 969 751 q 1026 486 1026 574 q 997 311 1026 400 q 908 147 968 222 q 756 24 847 71 q 540 -22 664 -22 m 551 64 q 683 100 629 64 q 769 194 736 136 q 819 323 803 253 q 835 461 835 393 q 815 635 835 554 q 758 778 796 717 q 661 874 719 839 q 526 908 603 910 q 397 870 450 907 q 309 774 343 833 q 260 644 275 715 q 244 506 244 574 q 261 360 244 436 q 314 215 278 283 q 409 106 350 147 q 551 64 468 64 m 482 1046 l 439 1106 l 600 1269 q 646 1297 622 1290 q 690 1297 669 1303 q 721 1274 710 1292 q 733 1235 733 1257 q 719 1193 732 1214 q 681 1157 707 1172 l 482 1046 z "},"Ŏ":{"ha":1079,"x_min":54,"x_max":1026,"o":"m 540 -22 q 315 22 408 -22 q 165 141 222 67 q 81 306 107 215 q 54 486 54 396 q 83 663 54 574 q 173 828 113 753 q 325 949 233 903 q 540 994 417 994 q 759 949 667 994 q 910 827 851 903 q 998 663 969 751 q 1026 486 1026 574 q 997 311 1026 400 q 908 147 968 222 q 756 24 847 71 q 540 -22 664 -22 m 551 64 q 683 100 629 64 q 769 194 736 136 q 819 323 803 253 q 835 461 835 393 q 815 635 835 554 q 758 778 796 717 q 661 874 719 839 q 526 908 603 910 q 397 870 450 907 q 309 774 343 833 q 260 644 275 715 q 244 506 244 574 q 261 360 244 436 q 314 215 278 283 q 409 106 350 147 q 551 64 468 64 m 538 1099 q 449 1115 493 1099 q 369 1166 406 1131 q 311 1258 333 1201 l 363 1283 q 433 1231 389 1254 q 538 1207 476 1207 q 642 1231 599 1207 q 711 1283 685 1254 l 763 1258 q 704 1166 740 1201 q 624 1115 668 1131 q 538 1099 581 1099 z "},"Ô":{"ha":1079,"x_min":54,"x_max":1026,"o":"m 540 -22 q 315 22 408 -22 q 165 141 222 67 q 81 306 107 215 q 54 486 54 396 q 83 663 54 574 q 173 828 113 753 q 325 949 233 903 q 540 994 417 994 q 759 949 667 994 q 910 827 851 903 q 998 663 969 751 q 1026 486 1026 574 q 997 311 1026 400 q 908 147 968 222 q 756 24 847 71 q 540 -22 664 -22 m 551 64 q 683 100 629 64 q 769 194 736 136 q 819 323 803 253 q 835 461 835 393 q 815 635 835 554 q 758 778 796 717 q 661 874 719 839 q 526 908 603 910 q 397 870 450 907 q 309 774 343 833 q 260 644 275 715 q 244 506 244 574 q 261 360 244 436 q 314 215 278 283 q 409 106 350 147 q 551 64 468 64 m 725 1068 l 538 1188 l 346 1071 l 310 1125 l 533 1331 l 553 1331 l 765 1126 l 725 1068 z "},"Ố":{"ha":1079,"x_min":54,"x_max":1026,"o":"m 540 -22 q 315 22 408 -22 q 165 141 222 67 q 81 306 107 215 q 54 486 54 396 q 83 663 54 574 q 173 828 113 753 q 325 949 233 903 q 540 994 417 994 q 759 949 667 994 q 910 827 851 903 q 998 663 969 751 q 1026 486 1026 574 q 997 311 1026 400 q 908 147 968 222 q 756 24 847 71 q 540 -22 664 -22 m 551 64 q 683 100 629 64 q 769 194 736 136 q 819 323 803 253 q 835 461 835 393 q 815 635 835 554 q 758 778 796 717 q 661 874 719 839 q 526 908 603 910 q 397 870 450 907 q 309 774 343 833 q 260 644 275 715 q 244 506 244 574 q 261 360 244 436 q 314 215 278 283 q 409 106 350 147 q 551 64 468 64 m 693 1053 l 536 1151 l 379 1054 l 347 1099 l 535 1268 l 549 1268 l 725 1100 l 693 1053 m 767 1168 l 711 1217 l 826 1410 q 863 1447 842 1436 q 906 1455 885 1457 q 943 1440 928 1453 q 965 1404 960 1426 q 961 1358 969 1382 q 931 1315 953 1335 l 767 1168 z "},"Ộ":{"ha":1079,"x_min":54,"x_max":1026,"o":"m 540 -22 q 315 22 408 -22 q 165 141 222 67 q 81 306 107 215 q 54 486 54 396 q 83 663 54 574 q 173 828 113 753 q 325 949 233 903 q 540 994 417 994 q 759 949 667 994 q 910 827 851 903 q 998 663 969 751 q 1026 486 1026 574 q 997 311 1026 400 q 908 147 968 222 q 756 24 847 71 q 540 -22 664 -22 m 551 64 q 683 100 629 64 q 769 194 736 136 q 819 323 803 253 q 835 461 835 393 q 815 635 835 554 q 758 778 796 717 q 661 874 719 839 q 526 908 603 910 q 397 870 450 907 q 309 774 343 833 q 260 644 275 715 q 244 506 244 574 q 261 360 244 436 q 314 215 278 283 q 409 106 350 147 q 551 64 468 64 m 542 -262 q 485 -237 507 -262 q 463 -178 463 -212 q 486 -118 463 -143 q 542 -93 510 -93 q 597 -118 575 -93 q 618 -178 618 -143 q 597 -237 618 -212 q 542 -262 575 -262 m 725 1068 l 538 1188 l 346 1071 l 310 1125 l 533 1331 l 553 1331 l 765 1126 l 725 1068 z "},"Ồ":{"ha":1079,"x_min":54,"x_max":1026,"o":"m 540 -22 q 315 22 408 -22 q 165 141 222 67 q 81 306 107 215 q 54 486 54 396 q 83 663 54 574 q 173 828 113 753 q 325 949 233 903 q 540 994 417 994 q 759 949 667 994 q 910 827 851 903 q 998 663 969 751 q 1026 486 1026 574 q 997 311 1026 400 q 908 147 968 222 q 756 24 847 71 q 540 -22 664 -22 m 551 64 q 683 100 629 64 q 769 194 736 136 q 819 323 803 253 q 835 461 835 393 q 815 635 835 554 q 758 778 796 717 q 661 874 719 839 q 526 908 603 910 q 397 870 450 907 q 309 774 343 833 q 260 644 275 715 q 244 506 244 574 q 261 360 244 436 q 314 215 278 283 q 409 106 350 147 q 551 64 468 64 m 693 1053 l 536 1151 l 379 1054 l 347 1099 l 535 1268 l 549 1268 l 725 1100 l 693 1053 m 736 1222 l 572 1369 q 543 1413 551 1389 q 540 1458 535 1436 q 561 1494 544 1481 q 599 1509 578 1507 q 640 1501 619 1511 q 678 1464 661 1490 l 792 1271 l 736 1222 z "},"Ổ":{"ha":1079,"x_min":54,"x_max":1026,"o":"m 540 -22 q 315 22 408 -22 q 165 141 222 67 q 81 306 107 215 q 54 486 54 396 q 83 663 54 574 q 173 828 113 753 q 325 949 233 903 q 540 994 417 994 q 759 949 667 994 q 910 827 851 903 q 998 663 969 751 q 1026 486 1026 574 q 997 311 1026 400 q 908 147 968 222 q 756 24 847 71 q 540 -22 664 -22 m 551 64 q 683 100 629 64 q 769 194 736 136 q 819 323 803 253 q 835 461 835 393 q 815 635 835 554 q 758 778 796 717 q 661 874 719 839 q 526 908 603 910 q 397 870 450 907 q 309 774 343 833 q 260 644 275 715 q 244 506 244 574 q 261 360 244 436 q 314 215 278 283 q 409 106 350 147 q 551 64 468 64 m 693 1053 l 538 1151 l 379 1053 l 349 1099 l 535 1268 l 550 1268 l 726 1099 l 693 1053 m 704 1224 q 722 1268 704 1251 q 758 1301 740 1285 q 776 1326 769 1313 q 782 1357 782 1340 q 763 1402 782 1385 q 711 1419 743 1419 q 660 1406 678 1419 q 639 1381 642 1392 q 662 1370 654 1379 q 669 1349 669 1361 q 657 1319 669 1332 q 622 1307 644 1307 q 578 1325 596 1307 q 560 1372 560 1343 q 577 1428 560 1401 q 629 1474 594 1456 q 711 1492 664 1492 q 834 1457 790 1492 q 878 1368 878 1422 q 859 1313 878 1332 q 819 1275 840 1293 q 792 1249 803 1261 q 781 1224 781 1236 l 704 1224 z "},"Ỗ":{"ha":1079,"x_min":54,"x_max":1026,"o":"m 540 -22 q 315 22 408 -22 q 165 141 222 67 q 81 306 107 215 q 54 486 54 396 q 83 663 54 574 q 173 828 113 753 q 325 949 233 903 q 540 994 417 994 q 759 949 667 994 q 910 827 851 903 q 998 663 969 751 q 1026 486 1026 574 q 997 311 1026 400 q 908 147 968 222 q 756 24 847 71 q 540 -22 664 -22 m 551 64 q 683 100 629 64 q 769 194 736 136 q 819 323 803 253 q 835 461 835 393 q 815 635 835 554 q 758 778 796 717 q 661 874 719 839 q 526 908 603 910 q 397 870 450 907 q 309 774 343 833 q 260 644 275 715 q 244 506 244 574 q 261 360 244 436 q 314 215 278 283 q 409 106 350 147 q 551 64 468 64 m 693 1053 l 538 1151 l 379 1054 l 349 1099 l 535 1268 l 550 1268 l 726 1100 l 693 1053 m 806 1456 q 734 1339 779 1375 q 649 1303 689 1303 q 581 1318 610 1303 q 528 1349 553 1333 q 476 1364 503 1364 q 431 1351 457 1364 q 385 1307 406 1339 l 319 1344 q 385 1442 340 1404 q 475 1481 431 1479 q 544 1465 518 1481 q 594 1435 571 1450 q 649 1421 617 1421 q 699 1439 675 1421 q 740 1489 722 1457 l 806 1456 z "},"Ö":{"ha":1079,"x_min":54,"x_max":1026,"o":"m 540 -22 q 315 22 408 -22 q 165 141 222 67 q 81 306 107 215 q 54 486 54 396 q 83 663 54 574 q 173 828 113 753 q 325 949 233 903 q 540 994 417 994 q 759 949 667 994 q 910 827 851 903 q 998 663 969 751 q 1026 486 1026 574 q 997 311 1026 400 q 908 147 968 222 q 756 24 847 71 q 540 -22 664 -22 m 551 64 q 683 100 629 64 q 769 194 736 136 q 819 323 803 253 q 835 461 835 393 q 815 635 835 554 q 758 778 796 717 q 661 874 719 839 q 526 908 603 910 q 397 870 450 907 q 309 774 343 833 q 260 644 275 715 q 244 506 244 574 q 261 360 244 436 q 314 215 278 283 q 409 106 350 147 q 551 64 468 64 m 413 1097 q 352 1126 378 1097 q 326 1196 326 1156 q 353 1267 326 1238 q 414 1297 379 1297 q 476 1268 451 1297 q 500 1196 500 1239 q 474 1126 500 1156 q 413 1097 447 1097 m 657 1097 q 597 1126 624 1097 q 571 1196 571 1156 q 598 1267 571 1238 q 658 1297 625 1297 q 720 1268 696 1297 q 744 1196 744 1239 q 719 1126 744 1156 q 657 1097 693 1097 z "},"Ọ":{"ha":1079,"x_min":54,"x_max":1026,"o":"m 540 -22 q 315 22 408 -22 q 165 141 222 67 q 81 306 107 215 q 54 486 54 396 q 83 663 54 574 q 173 828 113 753 q 325 949 233 903 q 540 994 417 994 q 759 949 667 994 q 910 827 851 903 q 998 663 969 751 q 1026 486 1026 574 q 997 311 1026 400 q 908 147 968 222 q 756 24 847 71 q 540 -22 664 -22 m 551 64 q 683 100 629 64 q 769 194 736 136 q 819 323 803 253 q 835 461 835 393 q 815 635 835 554 q 758 778 796 717 q 661 874 719 839 q 526 908 603 910 q 397 870 450 907 q 309 774 343 833 q 260 644 275 715 q 244 506 244 574 q 261 360 244 436 q 314 215 278 283 q 409 106 350 147 q 551 64 468 64 m 542 -262 q 485 -237 507 -262 q 463 -178 463 -212 q 486 -118 463 -143 q 542 -93 510 -93 q 597 -118 575 -93 q 618 -178 618 -143 q 597 -237 618 -212 q 542 -262 575 -262 z "},"Ò":{"ha":1079,"x_min":54,"x_max":1026,"o":"m 540 -22 q 315 22 408 -22 q 165 141 222 67 q 81 306 107 215 q 54 486 54 396 q 83 663 54 574 q 173 828 113 753 q 325 949 233 903 q 540 994 417 994 q 759 949 667 994 q 910 827 851 903 q 998 663 969 751 q 1026 486 1026 574 q 997 311 1026 400 q 908 147 968 222 q 756 24 847 71 q 540 -22 664 -22 m 551 64 q 683 100 629 64 q 769 194 736 136 q 819 323 803 253 q 835 461 835 393 q 815 635 835 554 q 758 778 796 717 q 661 874 719 839 q 526 908 603 910 q 397 870 450 907 q 309 774 343 833 q 260 644 275 715 q 244 506 244 574 q 261 360 244 436 q 314 215 278 283 q 409 106 350 147 q 551 64 468 64 m 574 1046 l 375 1157 q 338 1193 350 1172 q 324 1235 325 1214 q 335 1274 324 1257 q 367 1297 347 1292 q 410 1297 388 1303 q 456 1269 433 1290 l 617 1106 l 574 1046 z "},"Ỏ":{"ha":1079,"x_min":54,"x_max":1026,"o":"m 540 -22 q 315 22 408 -22 q 165 141 222 67 q 81 306 107 215 q 54 486 54 396 q 83 663 54 574 q 173 828 113 753 q 325 949 233 903 q 540 994 417 994 q 759 949 667 994 q 910 827 851 903 q 998 663 969 751 q 1026 486 1026 574 q 997 311 1026 400 q 908 147 968 222 q 756 24 847 71 q 540 -22 664 -22 m 551 64 q 683 100 629 64 q 769 194 736 136 q 819 323 803 253 q 835 461 835 393 q 815 635 835 554 q 758 778 796 717 q 661 874 719 839 q 526 908 603 910 q 397 870 450 907 q 309 774 343 833 q 260 644 275 715 q 244 506 244 574 q 261 360 244 436 q 314 215 278 283 q 409 106 350 147 q 551 64 468 64 m 510 1057 q 528 1101 510 1085 q 564 1135 546 1118 q 581 1160 575 1146 q 588 1190 588 1174 q 568 1235 588 1218 q 517 1253 549 1253 q 465 1239 483 1253 q 444 1214 447 1225 q 467 1203 460 1213 q 475 1182 475 1194 q 463 1153 475 1165 q 428 1140 450 1140 q 383 1158 401 1140 q 365 1206 365 1176 q 383 1262 365 1235 q 435 1307 400 1289 q 517 1325 469 1325 q 640 1290 596 1325 q 683 1201 683 1256 q 666 1144 683 1165 q 625 1108 649 1124 q 597 1082 608 1094 q 586 1057 586 1069 l 510 1057 z "},"Ơ":{"ha":1079,"x_min":54,"x_max":1026,"o":"m 540 -22 q 315 22 408 -22 q 165 141 222 67 q 81 306 107 215 q 54 486 54 396 q 83 663 54 574 q 173 828 113 753 q 325 949 233 903 q 540 994 417 994 q 759 949 667 994 q 910 827 851 903 q 998 663 969 751 q 1026 486 1026 574 q 997 311 1026 400 q 908 147 968 222 q 756 24 847 71 q 540 -22 664 -22 m 551 64 q 683 100 629 64 q 769 194 736 136 q 819 323 803 253 q 835 461 835 393 q 815 635 835 554 q 758 778 796 717 q 661 874 719 839 q 526 908 603 910 q 397 870 450 907 q 309 774 343 833 q 260 644 275 715 q 244 506 244 574 q 261 360 244 436 q 314 215 278 283 q 409 106 350 147 q 551 64 468 64 m 699 885 l 699 968 q 781 1004 751 968 q 811 1079 811 1040 l 947 1079 q 916 977 947 1021 q 829 909 885 933 q 699 885 774 885 z "},"Ớ":{"ha":1079,"x_min":54,"x_max":1026,"o":"m 540 -22 q 315 22 408 -22 q 165 141 222 67 q 81 306 107 215 q 54 486 54 396 q 83 663 54 574 q 173 828 113 753 q 325 949 233 903 q 540 994 417 994 q 759 949 667 994 q 910 827 851 903 q 998 663 969 751 q 1026 486 1026 574 q 997 311 1026 400 q 908 147 968 222 q 756 24 847 71 q 540 -22 664 -22 m 551 64 q 683 100 629 64 q 769 194 736 136 q 819 323 803 253 q 835 461 835 393 q 815 635 835 554 q 758 778 796 717 q 661 874 719 839 q 526 908 603 910 q 397 870 450 907 q 309 774 343 833 q 260 644 275 715 q 244 506 244 574 q 261 360 244 436 q 314 215 278 283 q 409 106 350 147 q 551 64 468 64 m 699 885 l 699 968 q 781 1004 751 968 q 811 1079 811 1040 l 947 1079 q 916 977 947 1021 q 829 909 885 933 q 699 885 774 885 m 464 1069 l 408 1118 l 524 1310 q 561 1347 540 1336 q 603 1356 582 1357 q 640 1342 625 1354 q 661 1305 657 1326 q 658 1260 665 1283 q 628 1217 650 1238 l 464 1069 z "},"Ợ":{"ha":1079,"x_min":54,"x_max":1026,"o":"m 540 -22 q 315 22 408 -22 q 165 141 222 67 q 81 306 107 215 q 54 486 54 396 q 83 663 54 574 q 173 828 113 753 q 325 949 233 903 q 540 994 417 994 q 759 949 667 994 q 910 827 851 903 q 998 663 969 751 q 1026 486 1026 574 q 997 311 1026 400 q 908 147 968 222 q 756 24 847 71 q 540 -22 664 -22 m 551 64 q 683 100 629 64 q 769 194 736 136 q 819 323 803 253 q 835 461 835 393 q 815 635 835 554 q 758 778 796 717 q 661 874 719 839 q 526 908 603 910 q 397 870 450 907 q 309 774 343 833 q 260 644 275 715 q 244 506 244 574 q 261 360 244 436 q 314 215 278 283 q 409 106 350 147 q 551 64 468 64 m 699 885 l 699 968 q 781 1004 751 968 q 811 1079 811 1040 l 947 1079 q 916 977 947 1021 q 829 909 885 933 q 699 885 774 885 m 542 -262 q 485 -237 507 -262 q 463 -178 463 -212 q 486 -118 463 -143 q 542 -93 510 -93 q 597 -118 575 -93 q 618 -178 618 -143 q 597 -237 618 -212 q 542 -262 575 -262 z "},"Ờ":{"ha":1079,"x_min":54,"x_max":1026,"o":"m 540 -22 q 315 22 408 -22 q 165 141 222 67 q 81 306 107 215 q 54 486 54 396 q 83 663 54 574 q 173 828 113 753 q 325 949 233 903 q 540 994 417 994 q 759 949 667 994 q 910 827 851 903 q 998 663 969 751 q 1026 486 1026 574 q 997 311 1026 400 q 908 147 968 222 q 756 24 847 71 q 540 -22 664 -22 m 551 64 q 683 100 629 64 q 769 194 736 136 q 819 323 803 253 q 835 461 835 393 q 815 635 835 554 q 758 778 796 717 q 661 874 719 839 q 526 908 603 910 q 397 870 450 907 q 309 774 343 833 q 260 644 275 715 q 244 506 244 574 q 261 360 244 436 q 314 215 278 283 q 409 106 350 147 q 551 64 468 64 m 699 885 l 699 968 q 781 1004 751 968 q 811 1079 811 1040 l 947 1079 q 916 977 947 1021 q 829 909 885 933 q 699 885 774 885 m 608 1069 l 444 1217 q 415 1260 424 1238 q 410 1305 406 1283 q 432 1342 415 1326 q 469 1356 449 1354 q 512 1347 490 1357 q 549 1310 533 1336 l 664 1118 l 608 1069 z "},"Ở":{"ha":1079,"x_min":54,"x_max":1026,"o":"m 540 -22 q 315 22 408 -22 q 165 141 222 67 q 81 306 107 215 q 54 486 54 396 q 83 663 54 574 q 173 828 113 753 q 325 949 233 903 q 540 994 417 994 q 759 949 667 994 q 910 827 851 903 q 998 663 969 751 q 1026 486 1026 574 q 997 311 1026 400 q 908 147 968 222 q 756 24 847 71 q 540 -22 664 -22 m 551 64 q 683 100 629 64 q 769 194 736 136 q 819 323 803 253 q 835 461 835 393 q 815 635 835 554 q 758 778 796 717 q 661 874 719 839 q 526 908 603 910 q 397 870 450 907 q 309 774 343 833 q 260 644 275 715 q 244 506 244 574 q 261 360 244 436 q 314 215 278 283 q 409 106 350 147 q 551 64 468 64 m 699 885 l 699 968 q 781 1004 751 968 q 811 1079 811 1040 l 947 1079 q 916 977 947 1021 q 829 909 885 933 q 699 885 774 885 m 510 1057 q 528 1101 510 1085 q 564 1135 546 1118 q 581 1160 575 1146 q 588 1190 588 1174 q 568 1235 588 1218 q 517 1253 549 1253 q 465 1239 483 1253 q 444 1214 447 1225 q 467 1203 460 1213 q 475 1182 475 1194 q 463 1153 475 1165 q 428 1140 450 1140 q 383 1158 401 1140 q 365 1206 365 1176 q 383 1262 365 1235 q 435 1307 400 1289 q 517 1325 469 1325 q 640 1290 596 1325 q 683 1201 683 1256 q 666 1144 683 1165 q 625 1108 649 1124 q 597 1082 608 1094 q 586 1057 586 1069 l 510 1057 z "},"Ỡ":{"ha":1079,"x_min":54,"x_max":1026,"o":"m 540 -22 q 315 22 408 -22 q 165 141 222 67 q 81 306 107 215 q 54 486 54 396 q 83 663 54 574 q 173 828 113 753 q 325 949 233 903 q 540 994 417 994 q 759 949 667 994 q 910 827 851 903 q 998 663 969 751 q 1026 486 1026 574 q 997 311 1026 400 q 908 147 968 222 q 756 24 847 71 q 540 -22 664 -22 m 551 64 q 683 100 629 64 q 769 194 736 136 q 819 323 803 253 q 835 461 835 393 q 815 635 835 554 q 758 778 796 717 q 661 874 719 839 q 526 908 603 910 q 397 870 450 907 q 309 774 343 833 q 260 644 275 715 q 244 506 244 574 q 261 360 244 436 q 314 215 278 283 q 409 106 350 147 q 551 64 468 64 m 699 885 l 699 968 q 781 1004 751 968 q 811 1079 811 1040 l 947 1079 q 916 977 947 1021 q 829 909 885 933 q 699 885 774 885 m 779 1275 q 707 1160 753 1196 q 622 1124 661 1124 q 553 1139 582 1124 q 501 1169 525 1154 q 449 1185 476 1185 q 403 1172 429 1185 q 358 1126 378 1160 l 292 1165 q 358 1262 314 1224 q 447 1300 403 1300 q 518 1286 492 1301 q 567 1256 544 1271 q 622 1240 589 1240 q 672 1259 647 1240 q 713 1310 696 1278 l 779 1275 z "},"Ő":{"ha":1079,"x_min":54,"x_max":1026,"o":"m 540 -22 q 315 22 408 -22 q 165 141 222 67 q 81 306 107 215 q 54 486 54 396 q 83 663 54 574 q 173 828 113 753 q 325 949 233 903 q 540 994 417 994 q 759 949 667 994 q 910 827 851 903 q 998 663 969 751 q 1026 486 1026 574 q 997 311 1026 400 q 908 147 968 222 q 756 24 847 71 q 540 -22 664 -22 m 551 64 q 683 100 629 64 q 769 194 736 136 q 819 323 803 253 q 835 461 835 393 q 815 635 835 554 q 758 778 796 717 q 661 874 719 839 q 526 908 603 910 q 397 870 450 907 q 309 774 343 833 q 260 644 275 715 q 244 506 244 574 q 261 360 244 436 q 314 215 278 283 q 409 106 350 147 q 551 64 468 64 m 631 1049 l 594 1107 l 750 1249 q 819 1283 782 1278 q 875 1256 856 1288 q 882 1215 888 1236 q 860 1178 876 1194 q 825 1149 844 1161 l 631 1049 m 444 1049 l 392 1096 l 499 1261 q 554 1310 521 1296 q 614 1303 588 1325 q 633 1266 632 1288 q 624 1224 633 1244 q 596 1186 614 1203 l 444 1049 z "},"Ō":{"ha":1079,"x_min":54,"x_max":1026,"o":"m 540 -22 q 315 22 408 -22 q 165 141 222 67 q 81 306 107 215 q 54 486 54 396 q 83 663 54 574 q 173 828 113 753 q 325 949 233 903 q 540 994 417 994 q 759 949 667 994 q 910 827 851 903 q 998 663 969 751 q 1026 486 1026 574 q 997 311 1026 400 q 908 147 968 222 q 756 24 847 71 q 540 -22 664 -22 m 551 64 q 683 100 629 64 q 769 194 736 136 q 819 323 803 253 q 835 461 835 393 q 815 635 835 554 q 758 778 796 717 q 661 874 719 839 q 526 908 603 910 q 397 870 450 907 q 309 774 343 833 q 260 644 275 715 q 244 506 244 574 q 261 360 244 436 q 314 215 278 283 q 409 106 350 147 q 551 64 468 64 m 343 1154 l 343 1271 l 729 1271 l 729 1160 l 343 1154 z "},"Ø":{"ha":1079,"x_min":53,"x_max":1026,"o":"m 833 1078 l 933 1017 l 260 -129 l 168 -68 l 833 1078 m 540 -22 q 315 22 408 -22 q 165 141 222 67 q 80 306 107 215 q 53 486 53 396 q 83 663 53 574 q 173 828 113 753 q 325 949 233 903 q 539 994 417 994 q 758 949 667 994 q 909 827 850 903 q 997 663 968 751 q 1026 486 1026 574 q 997 311 1026 400 q 906 147 967 222 q 755 24 846 71 q 540 -22 664 -22 m 551 64 q 682 100 628 64 q 769 194 736 136 q 818 323 803 253 q 833 461 833 393 q 815 635 833 554 q 758 778 796 717 q 661 874 719 839 q 526 908 603 910 q 396 870 450 907 q 308 774 342 833 q 260 644 275 715 q 244 506 244 574 q 261 360 244 436 q 314 215 278 283 q 409 106 350 147 q 551 64 468 64 z "},"Ǿ":{"ha":1079,"x_min":53,"x_max":1026,"o":"m 833 1078 l 933 1017 l 260 -129 l 168 -68 l 833 1078 m 540 -22 q 315 22 408 -22 q 165 141 222 67 q 80 306 107 215 q 53 486 53 396 q 83 663 53 574 q 173 828 113 753 q 325 949 233 903 q 539 994 417 994 q 758 949 667 994 q 909 827 850 903 q 997 663 968 751 q 1026 486 1026 574 q 997 311 1026 400 q 906 147 967 222 q 755 24 846 71 q 540 -22 664 -22 m 551 64 q 682 100 628 64 q 769 194 736 136 q 818 323 803 253 q 833 461 833 393 q 815 635 833 554 q 758 778 796 717 q 661 874 719 839 q 526 908 603 910 q 396 870 450 907 q 308 774 342 833 q 260 644 275 715 q 244 506 244 574 q 261 360 244 436 q 314 215 278 283 q 409 106 350 147 q 551 64 468 64 m 486 1046 l 443 1106 l 604 1269 q 649 1297 626 1290 q 692 1297 672 1303 q 725 1274 713 1292 q 737 1235 738 1257 q 723 1193 736 1214 q 685 1157 710 1172 l 486 1046 z "},"Õ":{"ha":1079,"x_min":54,"x_max":1026,"o":"m 540 -22 q 315 22 408 -22 q 165 141 222 67 q 81 306 107 215 q 54 486 54 396 q 83 663 54 574 q 173 828 113 753 q 325 949 233 903 q 540 994 417 994 q 759 949 667 994 q 910 827 851 903 q 998 663 969 751 q 1026 486 1026 574 q 997 311 1026 400 q 908 147 968 222 q 756 24 847 71 q 540 -22 664 -22 m 551 64 q 683 100 629 64 q 769 194 736 136 q 819 323 803 253 q 835 461 835 393 q 815 635 835 554 q 758 778 796 717 q 661 874 719 839 q 526 908 603 910 q 397 870 450 907 q 309 774 343 833 q 260 644 275 715 q 244 506 244 574 q 261 360 244 436 q 314 215 278 283 q 409 106 350 147 q 551 64 468 64 m 819 1265 q 767 1162 797 1199 q 703 1111 736 1125 q 642 1097 671 1097 q 580 1109 607 1097 q 529 1137 553 1121 q 482 1165 506 1153 q 431 1176 458 1176 q 374 1158 403 1176 q 319 1100 346 1140 l 251 1143 q 331 1252 281 1215 q 429 1290 382 1289 q 494 1278 467 1290 q 544 1251 521 1267 q 590 1224 567 1236 q 640 1213 613 1213 q 701 1238 671 1213 q 753 1303 732 1264 l 819 1265 z "},"Œ":{"ha":1425,"x_min":54,"x_max":1367,"o":"m 1108 343 q 1090 428 1108 403 q 1040 460 1072 454 q 963 465 1007 467 l 903 463 l 903 208 q 902 140 903 171 q 899 90 901 108 l 1111 88 q 1200 106 1160 88 q 1265 171 1240 125 q 1289 294 1289 217 l 1367 294 l 1358 0 l 729 0 q 624 -18 676 -12 q 528 -22 572 -24 q 278 44 385 -21 q 113 217 171 108 q 54 464 54 326 q 83 654 54 561 q 172 824 113 747 q 326 947 232 901 q 550 994 419 993 q 638 989 590 994 q 729 972 686 983 l 1317 972 l 1325 711 l 1249 711 q 1222 830 1249 790 q 1156 883 1196 869 q 1072 896 1117 897 l 1000 894 q 942 882 963 893 q 912 842 921 871 q 903 758 903 814 l 903 544 l 1100 544 q 1096 606 1097 575 q 1092 665 1094 638 l 1185 665 l 1185 343 l 1108 343 m 729 867 q 645 899 692 889 q 551 908 599 908 q 421 876 478 908 q 325 786 364 843 q 265 653 286 729 q 246 493 244 578 q 285 277 246 369 q 395 132 324 185 q 565 75 467 79 q 729 99 654 71 l 729 867 z "},"P":{"ha":872,"x_min":72,"x_max":844,"o":"m 72 76 q 132 90 111 78 q 161 131 153 101 q 169 214 169 161 l 169 768 q 172 835 169 803 q 175 885 174 867 q 121 883 151 883 q 72 881 90 882 l 72 972 q 254 974 163 974 q 438 975 346 974 q 656 944 564 976 q 796 845 747 911 q 844 675 844 779 q 822 565 844 619 q 749 463 799 510 q 620 388 700 417 q 428 356 540 358 q 385 356 406 356 q 344 357 364 356 l 344 208 q 343 138 344 169 q 339 88 342 106 q 379 90 357 89 q 424 91 401 90 q 460 92 447 92 l 460 0 l 72 0 l 72 76 m 344 444 q 379 442 363 443 q 415 440 396 440 q 547 468 493 440 q 628 548 600 496 q 656 675 656 600 q 636 786 656 743 q 585 852 617 829 q 514 883 553 875 q 436 892 475 892 q 380 881 400 892 q 352 841 360 869 q 344 764 344 813 l 344 444 z "},"Þ":{"ha":863,"x_min":72,"x_max":836,"o":"m 72 0 l 72 76 q 132 90 111 78 q 161 131 153 101 q 169 214 169 161 l 169 768 q 172 835 169 803 q 175 885 174 867 q 121 883 151 883 q 72 881 90 882 l 72 972 l 442 972 l 442 896 q 370 874 393 894 q 344 796 347 854 l 425 797 q 644 769 551 797 q 785 680 736 742 q 835 514 835 618 q 813 406 836 458 q 739 312 789 354 q 609 243 689 269 q 417 215 529 217 q 377 214 393 214 q 344 214 361 214 q 342 136 343 168 q 339 88 342 104 q 393 90 363 89 q 442 92 424 92 l 442 0 l 72 0 m 408 299 q 590 357 532 300 q 647 515 647 414 q 627 617 647 578 q 574 678 607 657 q 503 706 542 699 q 426 714 464 714 q 381 713 401 714 q 344 713 361 713 l 344 303 q 375 299 360 300 q 408 299 390 299 z "},"Q":{"ha":1082,"x_min":54,"x_max":1099,"o":"m 1044 -303 q 947 -299 985 -303 q 878 -278 910 -294 q 807 -226 847 -262 q 705 -126 747 -172 q 623 -51 663 -81 q 529 -22 583 -22 q 310 24 401 -21 q 163 143 219 69 q 81 307 107 217 q 54 486 54 397 q 84 663 54 574 q 174 828 114 753 q 326 949 235 903 q 540 994 418 994 q 760 949 668 994 q 910 827 851 903 q 998 663 969 751 q 1026 486 1026 574 q 1006 340 1026 414 q 944 199 986 267 q 840 81 903 132 q 694 1 778 29 q 764 -4 733 1 q 826 -27 794 -10 q 894 -81 857 -44 q 973 -153 943 -125 q 1023 -198 1003 -182 q 1060 -219 1043 -214 q 1099 -225 1078 -225 l 1099 -303 l 1044 -303 m 551 64 q 683 100 629 64 q 769 194 736 136 q 819 323 803 253 q 835 461 835 393 q 816 635 835 554 q 759 778 797 717 q 663 874 721 839 q 528 908 604 910 q 397 870 450 907 q 310 774 343 833 q 261 644 276 715 q 246 506 246 574 q 263 360 246 436 q 315 215 279 283 q 410 106 351 147 q 551 64 468 64 z "},"R":{"ha":926,"x_min":72,"x_max":913,"o":"m 72 0 l 72 76 q 132 90 111 78 q 161 131 153 101 q 169 214 169 161 l 169 768 q 172 835 169 803 q 175 885 174 867 q 121 883 151 883 q 72 881 90 882 l 72 972 q 256 974 164 974 q 440 975 349 975 q 655 946 567 975 q 788 855 743 917 q 832 693 833 793 q 806 582 831 636 q 726 486 781 528 q 582 421 672 444 q 633 381 608 407 q 678 322 657 354 l 753 207 q 804 135 781 164 q 853 92 828 107 q 913 76 878 78 l 913 0 l 701 0 q 647 58 672 24 q 593 139 621 93 l 493 299 q 459 353 475 328 q 424 397 443 379 q 383 396 401 396 q 344 397 365 396 l 344 208 q 343 138 344 169 q 339 88 342 106 q 376 90 354 89 q 418 91 397 90 q 451 92 439 92 l 451 0 l 72 0 m 417 481 q 545 504 494 482 q 622 574 596 526 q 647 694 647 621 q 628 796 647 757 q 578 856 610 835 q 510 884 547 876 q 438 892 474 892 q 381 881 401 892 q 352 841 360 869 q 344 764 344 813 l 344 485 q 379 482 361 483 q 417 481 397 481 z "},"Ŕ":{"ha":926,"x_min":72,"x_max":913,"o":"m 72 0 l 72 76 q 132 90 111 78 q 161 131 153 101 q 169 214 169 161 l 169 768 q 172 835 169 803 q 175 885 174 867 q 121 883 151 883 q 72 881 90 882 l 72 972 q 256 974 164 974 q 440 975 349 975 q 655 946 567 975 q 788 855 743 917 q 832 693 833 793 q 806 582 831 636 q 726 486 781 528 q 582 421 672 444 q 633 381 608 407 q 678 322 657 354 l 753 207 q 804 135 781 164 q 853 92 828 107 q 913 76 878 78 l 913 0 l 701 0 q 647 58 672 24 q 593 139 621 93 l 493 299 q 459 353 475 328 q 424 397 443 379 q 383 396 401 396 q 344 397 365 396 l 344 208 q 343 138 344 169 q 339 88 342 106 q 376 90 354 89 q 418 91 397 90 q 451 92 439 92 l 451 0 l 72 0 m 417 481 q 545 504 494 482 q 622 574 596 526 q 647 694 647 621 q 628 796 647 757 q 578 856 610 835 q 510 884 547 876 q 438 892 474 892 q 381 881 401 892 q 352 841 360 869 q 344 764 344 813 l 344 485 q 379 482 361 483 q 417 481 397 481 m 410 1046 l 367 1106 l 528 1269 q 573 1297 550 1290 q 616 1297 596 1303 q 649 1274 636 1292 q 660 1235 661 1257 q 647 1193 660 1214 q 608 1157 633 1172 l 410 1046 z "},"Ř":{"ha":926,"x_min":72,"x_max":913,"o":"m 72 0 l 72 76 q 132 90 111 78 q 161 131 153 101 q 169 214 169 161 l 169 768 q 172 835 169 803 q 175 885 174 867 q 121 883 151 883 q 72 881 90 882 l 72 972 q 256 974 164 974 q 440 975 349 975 q 655 946 567 975 q 788 855 743 917 q 832 693 833 793 q 806 582 831 636 q 726 486 781 528 q 582 421 672 444 q 633 381 608 407 q 678 322 657 354 l 753 207 q 804 135 781 164 q 853 92 828 107 q 913 76 878 78 l 913 0 l 701 0 q 647 58 672 24 q 593 139 621 93 l 493 299 q 459 353 475 328 q 424 397 443 379 q 383 396 401 396 q 344 397 365 396 l 344 208 q 343 138 344 169 q 339 88 342 106 q 376 90 354 89 q 418 91 397 90 q 451 92 439 92 l 451 0 l 72 0 m 417 481 q 545 504 494 482 q 622 574 596 526 q 647 694 647 621 q 628 796 647 757 q 578 856 610 835 q 510 884 547 876 q 438 892 474 892 q 381 881 401 892 q 352 841 360 869 q 344 764 344 813 l 344 485 q 379 482 361 483 q 417 481 397 481 m 447 1069 l 182 1274 l 221 1332 l 464 1211 l 711 1335 l 744 1278 l 467 1069 l 447 1069 z "},"Ŗ":{"ha":926,"x_min":72,"x_max":913,"o":"m 72 0 l 72 76 q 132 90 111 78 q 161 131 153 101 q 169 214 169 161 l 169 768 q 172 835 169 803 q 175 885 174 867 q 121 883 151 883 q 72 881 90 882 l 72 972 q 256 974 164 974 q 440 975 349 975 q 655 946 567 975 q 788 855 743 917 q 832 693 833 793 q 806 582 831 636 q 726 486 781 528 q 582 421 672 444 q 633 381 608 407 q 678 322 657 354 l 753 207 q 804 135 781 164 q 853 92 828 107 q 913 76 878 78 l 913 0 l 701 0 q 647 58 672 24 q 593 139 621 93 l 493 299 q 459 353 475 328 q 424 397 443 379 q 383 396 401 396 q 344 397 365 396 l 344 208 q 343 138 344 169 q 339 88 342 106 q 376 90 354 89 q 418 91 397 90 q 451 92 439 92 l 451 0 l 72 0 m 417 481 q 545 504 494 482 q 622 574 596 526 q 647 694 647 621 q 628 796 647 757 q 578 856 610 835 q 510 884 547 876 q 438 892 474 892 q 381 881 401 892 q 352 841 360 869 q 344 764 344 813 l 344 485 q 379 482 361 483 q 417 481 397 481 m 463 -383 l 410 -342 q 453 -244 440 -287 q 464 -160 465 -200 q 450 -78 463 -121 l 565 -51 q 592 -149 592 -97 q 556 -267 592 -207 q 463 -383 521 -328 z "},"S":{"ha":817,"x_min":68,"x_max":764,"o":"m 628 667 q 588 795 618 740 q 506 880 557 850 q 385 910 456 910 q 272 871 317 910 q 226 775 226 832 q 253 693 226 728 q 332 630 281 658 q 454 571 383 601 q 561 522 507 549 q 661 457 615 494 q 735 370 707 419 q 764 253 764 321 q 722 110 764 172 q 601 13 679 47 q 418 -22 524 -22 q 294 -5 360 -22 q 175 47 229 13 l 179 -12 l 85 -12 l 82 303 l 161 303 q 249 124 176 185 q 422 64 321 64 q 514 83 474 64 q 577 134 554 101 q 600 208 600 167 q 567 297 600 263 q 482 357 533 332 q 375 406 431 382 q 257 462 313 432 q 159 530 201 492 q 92 618 117 568 q 68 736 68 668 q 83 822 68 776 q 134 906 99 867 q 229 969 169 944 q 378 994 289 994 q 499 978 433 994 q 615 926 565 963 l 610 985 l 706 985 l 706 667 l 628 667 z "},"Ś":{"ha":817,"x_min":68,"x_max":764,"o":"m 628 667 q 588 795 618 740 q 506 880 557 850 q 385 910 456 910 q 272 871 317 910 q 226 775 226 832 q 253 693 226 728 q 332 630 281 658 q 454 571 383 601 q 561 522 507 549 q 661 457 615 494 q 735 370 707 419 q 764 253 764 321 q 722 110 764 172 q 601 13 679 47 q 418 -22 524 -22 q 294 -5 360 -22 q 175 47 229 13 l 179 -12 l 85 -12 l 82 303 l 161 303 q 249 124 176 185 q 422 64 321 64 q 514 83 474 64 q 577 134 554 101 q 600 208 600 167 q 567 297 600 263 q 482 357 533 332 q 375 406 431 382 q 257 462 313 432 q 159 530 201 492 q 92 618 117 568 q 68 736 68 668 q 83 822 68 776 q 134 906 99 867 q 229 969 169 944 q 378 994 289 994 q 499 978 433 994 q 615 926 565 963 l 610 985 l 706 985 l 706 667 l 628 667 m 350 1046 l 306 1106 l 467 1269 q 513 1297 489 1290 q 556 1297 536 1303 q 588 1274 576 1292 q 599 1235 600 1257 q 586 1193 599 1214 q 549 1157 574 1172 l 350 1046 z "},"Š":{"ha":817,"x_min":68,"x_max":764,"o":"m 628 667 q 588 795 618 740 q 506 880 557 850 q 385 910 456 910 q 272 871 317 910 q 226 775 226 832 q 253 693 226 728 q 332 630 281 658 q 454 571 383 601 q 561 522 507 549 q 661 457 615 494 q 735 370 707 419 q 764 253 764 321 q 722 110 764 172 q 601 13 679 47 q 418 -22 524 -22 q 294 -5 360 -22 q 175 47 229 13 l 179 -12 l 85 -12 l 82 303 l 161 303 q 249 124 176 185 q 422 64 321 64 q 514 83 474 64 q 577 134 554 101 q 600 208 600 167 q 567 297 600 263 q 482 357 533 332 q 375 406 431 382 q 257 462 313 432 q 159 530 201 492 q 92 618 117 568 q 68 736 68 668 q 83 822 68 776 q 134 906 99 867 q 229 969 169 944 q 378 994 289 994 q 499 978 433 994 q 615 926 565 963 l 610 985 l 706 985 l 706 667 l 628 667 m 386 1069 l 121 1274 l 160 1332 l 403 1211 l 650 1335 l 683 1278 l 406 1069 l 386 1069 z "},"Ş":{"ha":817,"x_min":68,"x_max":764,"o":"m 628 667 q 588 795 618 740 q 506 880 557 850 q 385 910 456 910 q 272 871 317 910 q 226 775 226 832 q 253 693 226 728 q 332 630 281 658 q 454 571 383 601 q 561 522 507 549 q 661 457 615 494 q 735 370 707 419 q 764 253 764 321 q 722 110 764 172 q 601 13 679 47 q 418 -22 524 -22 q 294 -5 360 -22 q 175 47 229 13 l 179 -12 l 85 -12 l 82 303 l 161 303 q 249 124 176 185 q 422 64 321 64 q 514 83 474 64 q 577 134 554 101 q 600 208 600 167 q 567 297 600 263 q 482 357 533 332 q 375 406 431 382 q 257 462 313 432 q 159 530 201 492 q 92 618 117 568 q 68 736 68 668 q 83 822 68 776 q 134 906 99 867 q 229 969 169 944 q 378 994 289 994 q 499 978 433 994 q 615 926 565 963 l 610 985 l 706 985 l 706 667 l 628 667 m 325 -351 l 315 -287 q 367 -276 339 -283 q 422 -258 396 -269 q 465 -231 447 -246 q 482 -194 482 -215 q 464 -162 482 -169 q 422 -160 446 -154 q 383 -176 399 -165 l 333 -154 l 375 13 l 472 13 l 433 -99 q 480 -81 451 -87 q 528 -75 508 -75 q 599 -100 572 -76 q 626 -171 626 -124 q 594 -249 626 -217 q 515 -301 563 -281 q 415 -334 467 -322 q 325 -351 364 -346 z "},"Ŝ":{"ha":817,"x_min":68,"x_max":764,"o":"m 628 667 q 588 795 618 740 q 506 880 557 850 q 385 910 456 910 q 272 871 317 910 q 226 775 226 832 q 253 693 226 728 q 332 630 281 658 q 454 571 383 601 q 561 522 507 549 q 661 457 615 494 q 735 370 707 419 q 764 253 764 321 q 722 110 764 172 q 601 13 679 47 q 418 -22 524 -22 q 294 -5 360 -22 q 175 47 229 13 l 179 -12 l 85 -12 l 82 303 l 161 303 q 249 124 176 185 q 422 64 321 64 q 514 83 474 64 q 577 134 554 101 q 600 208 600 167 q 567 297 600 263 q 482 357 533 332 q 375 406 431 382 q 257 462 313 432 q 159 530 201 492 q 92 618 117 568 q 68 736 68 668 q 83 822 68 776 q 134 906 99 867 q 229 969 169 944 q 378 994 289 994 q 499 978 433 994 q 615 926 565 963 l 610 985 l 706 985 l 706 667 l 628 667 m 592 1068 l 404 1188 l 213 1071 l 176 1125 l 400 1331 l 419 1331 l 632 1126 l 592 1068 z "},"Ș":{"ha":817,"x_min":68,"x_max":764,"o":"m 628 667 q 588 795 618 740 q 506 880 557 850 q 385 910 456 910 q 272 871 317 910 q 226 775 226 832 q 253 693 226 728 q 332 630 281 658 q 454 571 383 601 q 561 522 507 549 q 661 457 615 494 q 735 370 707 419 q 764 253 764 321 q 722 110 764 172 q 601 13 679 47 q 418 -22 524 -22 q 294 -5 360 -22 q 175 47 229 13 l 179 -12 l 85 -12 l 82 303 l 161 303 q 249 124 176 185 q 422 64 321 64 q 514 83 474 64 q 577 134 554 101 q 600 208 600 167 q 567 297 600 263 q 482 357 533 332 q 375 406 431 382 q 257 462 313 432 q 159 530 201 492 q 92 618 117 568 q 68 736 68 668 q 83 822 68 776 q 134 906 99 867 q 229 969 169 944 q 378 994 289 994 q 499 978 433 994 q 615 926 565 963 l 610 985 l 706 985 l 706 667 l 628 667 m 382 -383 l 329 -342 q 372 -244 360 -287 q 383 -160 385 -200 q 369 -78 382 -121 l 485 -51 q 511 -149 511 -97 q 476 -267 511 -207 q 382 -383 440 -328 z "},"ẞ":{"ha":992,"x_min":61,"x_max":940,"o":"m 604 -22 q 480 3 535 -22 q 375 81 425 28 l 433 129 q 503 88 464 100 q 582 75 542 75 q 667 97 628 75 q 732 169 707 119 q 757 296 757 218 q 703 446 757 392 q 540 501 650 500 l 467 501 l 467 553 l 619 763 q 669 831 646 801 q 726 890 693 861 l 513 893 q 367 826 419 894 q 315 621 315 758 l 315 200 q 315 165 315 189 q 315 110 315 140 q 313 51 314 81 q 310 0 313 21 l 61 0 l 61 74 q 119 91 101 74 q 140 140 136 108 q 144 213 144 172 l 144 607 q 171 769 144 700 q 246 883 197 838 q 363 950 294 928 q 513 972 431 972 l 888 972 l 888 886 l 653 576 q 778 553 725 578 q 868 488 832 529 q 922 396 904 447 q 940 290 940 344 q 912 156 940 214 q 835 57 883 97 q 728 -3 788 17 q 604 -22 668 -24 z "},"T":{"ha":899,"x_min":25,"x_max":872,"o":"m 793 665 q 774 794 793 743 q 716 869 754 844 q 619 893 678 894 l 535 893 l 535 207 q 533 138 535 169 q 529 88 532 106 q 590 90 556 89 q 642 92 624 92 l 642 0 l 263 0 l 263 76 q 322 90 301 78 q 351 132 343 103 q 360 214 360 161 l 361 892 l 271 892 q 146 836 189 890 q 103 665 103 782 l 25 665 l 32 972 l 864 972 l 872 665 l 793 665 z "},"Ŧ":{"ha":899,"x_min":25,"x_max":872,"o":"m 182 435 l 182 504 l 721 504 l 721 440 l 182 435 m 793 665 q 774 794 793 743 q 716 869 754 844 q 619 893 678 894 l 535 893 l 535 207 q 533 138 535 169 q 529 88 532 106 q 590 90 556 89 q 642 92 624 92 l 642 0 l 263 0 l 263 76 q 322 90 301 78 q 351 132 343 103 q 360 214 360 161 l 361 892 l 271 892 q 146 836 189 890 q 103 665 103 782 l 25 665 l 32 972 l 864 972 l 872 665 l 793 665 z "},"Ť":{"ha":899,"x_min":25,"x_max":872,"o":"m 793 665 q 774 794 793 743 q 716 869 754 844 q 619 893 678 894 l 535 893 l 535 207 q 533 138 535 169 q 529 88 532 106 q 590 90 556 89 q 642 92 624 92 l 642 0 l 263 0 l 263 76 q 322 90 301 78 q 351 132 343 103 q 360 214 360 161 l 361 892 l 271 892 q 146 836 189 890 q 103 665 103 782 l 25 665 l 32 972 l 864 972 l 872 665 l 793 665 m 433 1069 l 168 1274 l 207 1332 l 450 1211 l 697 1335 l 731 1278 l 453 1069 l 433 1069 z "},"Ţ":{"ha":899,"x_min":25,"x_max":872,"o":"m 793 665 q 774 794 793 743 q 716 869 754 844 q 619 893 678 894 l 535 893 l 535 207 q 533 138 535 169 q 529 88 532 106 q 590 90 556 89 q 642 92 624 92 l 642 0 l 263 0 l 263 76 q 322 90 301 78 q 351 132 343 103 q 360 214 360 161 l 361 892 l 271 892 q 146 836 189 890 q 103 665 103 782 l 25 665 l 32 972 l 864 972 l 872 665 l 793 665 m 340 -351 l 331 -287 q 383 -276 354 -283 q 437 -258 411 -269 q 480 -231 463 -246 q 497 -194 497 -215 q 479 -162 497 -169 q 438 -160 461 -154 q 399 -176 414 -165 l 349 -154 l 390 13 l 488 13 l 449 -99 q 495 -81 467 -87 q 543 -75 524 -75 q 615 -100 588 -76 q 642 -171 642 -124 q 610 -249 642 -217 q 530 -301 578 -281 q 431 -334 482 -322 q 340 -351 379 -346 z "},"Ț":{"ha":899,"x_min":25,"x_max":872,"o":"m 793 665 q 774 794 793 743 q 716 869 754 844 q 619 893 678 894 l 535 893 l 535 207 q 533 138 535 169 q 529 88 532 106 q 590 90 556 89 q 642 92 624 92 l 642 0 l 263 0 l 263 76 q 322 90 301 78 q 351 132 343 103 q 360 214 360 161 l 361 892 l 271 892 q 146 836 189 890 q 103 665 103 782 l 25 665 l 32 972 l 864 972 l 872 665 l 793 665 m 397 -383 l 344 -342 q 388 -244 375 -287 q 399 -160 400 -200 q 385 -78 397 -121 l 500 -51 q 526 -149 526 -97 q 491 -267 526 -207 q 397 -383 456 -328 z "},"U":{"ha":1051,"x_min":39,"x_max":1015,"o":"m 408 896 q 351 883 372 894 q 320 848 329 872 q 311 779 311 824 l 311 407 q 327 262 311 324 q 374 158 343 200 q 449 96 404 117 q 554 75 494 75 q 695 110 638 72 q 782 219 753 147 q 811 396 811 292 l 813 768 q 814 835 813 803 q 818 885 815 867 q 764 883 794 883 q 715 881 733 882 l 715 972 l 1015 972 l 1015 896 q 956 883 978 894 q 926 842 935 871 q 918 758 918 813 l 917 419 q 891 227 917 310 q 815 89 865 144 q 694 6 765 33 q 533 -22 624 -22 q 341 10 418 -22 q 219 102 264 42 q 155 245 174 163 q 136 431 136 328 l 136 749 q 138 824 136 785 q 142 885 140 864 q 88 883 118 883 q 39 881 57 882 l 39 972 l 408 972 l 408 896 z "},"Ú":{"ha":1051,"x_min":39,"x_max":1015,"o":"m 408 896 q 351 883 372 894 q 320 848 329 872 q 311 779 311 824 l 311 407 q 327 262 311 324 q 374 158 343 200 q 449 96 404 117 q 554 75 494 75 q 695 110 638 72 q 782 219 753 147 q 811 396 811 292 l 813 768 q 814 835 813 803 q 818 885 815 867 q 764 883 794 883 q 715 881 733 882 l 715 972 l 1015 972 l 1015 896 q 956 883 978 894 q 926 842 935 871 q 918 758 918 813 l 917 419 q 891 227 917 310 q 815 89 865 144 q 694 6 765 33 q 533 -22 624 -22 q 341 10 418 -22 q 219 102 264 42 q 155 245 174 163 q 136 431 136 328 l 136 749 q 138 824 136 785 q 142 885 140 864 q 88 883 118 883 q 39 881 57 882 l 39 972 l 408 972 l 408 896 m 483 1046 l 439 1106 l 600 1269 q 646 1297 622 1290 q 690 1297 669 1303 q 721 1274 710 1292 q 733 1235 733 1257 q 719 1193 732 1214 q 682 1157 707 1172 l 483 1046 z "},"Ŭ":{"ha":1051,"x_min":39,"x_max":1015,"o":"m 408 896 q 351 883 372 894 q 320 848 329 872 q 311 779 311 824 l 311 407 q 327 262 311 324 q 374 158 343 200 q 449 96 404 117 q 554 75 494 75 q 695 110 638 72 q 782 219 753 147 q 811 396 811 292 l 813 768 q 814 835 813 803 q 818 885 815 867 q 764 883 794 883 q 715 881 733 882 l 715 972 l 1015 972 l 1015 896 q 956 883 978 894 q 926 842 935 871 q 918 758 918 813 l 917 419 q 891 227 917 310 q 815 89 865 144 q 694 6 765 33 q 533 -22 624 -22 q 341 10 418 -22 q 219 102 264 42 q 155 245 174 163 q 136 431 136 328 l 136 749 q 138 824 136 785 q 142 885 140 864 q 88 883 118 883 q 39 881 57 882 l 39 972 l 408 972 l 408 896 m 539 1099 q 451 1115 494 1099 q 371 1166 407 1131 q 313 1258 335 1201 l 364 1283 q 434 1231 390 1254 q 539 1207 478 1207 q 643 1231 600 1207 q 713 1283 686 1254 l 764 1258 q 706 1166 742 1201 q 626 1115 669 1131 q 539 1099 582 1099 z "},"Ǔ":{"ha":1051,"x_min":39,"x_max":1015,"o":"m 408 896 q 351 883 372 894 q 320 848 329 872 q 311 779 311 824 l 311 407 q 327 262 311 324 q 374 158 343 200 q 449 96 404 117 q 554 75 494 75 q 695 110 638 72 q 782 219 753 147 q 811 396 811 292 l 813 768 q 814 835 813 803 q 818 885 815 867 q 764 883 794 883 q 715 881 733 882 l 715 972 l 1015 972 l 1015 896 q 956 883 978 894 q 926 842 935 871 q 918 758 918 813 l 917 419 q 891 227 917 310 q 815 89 865 144 q 694 6 765 33 q 533 -22 624 -22 q 341 10 418 -22 q 219 102 264 42 q 155 245 174 163 q 136 431 136 328 l 136 749 q 138 824 136 785 q 142 885 140 864 q 88 883 118 883 q 39 881 57 882 l 39 972 l 408 972 l 408 896 m 519 1069 l 254 1274 l 293 1332 l 536 1211 l 783 1335 l 817 1278 l 539 1069 l 519 1069 z "},"Û":{"ha":1051,"x_min":39,"x_max":1015,"o":"m 408 896 q 351 883 372 894 q 320 848 329 872 q 311 779 311 824 l 311 407 q 327 262 311 324 q 374 158 343 200 q 449 96 404 117 q 554 75 494 75 q 695 110 638 72 q 782 219 753 147 q 811 396 811 292 l 813 768 q 814 835 813 803 q 818 885 815 867 q 764 883 794 883 q 715 881 733 882 l 715 972 l 1015 972 l 1015 896 q 956 883 978 894 q 926 842 935 871 q 918 758 918 813 l 917 419 q 891 227 917 310 q 815 89 865 144 q 694 6 765 33 q 533 -22 624 -22 q 341 10 418 -22 q 219 102 264 42 q 155 245 174 163 q 136 431 136 328 l 136 749 q 138 824 136 785 q 142 885 140 864 q 88 883 118 883 q 39 881 57 882 l 39 972 l 408 972 l 408 896 m 725 1068 l 538 1188 l 346 1071 l 310 1125 l 533 1331 l 553 1331 l 765 1126 l 725 1068 z "},"Ü":{"ha":1051,"x_min":39,"x_max":1015,"o":"m 408 896 q 351 883 372 894 q 320 848 329 872 q 311 779 311 824 l 311 407 q 327 262 311 324 q 374 158 343 200 q 449 96 404 117 q 554 75 494 75 q 695 110 638 72 q 782 219 753 147 q 811 396 811 292 l 813 768 q 814 835 813 803 q 818 885 815 867 q 764 883 794 883 q 715 881 733 882 l 715 972 l 1015 972 l 1015 896 q 956 883 978 894 q 926 842 935 871 q 918 758 918 813 l 917 419 q 891 227 917 310 q 815 89 865 144 q 694 6 765 33 q 533 -22 624 -22 q 341 10 418 -22 q 219 102 264 42 q 155 245 174 163 q 136 431 136 328 l 136 749 q 138 824 136 785 q 142 885 140 864 q 88 883 118 883 q 39 881 57 882 l 39 972 l 408 972 l 408 896 m 414 1097 q 353 1126 379 1097 q 328 1196 328 1156 q 354 1267 328 1238 q 415 1297 381 1297 q 477 1268 453 1297 q 501 1196 501 1239 q 475 1126 501 1156 q 414 1097 449 1097 m 658 1097 q 599 1126 625 1097 q 572 1196 572 1156 q 599 1267 572 1238 q 660 1297 626 1297 q 722 1268 697 1297 q 746 1196 746 1239 q 720 1126 746 1156 q 658 1097 694 1097 z "},"Ụ":{"ha":1051,"x_min":39,"x_max":1015,"o":"m 408 896 q 351 883 372 894 q 320 848 329 872 q 311 779 311 824 l 311 407 q 327 262 311 324 q 374 158 343 200 q 449 96 404 117 q 554 75 494 75 q 695 110 638 72 q 782 219 753 147 q 811 396 811 292 l 813 768 q 814 835 813 803 q 818 885 815 867 q 764 883 794 883 q 715 881 733 882 l 715 972 l 1015 972 l 1015 896 q 956 883 978 894 q 926 842 935 871 q 918 758 918 813 l 917 419 q 891 227 917 310 q 815 89 865 144 q 694 6 765 33 q 533 -22 624 -22 q 341 10 418 -22 q 219 102 264 42 q 155 245 174 163 q 136 431 136 328 l 136 749 q 138 824 136 785 q 142 885 140 864 q 88 883 118 883 q 39 881 57 882 l 39 972 l 408 972 l 408 896 m 528 -262 q 471 -237 493 -262 q 449 -178 449 -212 q 472 -118 449 -143 q 528 -93 496 -93 q 583 -118 561 -93 q 604 -178 604 -143 q 583 -237 604 -212 q 528 -262 561 -262 z "},"Ù":{"ha":1051,"x_min":39,"x_max":1015,"o":"m 408 896 q 351 883 372 894 q 320 848 329 872 q 311 779 311 824 l 311 407 q 327 262 311 324 q 374 158 343 200 q 449 96 404 117 q 554 75 494 75 q 695 110 638 72 q 782 219 753 147 q 811 396 811 292 l 813 768 q 814 835 813 803 q 818 885 815 867 q 764 883 794 883 q 715 881 733 882 l 715 972 l 1015 972 l 1015 896 q 956 883 978 894 q 926 842 935 871 q 918 758 918 813 l 917 419 q 891 227 917 310 q 815 89 865 144 q 694 6 765 33 q 533 -22 624 -22 q 341 10 418 -22 q 219 102 264 42 q 155 245 174 163 q 136 431 136 328 l 136 749 q 138 824 136 785 q 142 885 140 864 q 88 883 118 883 q 39 881 57 882 l 39 972 l 408 972 l 408 896 m 575 1046 l 376 1157 q 339 1193 351 1172 q 326 1235 326 1214 q 336 1274 325 1257 q 369 1297 349 1292 q 412 1297 389 1303 q 457 1269 435 1290 l 618 1106 l 575 1046 z "},"Ủ":{"ha":1051,"x_min":39,"x_max":1015,"o":"m 408 896 q 351 883 372 894 q 320 848 329 872 q 311 779 311 824 l 311 407 q 327 262 311 324 q 374 158 343 200 q 449 96 404 117 q 554 75 494 75 q 695 110 638 72 q 782 219 753 147 q 811 396 811 292 l 813 768 q 814 835 813 803 q 818 885 815 867 q 764 883 794 883 q 715 881 733 882 l 715 972 l 1015 972 l 1015 896 q 956 883 978 894 q 926 842 935 871 q 918 758 918 813 l 917 419 q 891 227 917 310 q 815 89 865 144 q 694 6 765 33 q 533 -22 624 -22 q 341 10 418 -22 q 219 102 264 42 q 155 245 174 163 q 136 431 136 328 l 136 749 q 138 824 136 785 q 142 885 140 864 q 88 883 118 883 q 39 881 57 882 l 39 972 l 408 972 l 408 896 m 510 1057 q 528 1101 510 1085 q 564 1135 546 1118 q 581 1160 575 1146 q 588 1190 588 1174 q 568 1235 588 1218 q 517 1253 549 1253 q 465 1239 483 1253 q 444 1214 447 1225 q 467 1203 460 1213 q 475 1182 475 1194 q 463 1153 475 1165 q 428 1140 450 1140 q 383 1158 401 1140 q 365 1206 365 1176 q 383 1262 365 1235 q 435 1307 400 1289 q 517 1325 469 1325 q 640 1290 596 1325 q 683 1201 683 1256 q 666 1144 683 1165 q 625 1108 649 1124 q 597 1082 608 1094 q 586 1057 586 1069 l 510 1057 z "},"Ư":{"ha":1051,"x_min":39,"x_max":1126,"o":"m 408 896 q 351 883 372 894 q 320 848 329 872 q 311 779 311 824 l 311 407 q 327 262 311 324 q 374 158 343 200 q 449 96 404 117 q 554 75 494 75 q 695 110 638 72 q 782 219 753 147 q 811 396 811 292 l 813 768 q 814 835 813 803 q 818 885 815 867 q 764 883 794 883 q 715 881 733 882 l 715 972 l 1015 972 l 1015 896 q 956 883 978 894 q 926 842 935 871 q 918 758 918 813 l 917 419 q 891 227 917 310 q 815 89 865 144 q 694 6 765 33 q 533 -22 624 -22 q 341 10 418 -22 q 219 102 264 42 q 155 245 174 163 q 136 431 136 328 l 136 749 q 138 824 136 785 q 142 885 140 864 q 88 883 118 883 q 39 881 57 882 l 39 972 l 408 972 l 408 896 m 878 885 l 878 968 q 960 1004 931 968 q 990 1079 990 1040 l 1126 1079 q 1095 977 1126 1021 q 1008 909 1064 933 q 878 885 953 885 z "},"Ứ":{"ha":1051,"x_min":39,"x_max":1126,"o":"m 408 896 q 351 883 372 894 q 320 848 329 872 q 311 779 311 824 l 311 407 q 327 262 311 324 q 374 158 343 200 q 449 96 404 117 q 554 75 494 75 q 695 110 638 72 q 782 219 753 147 q 811 396 811 292 l 813 768 q 814 835 813 803 q 818 885 815 867 q 764 883 794 883 q 715 881 733 882 l 715 972 l 1015 972 l 1015 896 q 956 883 978 894 q 926 842 935 871 q 918 758 918 813 l 917 419 q 891 227 917 310 q 815 89 865 144 q 694 6 765 33 q 533 -22 624 -22 q 341 10 418 -22 q 219 102 264 42 q 155 245 174 163 q 136 431 136 328 l 136 749 q 138 824 136 785 q 142 885 140 864 q 88 883 118 883 q 39 881 57 882 l 39 972 l 408 972 l 408 896 m 878 885 l 878 968 q 960 1004 931 968 q 990 1079 990 1040 l 1126 1079 q 1095 977 1126 1021 q 1008 909 1064 933 q 878 885 953 885 m 464 1069 l 408 1118 l 524 1310 q 561 1347 540 1336 q 603 1356 582 1357 q 640 1342 625 1354 q 661 1305 657 1326 q 658 1260 665 1283 q 628 1217 650 1238 l 464 1069 z "},"Ự":{"ha":1051,"x_min":39,"x_max":1126,"o":"m 408 896 q 351 883 372 894 q 320 848 329 872 q 311 779 311 824 l 311 407 q 327 262 311 324 q 374 158 343 200 q 449 96 404 117 q 554 75 494 75 q 695 110 638 72 q 782 219 753 147 q 811 396 811 292 l 813 768 q 814 835 813 803 q 818 885 815 867 q 764 883 794 883 q 715 881 733 882 l 715 972 l 1015 972 l 1015 896 q 956 883 978 894 q 926 842 935 871 q 918 758 918 813 l 917 419 q 891 227 917 310 q 815 89 865 144 q 694 6 765 33 q 533 -22 624 -22 q 341 10 418 -22 q 219 102 264 42 q 155 245 174 163 q 136 431 136 328 l 136 749 q 138 824 136 785 q 142 885 140 864 q 88 883 118 883 q 39 881 57 882 l 39 972 l 408 972 l 408 896 m 878 885 l 878 968 q 960 1004 931 968 q 990 1079 990 1040 l 1126 1079 q 1095 977 1126 1021 q 1008 909 1064 933 q 878 885 953 885 m 528 -262 q 471 -237 493 -262 q 449 -178 449 -212 q 472 -118 449 -143 q 528 -93 496 -93 q 583 -118 561 -93 q 604 -178 604 -143 q 583 -237 604 -212 q 528 -262 561 -262 z "},"Ừ":{"ha":1051,"x_min":39,"x_max":1126,"o":"m 408 896 q 351 883 372 894 q 320 848 329 872 q 311 779 311 824 l 311 407 q 327 262 311 324 q 374 158 343 200 q 449 96 404 117 q 554 75 494 75 q 695 110 638 72 q 782 219 753 147 q 811 396 811 292 l 813 768 q 814 835 813 803 q 818 885 815 867 q 764 883 794 883 q 715 881 733 882 l 715 972 l 1015 972 l 1015 896 q 956 883 978 894 q 926 842 935 871 q 918 758 918 813 l 917 419 q 891 227 917 310 q 815 89 865 144 q 694 6 765 33 q 533 -22 624 -22 q 341 10 418 -22 q 219 102 264 42 q 155 245 174 163 q 136 431 136 328 l 136 749 q 138 824 136 785 q 142 885 140 864 q 88 883 118 883 q 39 881 57 882 l 39 972 l 408 972 l 408 896 m 878 885 l 878 968 q 960 1004 931 968 q 990 1079 990 1040 l 1126 1079 q 1095 977 1126 1021 q 1008 909 1064 933 q 878 885 953 885 m 608 1069 l 444 1217 q 415 1260 424 1238 q 410 1305 406 1283 q 432 1342 415 1326 q 469 1356 449 1354 q 512 1347 490 1357 q 549 1310 533 1336 l 664 1118 l 608 1069 z "},"Ử":{"ha":1051,"x_min":39,"x_max":1126,"o":"m 408 896 q 351 883 372 894 q 320 848 329 872 q 311 779 311 824 l 311 407 q 327 262 311 324 q 374 158 343 200 q 449 96 404 117 q 554 75 494 75 q 695 110 638 72 q 782 219 753 147 q 811 396 811 292 l 813 768 q 814 835 813 803 q 818 885 815 867 q 764 883 794 883 q 715 881 733 882 l 715 972 l 1015 972 l 1015 896 q 956 883 978 894 q 926 842 935 871 q 918 758 918 813 l 917 419 q 891 227 917 310 q 815 89 865 144 q 694 6 765 33 q 533 -22 624 -22 q 341 10 418 -22 q 219 102 264 42 q 155 245 174 163 q 136 431 136 328 l 136 749 q 138 824 136 785 q 142 885 140 864 q 88 883 118 883 q 39 881 57 882 l 39 972 l 408 972 l 408 896 m 878 885 l 878 968 q 960 1004 931 968 q 990 1079 990 1040 l 1126 1079 q 1095 977 1126 1021 q 1008 909 1064 933 q 878 885 953 885 m 510 1057 q 528 1101 510 1085 q 564 1135 546 1118 q 581 1160 575 1146 q 588 1190 588 1174 q 568 1235 588 1218 q 517 1253 549 1253 q 465 1239 483 1253 q 444 1214 447 1225 q 467 1203 460 1213 q 475 1182 475 1194 q 463 1153 475 1165 q 428 1140 450 1140 q 383 1158 401 1140 q 365 1206 365 1176 q 383 1262 365 1235 q 435 1307 400 1289 q 517 1325 469 1325 q 640 1290 596 1325 q 683 1201 683 1256 q 666 1144 683 1165 q 625 1108 649 1124 q 597 1082 608 1094 q 586 1057 586 1069 l 510 1057 z "},"Ữ":{"ha":1051,"x_min":39,"x_max":1126,"o":"m 408 896 q 351 883 372 894 q 320 848 329 872 q 311 779 311 824 l 311 407 q 327 262 311 324 q 374 158 343 200 q 449 96 404 117 q 554 75 494 75 q 695 110 638 72 q 782 219 753 147 q 811 396 811 292 l 813 768 q 814 835 813 803 q 818 885 815 867 q 764 883 794 883 q 715 881 733 882 l 715 972 l 1015 972 l 1015 896 q 956 883 978 894 q 926 842 935 871 q 918 758 918 813 l 917 419 q 891 227 917 310 q 815 89 865 144 q 694 6 765 33 q 533 -22 624 -22 q 341 10 418 -22 q 219 102 264 42 q 155 245 174 163 q 136 431 136 328 l 136 749 q 138 824 136 785 q 142 885 140 864 q 88 883 118 883 q 39 881 57 882 l 39 972 l 408 972 l 408 896 m 878 885 l 878 968 q 960 1004 931 968 q 990 1079 990 1040 l 1126 1079 q 1095 977 1126 1021 q 1008 909 1064 933 q 878 885 953 885 m 779 1275 q 707 1160 753 1196 q 622 1124 661 1124 q 553 1139 582 1124 q 501 1169 525 1154 q 449 1185 476 1185 q 403 1172 429 1185 q 358 1126 378 1160 l 292 1165 q 358 1262 314 1224 q 447 1300 403 1300 q 518 1286 492 1301 q 567 1256 544 1271 q 622 1240 589 1240 q 672 1259 647 1240 q 713 1310 696 1278 l 779 1275 z "},"Ű":{"ha":1051,"x_min":39,"x_max":1015,"o":"m 408 896 q 351 883 372 894 q 320 848 329 872 q 311 779 311 824 l 311 407 q 327 262 311 324 q 374 158 343 200 q 449 96 404 117 q 554 75 494 75 q 695 110 638 72 q 782 219 753 147 q 811 396 811 292 l 813 768 q 814 835 813 803 q 818 885 815 867 q 764 883 794 883 q 715 881 733 882 l 715 972 l 1015 972 l 1015 896 q 956 883 978 894 q 926 842 935 871 q 918 758 918 813 l 917 419 q 891 227 917 310 q 815 89 865 144 q 694 6 765 33 q 533 -22 624 -22 q 341 10 418 -22 q 219 102 264 42 q 155 245 174 163 q 136 431 136 328 l 136 749 q 138 824 136 785 q 142 885 140 864 q 88 883 118 883 q 39 881 57 882 l 39 972 l 408 972 l 408 896 m 631 1049 l 594 1107 l 750 1249 q 819 1283 782 1278 q 875 1256 856 1288 q 882 1215 888 1236 q 860 1178 876 1194 q 825 1149 844 1161 l 631 1049 m 444 1049 l 392 1096 l 499 1261 q 554 1310 521 1296 q 614 1303 588 1325 q 633 1266 632 1288 q 624 1224 633 1244 q 596 1186 614 1203 l 444 1049 z "},"Ū":{"ha":1051,"x_min":39,"x_max":1015,"o":"m 408 896 q 351 883 372 894 q 320 848 329 872 q 311 779 311 824 l 311 407 q 327 262 311 324 q 374 158 343 200 q 449 96 404 117 q 554 75 494 75 q 695 110 638 72 q 782 219 753 147 q 811 396 811 292 l 813 768 q 814 835 813 803 q 818 885 815 867 q 764 883 794 883 q 715 881 733 882 l 715 972 l 1015 972 l 1015 896 q 956 883 978 894 q 926 842 935 871 q 918 758 918 813 l 917 419 q 891 227 917 310 q 815 89 865 144 q 694 6 765 33 q 533 -22 624 -22 q 341 10 418 -22 q 219 102 264 42 q 155 245 174 163 q 136 431 136 328 l 136 749 q 138 824 136 785 q 142 885 140 864 q 88 883 118 883 q 39 881 57 882 l 39 972 l 408 972 l 408 896 m 343 1154 l 343 1271 l 729 1271 l 729 1160 l 343 1154 z "},"Ų":{"ha":1051,"x_min":39,"x_max":1015,"o":"m 408 896 q 351 883 372 894 q 320 848 329 872 q 311 779 311 824 l 311 407 q 327 262 311 324 q 374 158 343 200 q 449 96 404 117 q 554 75 494 75 q 695 110 638 72 q 782 219 753 147 q 811 396 811 292 l 813 768 q 814 835 813 803 q 818 885 815 867 q 764 883 794 883 q 715 881 733 882 l 715 972 l 1015 972 l 1015 896 q 956 883 978 894 q 926 842 935 871 q 918 758 918 813 l 917 419 q 891 227 917 310 q 815 89 865 144 q 694 6 765 33 q 533 -22 624 -22 q 341 10 418 -22 q 219 102 264 42 q 155 245 174 163 q 136 431 136 328 l 136 749 q 138 824 136 785 q 142 885 140 864 q 88 883 118 883 q 39 881 57 882 l 39 972 l 408 972 l 408 896 m 542 -358 q 433 -321 475 -358 q 392 -215 392 -283 q 437 -98 392 -153 q 553 -2 482 -43 q 700 61 624 39 l 700 7 q 613 -39 656 -11 q 546 -103 571 -67 q 521 -181 521 -139 q 542 -231 522 -211 q 590 -250 561 -250 q 635 -239 613 -250 q 678 -210 657 -228 l 718 -258 q 639 -329 686 -300 q 542 -358 592 -358 z "},"Ů":{"ha":1051,"x_min":39,"x_max":1015,"o":"m 408 896 q 351 883 372 894 q 320 848 329 872 q 311 779 311 824 l 311 407 q 327 262 311 324 q 374 158 343 200 q 449 96 404 117 q 554 75 494 75 q 695 110 638 72 q 782 219 753 147 q 811 396 811 292 l 813 768 q 814 835 813 803 q 818 885 815 867 q 764 883 794 883 q 715 881 733 882 l 715 972 l 1015 972 l 1015 896 q 956 883 978 894 q 926 842 935 871 q 918 758 918 813 l 917 419 q 891 227 917 310 q 815 89 865 144 q 694 6 765 33 q 533 -22 624 -22 q 341 10 418 -22 q 219 102 264 42 q 155 245 174 163 q 136 431 136 328 l 136 749 q 138 824 136 785 q 142 885 140 864 q 88 883 118 883 q 39 881 57 882 l 39 972 l 408 972 l 408 896 m 538 1063 q 466 1079 501 1063 q 408 1128 431 1096 q 382 1208 385 1161 q 402 1290 381 1254 q 460 1346 424 1325 q 536 1367 496 1367 q 608 1351 574 1367 q 667 1303 643 1335 q 692 1222 690 1272 q 670 1138 693 1174 q 612 1083 647 1103 q 538 1063 576 1063 m 544 1133 q 578 1153 564 1135 q 593 1206 593 1172 q 577 1274 593 1251 q 535 1296 561 1297 q 499 1277 514 1294 q 483 1224 483 1260 q 500 1158 483 1182 q 544 1133 517 1133 z "},"Ũ":{"ha":1051,"x_min":39,"x_max":1015,"o":"m 408 896 q 351 883 372 894 q 320 848 329 872 q 311 779 311 824 l 311 407 q 327 262 311 324 q 374 158 343 200 q 449 96 404 117 q 554 75 494 75 q 695 110 638 72 q 782 219 753 147 q 811 396 811 292 l 813 768 q 814 835 813 803 q 818 885 815 867 q 764 883 794 883 q 715 881 733 882 l 715 972 l 1015 972 l 1015 896 q 956 883 978 894 q 926 842 935 871 q 918 758 918 813 l 917 419 q 891 227 917 310 q 815 89 865 144 q 694 6 765 33 q 533 -22 624 -22 q 341 10 418 -22 q 219 102 264 42 q 155 245 174 163 q 136 431 136 328 l 136 749 q 138 824 136 785 q 142 885 140 864 q 88 883 118 883 q 39 881 57 882 l 39 972 l 408 972 l 408 896 m 779 1275 q 707 1160 753 1196 q 622 1124 661 1124 q 553 1139 582 1124 q 501 1169 525 1154 q 449 1185 476 1185 q 403 1172 429 1185 q 358 1126 378 1160 l 292 1165 q 358 1262 314 1224 q 447 1300 403 1300 q 518 1286 492 1301 q 567 1256 544 1271 q 622 1240 589 1240 q 672 1259 647 1240 q 713 1310 696 1278 l 779 1275 z "},"V":{"ha":958,"x_min":6,"x_max":967,"o":"m 446 -10 l 128 733 q 96 820 108 781 q 82 885 83 860 q 41 883 60 883 q 6 881 22 882 l 6 972 l 386 972 l 386 896 q 306 866 328 894 q 308 774 283 838 q 373 617 342 694 q 438 457 404 539 q 487 339 465 392 q 528 235 508 286 l 531 235 q 563 328 546 279 q 597 429 579 378 q 644 560 624 500 q 685 670 665 619 q 719 767 704 721 q 742 830 728 794 q 771 885 756 865 q 715 883 747 883 q 664 881 683 882 l 664 972 l 967 972 l 967 896 q 880 863 914 894 q 817 751 846 831 q 783 663 800 708 q 749 568 767 618 q 708 460 731 518 q 660 332 686 401 q 603 178 635 263 q 535 -10 572 93 l 446 -10 z "},"W":{"ha":1401,"x_min":15,"x_max":1410,"o":"m 385 -10 l 136 735 q 110 823 119 786 q 97 885 100 860 q 53 883 74 883 q 15 881 33 882 l 15 972 l 401 972 l 401 896 q 319 871 340 896 q 317 776 297 846 q 361 615 338 693 q 407 457 385 538 q 435 359 422 404 q 464 247 449 314 l 467 247 q 482 304 472 268 q 503 379 492 340 q 524 451 515 418 q 538 499 533 483 q 592 673 565 588 q 644 835 619 758 q 686 974 668 913 l 783 974 q 822 849 801 915 q 865 715 843 783 q 908 580 888 646 q 947 458 929 514 q 978 351 964 406 q 1007 242 993 297 l 1010 242 q 1035 332 1022 285 q 1064 429 1049 379 q 1096 535 1082 488 q 1122 622 1110 582 q 1143 697 1133 661 q 1163 767 1153 732 q 1184 830 1171 797 q 1215 885 1197 863 q 1159 883 1192 883 q 1107 881 1126 882 l 1107 972 l 1410 972 l 1410 896 q 1347 878 1374 893 q 1297 828 1319 864 q 1254 728 1275 793 q 1138 358 1196 542 q 1019 -10 1079 174 l 924 -10 l 743 522 q 716 617 728 571 q 692 706 704 663 q 673 622 683 663 q 650 539 663 582 l 478 -10 l 385 -10 z "},"Ẃ":{"ha":1401,"x_min":15,"x_max":1410,"o":"m 385 -10 l 136 735 q 110 823 119 786 q 97 885 100 860 q 53 883 74 883 q 15 881 33 882 l 15 972 l 401 972 l 401 896 q 319 871 340 896 q 317 776 297 846 q 361 615 338 693 q 407 457 385 538 q 435 359 422 404 q 464 247 449 314 l 467 247 q 482 304 472 268 q 503 379 492 340 q 524 451 515 418 q 538 499 533 483 q 592 673 565 588 q 644 835 619 758 q 686 974 668 913 l 783 974 q 822 849 801 915 q 865 715 843 783 q 908 580 888 646 q 947 458 929 514 q 978 351 964 406 q 1007 242 993 297 l 1010 242 q 1035 332 1022 285 q 1064 429 1049 379 q 1096 535 1082 488 q 1122 622 1110 582 q 1143 697 1133 661 q 1163 767 1153 732 q 1184 830 1171 797 q 1215 885 1197 863 q 1159 883 1192 883 q 1107 881 1126 882 l 1107 972 l 1410 972 l 1410 896 q 1347 878 1374 893 q 1297 828 1319 864 q 1254 728 1275 793 q 1138 358 1196 542 q 1019 -10 1079 174 l 924 -10 l 743 522 q 716 617 728 571 q 692 706 704 663 q 673 622 683 663 q 650 539 663 582 l 478 -10 l 385 -10 m 674 1046 l 631 1106 l 792 1269 q 838 1297 814 1290 q 881 1297 861 1303 q 913 1274 901 1292 q 924 1235 925 1257 q 911 1193 924 1214 q 872 1157 899 1172 l 674 1046 z "},"Ŵ":{"ha":1401,"x_min":15,"x_max":1410,"o":"m 385 -10 l 136 735 q 110 823 119 786 q 97 885 100 860 q 53 883 74 883 q 15 881 33 882 l 15 972 l 401 972 l 401 896 q 319 871 340 896 q 317 776 297 846 q 361 615 338 693 q 407 457 385 538 q 435 359 422 404 q 464 247 449 314 l 467 247 q 482 304 472 268 q 503 379 492 340 q 524 451 515 418 q 538 499 533 483 q 592 673 565 588 q 644 835 619 758 q 686 974 668 913 l 783 974 q 822 849 801 915 q 865 715 843 783 q 908 580 888 646 q 947 458 929 514 q 978 351 964 406 q 1007 242 993 297 l 1010 242 q 1035 332 1022 285 q 1064 429 1049 379 q 1096 535 1082 488 q 1122 622 1110 582 q 1143 697 1133 661 q 1163 767 1153 732 q 1184 830 1171 797 q 1215 885 1197 863 q 1159 883 1192 883 q 1107 881 1126 882 l 1107 972 l 1410 972 l 1410 896 q 1347 878 1374 893 q 1297 828 1319 864 q 1254 728 1275 793 q 1138 358 1196 542 q 1019 -10 1079 174 l 924 -10 l 743 522 q 716 617 728 571 q 692 706 704 663 q 673 622 683 663 q 650 539 663 582 l 478 -10 l 385 -10 m 917 1068 l 729 1188 l 538 1071 l 501 1125 l 725 1331 l 744 1331 l 957 1126 l 917 1068 z "},"Ẅ":{"ha":1401,"x_min":15,"x_max":1410,"o":"m 385 -10 l 136 735 q 110 823 119 786 q 97 885 100 860 q 53 883 74 883 q 15 881 33 882 l 15 972 l 401 972 l 401 896 q 319 871 340 896 q 317 776 297 846 q 361 615 338 693 q 407 457 385 538 q 435 359 422 404 q 464 247 449 314 l 467 247 q 482 304 472 268 q 503 379 492 340 q 524 451 515 418 q 538 499 533 483 q 592 673 565 588 q 644 835 619 758 q 686 974 668 913 l 783 974 q 822 849 801 915 q 865 715 843 783 q 908 580 888 646 q 947 458 929 514 q 978 351 964 406 q 1007 242 993 297 l 1010 242 q 1035 332 1022 285 q 1064 429 1049 379 q 1096 535 1082 488 q 1122 622 1110 582 q 1143 697 1133 661 q 1163 767 1153 732 q 1184 830 1171 797 q 1215 885 1197 863 q 1159 883 1192 883 q 1107 881 1126 882 l 1107 972 l 1410 972 l 1410 896 q 1347 878 1374 893 q 1297 828 1319 864 q 1254 728 1275 793 q 1138 358 1196 542 q 1019 -10 1079 174 l 924 -10 l 743 522 q 716 617 728 571 q 692 706 704 663 q 673 622 683 663 q 650 539 663 582 l 478 -10 l 385 -10 m 604 1097 q 544 1126 569 1097 q 518 1196 518 1156 q 544 1267 518 1238 q 606 1297 571 1297 q 667 1268 643 1297 q 692 1196 692 1239 q 665 1126 692 1156 q 604 1097 639 1097 m 849 1097 q 789 1126 815 1097 q 763 1196 763 1156 q 790 1267 763 1238 q 850 1297 817 1297 q 912 1268 888 1297 q 936 1196 936 1239 q 910 1126 936 1156 q 849 1097 885 1097 z "},"Ẁ":{"ha":1401,"x_min":15,"x_max":1410,"o":"m 385 -10 l 136 735 q 110 823 119 786 q 97 885 100 860 q 53 883 74 883 q 15 881 33 882 l 15 972 l 401 972 l 401 896 q 319 871 340 896 q 317 776 297 846 q 361 615 338 693 q 407 457 385 538 q 435 359 422 404 q 464 247 449 314 l 467 247 q 482 304 472 268 q 503 379 492 340 q 524 451 515 418 q 538 499 533 483 q 592 673 565 588 q 644 835 619 758 q 686 974 668 913 l 783 974 q 822 849 801 915 q 865 715 843 783 q 908 580 888 646 q 947 458 929 514 q 978 351 964 406 q 1007 242 993 297 l 1010 242 q 1035 332 1022 285 q 1064 429 1049 379 q 1096 535 1082 488 q 1122 622 1110 582 q 1143 697 1133 661 q 1163 767 1153 732 q 1184 830 1171 797 q 1215 885 1197 863 q 1159 883 1192 883 q 1107 881 1126 882 l 1107 972 l 1410 972 l 1410 896 q 1347 878 1374 893 q 1297 828 1319 864 q 1254 728 1275 793 q 1138 358 1196 542 q 1019 -10 1079 174 l 924 -10 l 743 522 q 716 617 728 571 q 692 706 704 663 q 673 622 683 663 q 650 539 663 582 l 478 -10 l 385 -10 m 765 1046 l 567 1157 q 529 1193 542 1172 q 516 1235 517 1214 q 526 1274 515 1257 q 559 1297 539 1292 q 602 1297 579 1303 q 647 1269 625 1290 l 808 1106 l 765 1046 z "},"X":{"ha":947,"x_min":17,"x_max":947,"o":"m 38 0 l 38 76 q 127 125 88 88 q 217 231 167 163 l 383 461 q 260 625 315 553 q 157 760 204 697 q 117 824 133 792 q 89 885 100 856 q 51 883 68 883 q 17 881 33 882 l 17 972 l 418 972 l 418 896 l 389 894 q 328 881 343 894 q 322 844 314 867 q 347 794 329 821 q 413 706 378 754 q 488 607 449 658 l 603 768 q 656 840 633 813 q 699 885 679 868 q 642 883 674 883 q 590 881 610 882 l 590 972 l 892 972 l 892 896 q 822 869 856 892 q 755 811 788 847 q 688 726 722 775 l 547 532 q 638 414 593 472 q 724 302 682 356 q 803 201 767 249 q 847 142 826 171 q 882 88 868 114 q 918 91 904 90 q 947 92 932 92 l 947 0 l 557 0 l 557 76 q 625 90 610 76 q 633 126 640 103 q 607 174 626 149 q 532 270 574 217 q 444 382 490 324 q 381 292 413 338 q 317 203 349 247 q 270 138 289 164 q 228 86 251 111 q 284 90 254 89 q 332 92 314 92 l 332 0 l 38 0 z "},"Y":{"ha":911,"x_min":0,"x_max":913,"o":"m 288 0 l 288 76 q 347 90 326 78 q 376 132 368 103 q 385 214 385 161 l 385 347 l 135 744 q 93 822 110 783 q 74 885 76 861 q 35 883 51 883 q 0 881 18 882 l 0 972 l 393 972 l 393 896 q 319 883 344 897 q 291 842 293 869 q 314 774 289 815 l 421 600 q 443 563 429 586 q 472 515 457 540 q 497 468 486 489 l 499 468 q 524 521 508 489 q 563 596 540 553 l 650 765 q 669 803 657 781 q 694 848 681 825 q 721 886 708 871 q 665 883 697 885 q 613 881 632 882 l 613 972 l 913 972 l 913 896 q 819 854 857 890 q 739 738 782 818 q 648 565 693 650 q 560 396 603 479 q 560 347 560 374 q 560 293 560 321 q 560 242 560 265 q 560 207 560 219 q 558 138 560 169 q 554 88 557 106 q 613 90 579 89 q 667 92 647 92 l 667 0 l 288 0 z "},"Ý":{"ha":911,"x_min":0,"x_max":913,"o":"m 288 0 l 288 76 q 347 90 326 78 q 376 132 368 103 q 385 214 385 161 l 385 347 l 135 744 q 93 822 110 783 q 74 885 76 861 q 35 883 51 883 q 0 881 18 882 l 0 972 l 393 972 l 393 896 q 319 883 344 897 q 291 842 293 869 q 314 774 289 815 l 421 600 q 443 563 429 586 q 472 515 457 540 q 497 468 486 489 l 499 468 q 524 521 508 489 q 563 596 540 553 l 650 765 q 669 803 657 781 q 694 848 681 825 q 721 886 708 871 q 665 883 697 885 q 613 881 632 882 l 613 972 l 913 972 l 913 896 q 819 854 857 890 q 739 738 782 818 q 648 565 693 650 q 560 396 603 479 q 560 347 560 374 q 560 293 560 321 q 560 242 560 265 q 560 207 560 219 q 558 138 560 169 q 554 88 557 106 q 613 90 579 89 q 667 92 647 92 l 667 0 l 288 0 m 419 1046 l 376 1106 l 538 1269 q 583 1297 560 1290 q 626 1297 606 1303 q 658 1274 646 1292 q 670 1235 671 1257 q 656 1193 669 1214 q 618 1157 643 1172 l 419 1046 z "},"Ŷ":{"ha":911,"x_min":0,"x_max":913,"o":"m 288 0 l 288 76 q 347 90 326 78 q 376 132 368 103 q 385 214 385 161 l 385 347 l 135 744 q 93 822 110 783 q 74 885 76 861 q 35 883 51 883 q 0 881 18 882 l 0 972 l 393 972 l 393 896 q 319 883 344 897 q 291 842 293 869 q 314 774 289 815 l 421 600 q 443 563 429 586 q 472 515 457 540 q 497 468 486 489 l 499 468 q 524 521 508 489 q 563 596 540 553 l 650 765 q 669 803 657 781 q 694 848 681 825 q 721 886 708 871 q 665 883 697 885 q 613 881 632 882 l 613 972 l 913 972 l 913 896 q 819 854 857 890 q 739 738 782 818 q 648 565 693 650 q 560 396 603 479 q 560 347 560 374 q 560 293 560 321 q 560 242 560 265 q 560 207 560 219 q 558 138 560 169 q 554 88 557 106 q 613 90 579 89 q 667 92 647 92 l 667 0 l 288 0 m 663 1068 l 475 1188 l 283 1071 l 247 1125 l 471 1331 l 490 1331 l 703 1126 l 663 1068 z "},"Ÿ":{"ha":911,"x_min":0,"x_max":913,"o":"m 288 0 l 288 76 q 347 90 326 78 q 376 132 368 103 q 385 214 385 161 l 385 347 l 135 744 q 93 822 110 783 q 74 885 76 861 q 35 883 51 883 q 0 881 18 882 l 0 972 l 393 972 l 393 896 q 319 883 344 897 q 291 842 293 869 q 314 774 289 815 l 421 600 q 443 563 429 586 q 472 515 457 540 q 497 468 486 489 l 499 468 q 524 521 508 489 q 563 596 540 553 l 650 765 q 669 803 657 781 q 694 848 681 825 q 721 886 708 871 q 665 883 697 885 q 613 881 632 882 l 613 972 l 913 972 l 913 896 q 819 854 857 890 q 739 738 782 818 q 648 565 693 650 q 560 396 603 479 q 560 347 560 374 q 560 293 560 321 q 560 242 560 265 q 560 207 560 219 q 558 138 560 169 q 554 88 557 106 q 613 90 579 89 q 667 92 647 92 l 667 0 l 288 0 m 350 1097 q 290 1126 315 1097 q 264 1196 264 1156 q 290 1267 264 1238 q 351 1297 317 1297 q 413 1268 389 1297 q 438 1196 438 1239 q 411 1126 438 1156 q 350 1097 385 1097 m 594 1097 q 535 1126 561 1097 q 508 1196 508 1156 q 535 1267 508 1238 q 596 1297 563 1297 q 658 1268 633 1297 q 682 1196 682 1239 q 656 1126 682 1156 q 594 1097 631 1097 z "},"Ỵ":{"ha":911,"x_min":0,"x_max":913,"o":"m 288 0 l 288 76 q 347 90 326 78 q 376 132 368 103 q 385 214 385 161 l 385 347 l 135 744 q 93 822 110 783 q 74 885 76 861 q 35 883 51 883 q 0 881 18 882 l 0 972 l 393 972 l 393 896 q 319 883 344 897 q 291 842 293 869 q 314 774 289 815 l 421 600 q 443 563 429 586 q 472 515 457 540 q 497 468 486 489 l 499 468 q 524 521 508 489 q 563 596 540 553 l 650 765 q 669 803 657 781 q 694 848 681 825 q 721 886 708 871 q 665 883 697 885 q 613 881 632 882 l 613 972 l 913 972 l 913 896 q 819 854 857 890 q 739 738 782 818 q 648 565 693 650 q 560 396 603 479 q 560 347 560 374 q 560 293 560 321 q 560 242 560 265 q 560 207 560 219 q 558 138 560 169 q 554 88 557 106 q 613 90 579 89 q 667 92 647 92 l 667 0 l 288 0 m 458 -262 q 401 -237 424 -262 q 379 -178 379 -212 q 403 -118 379 -143 q 458 -93 426 -93 q 513 -118 492 -93 q 535 -178 535 -143 q 513 -237 535 -212 q 458 -262 492 -262 z "},"Ỳ":{"ha":911,"x_min":0,"x_max":913,"o":"m 288 0 l 288 76 q 347 90 326 78 q 376 132 368 103 q 385 214 385 161 l 385 347 l 135 744 q 93 822 110 783 q 74 885 76 861 q 35 883 51 883 q 0 881 18 882 l 0 972 l 393 972 l 393 896 q 319 883 344 897 q 291 842 293 869 q 314 774 289 815 l 421 600 q 443 563 429 586 q 472 515 457 540 q 497 468 486 489 l 499 468 q 524 521 508 489 q 563 596 540 553 l 650 765 q 669 803 657 781 q 694 848 681 825 q 721 886 708 871 q 665 883 697 885 q 613 881 632 882 l 613 972 l 913 972 l 913 896 q 819 854 857 890 q 739 738 782 818 q 648 565 693 650 q 560 396 603 479 q 560 347 560 374 q 560 293 560 321 q 560 242 560 265 q 560 207 560 219 q 558 138 560 169 q 554 88 557 106 q 613 90 579 89 q 667 92 647 92 l 667 0 l 288 0 m 511 1046 l 313 1157 q 275 1193 288 1172 q 262 1235 263 1214 q 272 1274 261 1257 q 305 1297 285 1292 q 348 1297 325 1303 q 393 1269 371 1290 l 554 1106 l 511 1046 z "},"Ỷ":{"ha":911,"x_min":0,"x_max":913,"o":"m 288 0 l 288 76 q 347 90 326 78 q 376 132 368 103 q 385 214 385 161 l 385 347 l 135 744 q 93 822 110 783 q 74 885 76 861 q 35 883 51 883 q 0 881 18 882 l 0 972 l 393 972 l 393 896 q 319 883 344 897 q 291 842 293 869 q 314 774 289 815 l 421 600 q 443 563 429 586 q 472 515 457 540 q 497 468 486 489 l 499 468 q 524 521 508 489 q 563 596 540 553 l 650 765 q 669 803 657 781 q 694 848 681 825 q 721 886 708 871 q 665 883 697 885 q 613 881 632 882 l 613 972 l 913 972 l 913 896 q 819 854 857 890 q 739 738 782 818 q 648 565 693 650 q 560 396 603 479 q 560 347 560 374 q 560 293 560 321 q 560 242 560 265 q 560 207 560 219 q 558 138 560 169 q 554 88 557 106 q 613 90 579 89 q 667 92 647 92 l 667 0 l 288 0 m 447 1057 q 465 1101 447 1085 q 501 1135 483 1118 q 519 1160 513 1146 q 525 1190 525 1174 q 506 1235 525 1218 q 454 1253 486 1253 q 403 1239 421 1253 q 382 1214 385 1225 q 405 1203 397 1213 q 413 1182 413 1194 q 400 1153 413 1165 q 365 1140 388 1140 q 321 1158 339 1140 q 303 1206 303 1176 q 320 1262 303 1235 q 372 1307 338 1289 q 454 1325 407 1325 q 577 1290 533 1325 q 621 1201 621 1256 q 603 1144 621 1165 q 563 1108 586 1124 q 535 1082 546 1094 q 524 1057 524 1069 l 447 1057 z "},"Ỹ":{"ha":911,"x_min":0,"x_max":913,"o":"m 288 0 l 288 76 q 347 90 326 78 q 376 132 368 103 q 385 214 385 161 l 385 347 l 135 744 q 93 822 110 783 q 74 885 76 861 q 35 883 51 883 q 0 881 18 882 l 0 972 l 393 972 l 393 896 q 319 883 344 897 q 291 842 293 869 q 314 774 289 815 l 421 600 q 443 563 429 586 q 472 515 457 540 q 497 468 486 489 l 499 468 q 524 521 508 489 q 563 596 540 553 l 650 765 q 669 803 657 781 q 694 848 681 825 q 721 886 708 871 q 665 883 697 885 q 613 881 632 882 l 613 972 l 913 972 l 913 896 q 819 854 857 890 q 739 738 782 818 q 648 565 693 650 q 560 396 603 479 q 560 347 560 374 q 560 293 560 321 q 560 242 560 265 q 560 207 560 219 q 558 138 560 169 q 554 88 557 106 q 613 90 579 89 q 667 92 647 92 l 667 0 l 288 0 m 717 1275 q 644 1160 690 1196 q 560 1124 599 1124 q 491 1139 519 1124 q 438 1169 463 1154 q 386 1185 414 1185 q 341 1172 367 1185 q 296 1126 315 1160 l 229 1165 q 296 1262 251 1224 q 385 1300 340 1300 q 456 1286 429 1301 q 504 1256 482 1271 q 560 1240 526 1240 q 609 1259 585 1240 q 650 1310 633 1278 l 717 1275 z "},"Z":{"ha":842,"x_min":57,"x_max":779,"o":"m 57 0 l 57 90 q 262 397 153 233 q 499 757 371 560 q 544 826 522 794 q 593 889 567 858 l 317 893 q 191 844 238 894 q 144 679 144 794 l 67 679 l 75 972 l 776 972 l 776 886 l 343 231 q 288 151 314 188 q 232 82 261 114 l 514 81 q 650 128 597 79 q 703 293 703 178 l 779 293 l 771 0 l 57 0 z "},"Ź":{"ha":842,"x_min":57,"x_max":779,"o":"m 57 0 l 57 90 q 262 397 153 233 q 499 757 371 560 q 544 826 522 794 q 593 889 567 858 l 317 893 q 191 844 238 894 q 144 679 144 794 l 67 679 l 75 972 l 776 972 l 776 886 l 343 231 q 288 151 314 188 q 232 82 261 114 l 514 81 q 650 128 597 79 q 703 293 703 178 l 779 293 l 771 0 l 57 0 m 379 1046 l 335 1106 l 496 1269 q 542 1297 518 1290 q 585 1297 565 1303 q 617 1274 606 1292 q 628 1235 629 1257 q 615 1193 628 1214 q 578 1157 603 1172 l 379 1046 z "},"Ž":{"ha":842,"x_min":57,"x_max":779,"o":"m 57 0 l 57 90 q 262 397 153 233 q 499 757 371 560 q 544 826 522 794 q 593 889 567 858 l 317 893 q 191 844 238 894 q 144 679 144 794 l 67 679 l 75 972 l 776 972 l 776 886 l 343 231 q 288 151 314 188 q 232 82 261 114 l 514 81 q 650 128 597 79 q 703 293 703 178 l 779 293 l 771 0 l 57 0 m 415 1069 l 150 1274 l 189 1332 l 432 1211 l 679 1335 l 713 1278 l 435 1069 l 415 1069 z "},"Ż":{"ha":842,"x_min":57,"x_max":779,"o":"m 57 0 l 57 90 q 262 397 153 233 q 499 757 371 560 q 544 826 522 794 q 593 889 567 858 l 317 893 q 191 844 238 894 q 144 679 144 794 l 67 679 l 75 972 l 776 972 l 776 886 l 343 231 q 288 151 314 188 q 232 82 261 114 l 514 81 q 650 128 597 79 q 703 293 703 178 l 779 293 l 771 0 l 57 0 m 433 1106 q 365 1135 393 1106 q 338 1208 338 1165 q 366 1282 338 1251 q 433 1313 394 1313 q 501 1282 474 1313 q 528 1208 528 1251 q 501 1135 528 1165 q 433 1106 475 1106 z "},"a":{"ha":724,"x_min":43,"x_max":697,"o":"m 457 0 q 452 35 453 21 q 450 69 451 50 q 349 0 403 22 q 239 -22 296 -22 q 94 29 144 -22 q 43 156 43 81 q 79 269 43 222 q 174 345 115 315 q 303 391 232 375 q 443 408 374 407 l 443 485 q 434 559 443 525 q 401 613 425 593 q 332 633 378 633 q 270 620 301 632 q 221 583 239 608 q 235 556 232 571 q 238 531 238 542 q 218 478 238 506 q 156 453 199 451 q 98 479 118 454 q 78 539 78 504 q 116 631 78 592 q 219 694 154 671 q 365 717 285 717 q 549 654 485 717 q 611 454 613 592 q 611 366 611 406 q 610 287 611 326 q 610 199 610 247 q 608 147 610 178 q 604 85 607 115 q 655 88 629 88 q 697 90 681 89 l 697 0 l 457 0 m 442 326 q 360 313 400 324 q 288 285 319 303 q 237 240 256 267 q 219 178 218 213 q 247 115 221 135 q 308 94 274 94 q 381 111 349 94 q 442 156 414 128 q 442 185 442 169 q 442 215 442 200 q 442 264 442 235 q 442 326 442 293 z "},"á":{"ha":724,"x_min":43,"x_max":697,"o":"m 457 0 q 452 35 453 21 q 450 69 451 50 q 349 0 403 22 q 239 -22 296 -22 q 94 29 144 -22 q 43 156 43 81 q 79 269 43 222 q 174 345 115 315 q 303 391 232 375 q 443 408 374 407 l 443 485 q 434 559 443 525 q 401 613 425 593 q 332 633 378 633 q 270 620 301 632 q 221 583 239 608 q 235 556 232 571 q 238 531 238 542 q 218 478 238 506 q 156 453 199 451 q 98 479 118 454 q 78 539 78 504 q 116 631 78 592 q 219 694 154 671 q 365 717 285 717 q 549 654 485 717 q 611 454 613 592 q 611 366 611 406 q 610 287 611 326 q 610 199 610 247 q 608 147 610 178 q 604 85 607 115 q 655 88 629 88 q 697 90 681 89 l 697 0 l 457 0 m 442 326 q 360 313 400 324 q 288 285 319 303 q 237 240 256 267 q 219 178 218 213 q 247 115 221 135 q 308 94 274 94 q 381 111 349 94 q 442 156 414 128 q 442 185 442 169 q 442 215 442 200 q 442 264 442 235 q 442 326 442 293 m 278 807 l 222 856 l 338 1047 q 375 1084 354 1074 q 417 1093 396 1094 q 454 1079 439 1092 q 475 1042 471 1064 q 472 998 479 1021 q 442 954 464 975 l 278 807 z "},"ă":{"ha":724,"x_min":43,"x_max":697,"o":"m 457 0 q 452 35 453 21 q 450 69 451 50 q 349 0 403 22 q 239 -22 296 -22 q 94 29 144 -22 q 43 156 43 81 q 79 269 43 222 q 174 345 115 315 q 303 391 232 375 q 443 408 374 407 l 443 485 q 434 559 443 525 q 401 613 425 593 q 332 633 378 633 q 270 620 301 632 q 221 583 239 608 q 235 556 232 571 q 238 531 238 542 q 218 478 238 506 q 156 453 199 451 q 98 479 118 454 q 78 539 78 504 q 116 631 78 592 q 219 694 154 671 q 365 717 285 717 q 549 654 485 717 q 611 454 613 592 q 611 366 611 406 q 610 287 611 326 q 610 199 610 247 q 608 147 610 178 q 604 85 607 115 q 655 88 629 88 q 697 90 681 89 l 697 0 l 457 0 m 442 326 q 360 313 400 324 q 288 285 319 303 q 237 240 256 267 q 219 178 218 213 q 247 115 221 135 q 308 94 274 94 q 381 111 349 94 q 442 156 414 128 q 442 185 442 169 q 442 215 442 200 q 442 264 442 235 q 442 326 442 293 m 346 850 q 268 867 308 850 q 194 924 228 885 q 139 1025 160 963 l 213 1063 q 269 994 235 1024 q 351 964 303 964 q 433 994 400 964 q 486 1064 467 1025 l 558 1032 q 469 893 524 936 q 346 850 415 850 z "},"ắ":{"ha":724,"x_min":43,"x_max":697,"o":"m 457 0 q 452 35 453 21 q 450 69 451 50 q 349 0 403 22 q 239 -22 296 -22 q 94 29 144 -22 q 43 156 43 81 q 79 269 43 222 q 174 345 115 315 q 303 391 232 375 q 443 408 374 407 l 443 485 q 434 559 443 525 q 401 613 425 593 q 332 633 378 633 q 270 620 301 632 q 221 583 239 608 q 235 556 232 571 q 238 531 238 542 q 218 478 238 506 q 156 453 199 451 q 98 479 118 454 q 78 539 78 504 q 116 631 78 592 q 219 694 154 671 q 365 717 285 717 q 549 654 485 717 q 611 454 613 592 q 611 366 611 406 q 610 287 611 326 q 610 199 610 247 q 608 147 610 178 q 604 85 607 115 q 655 88 629 88 q 697 90 681 89 l 697 0 l 457 0 m 442 326 q 360 313 400 324 q 288 285 319 303 q 237 240 256 267 q 219 178 218 213 q 247 115 221 135 q 308 94 274 94 q 381 111 349 94 q 442 156 414 128 q 442 185 442 169 q 442 215 442 200 q 442 264 442 235 q 442 326 442 293 m 346 775 q 268 792 308 775 q 194 848 228 810 q 139 949 160 886 l 213 986 q 269 917 235 947 q 351 888 303 888 q 433 918 400 888 q 485 988 465 949 l 558 956 q 469 817 524 860 q 346 775 415 775 m 354 972 l 299 1021 l 414 1213 q 451 1250 429 1239 q 494 1259 472 1261 q 531 1243 515 1257 q 552 1207 547 1229 q 549 1162 557 1185 q 518 1119 540 1139 l 354 972 z "},"ặ":{"ha":724,"x_min":43,"x_max":697,"o":"m 457 0 q 452 35 453 21 q 450 69 451 50 q 349 0 403 22 q 239 -22 296 -22 q 94 29 144 -22 q 43 156 43 81 q 79 269 43 222 q 174 345 115 315 q 303 391 232 375 q 443 408 374 407 l 443 485 q 434 559 443 525 q 401 613 425 593 q 332 633 378 633 q 270 620 301 632 q 221 583 239 608 q 235 556 232 571 q 238 531 238 542 q 218 478 238 506 q 156 453 199 451 q 98 479 118 454 q 78 539 78 504 q 116 631 78 592 q 219 694 154 671 q 365 717 285 717 q 549 654 485 717 q 611 454 613 592 q 611 366 611 406 q 610 287 611 326 q 610 199 610 247 q 608 147 610 178 q 604 85 607 115 q 655 88 629 88 q 697 90 681 89 l 697 0 l 457 0 m 442 326 q 360 313 400 324 q 288 285 319 303 q 237 240 256 267 q 219 178 218 213 q 247 115 221 135 q 308 94 274 94 q 381 111 349 94 q 442 156 414 128 q 442 185 442 169 q 442 215 442 200 q 442 264 442 235 q 442 326 442 293 m 364 -262 q 307 -237 329 -262 q 285 -178 285 -212 q 308 -118 285 -143 q 364 -93 332 -93 q 419 -118 397 -93 q 440 -178 440 -143 q 419 -237 440 -212 q 364 -262 397 -262 m 346 818 q 268 835 308 818 q 194 892 228 853 q 139 993 160 931 l 213 1031 q 269 962 235 992 q 351 932 303 932 q 433 963 400 932 q 486 1032 467 993 l 558 1000 q 469 861 524 904 q 346 818 415 818 z "},"ằ":{"ha":724,"x_min":43,"x_max":697,"o":"m 457 0 q 452 35 453 21 q 450 69 451 50 q 349 0 403 22 q 239 -22 296 -22 q 94 29 144 -22 q 43 156 43 81 q 79 269 43 222 q 174 345 115 315 q 303 391 232 375 q 443 408 374 407 l 443 485 q 434 559 443 525 q 401 613 425 593 q 332 633 378 633 q 270 620 301 632 q 221 583 239 608 q 235 556 232 571 q 238 531 238 542 q 218 478 238 506 q 156 453 199 451 q 98 479 118 454 q 78 539 78 504 q 116 631 78 592 q 219 694 154 671 q 365 717 285 717 q 549 654 485 717 q 611 454 613 592 q 611 366 611 406 q 610 287 611 326 q 610 199 610 247 q 608 147 610 178 q 604 85 607 115 q 655 88 629 88 q 697 90 681 89 l 697 0 l 457 0 m 442 326 q 360 313 400 324 q 288 285 319 303 q 237 240 256 267 q 219 178 218 213 q 247 115 221 135 q 308 94 274 94 q 381 111 349 94 q 442 156 414 128 q 442 185 442 169 q 442 215 442 200 q 442 264 442 235 q 442 326 442 293 m 350 965 l 186 1113 q 157 1156 165 1132 q 153 1201 149 1179 q 175 1238 158 1224 q 213 1252 192 1250 q 254 1244 233 1254 q 292 1207 275 1233 l 406 1014 l 350 965 m 347 771 q 269 788 310 771 q 195 844 229 806 q 140 946 161 883 l 214 983 q 270 915 236 944 q 353 885 304 885 q 434 915 401 885 q 486 985 467 946 l 560 953 q 471 814 525 857 q 347 771 417 771 z "},"ẳ":{"ha":724,"x_min":43,"x_max":697,"o":"m 457 0 q 452 35 453 21 q 450 69 451 50 q 349 0 403 22 q 239 -22 296 -22 q 94 29 144 -22 q 43 156 43 81 q 79 269 43 222 q 174 345 115 315 q 303 391 232 375 q 443 408 374 407 l 443 485 q 434 559 443 525 q 401 613 425 593 q 332 633 378 633 q 270 620 301 632 q 221 583 239 608 q 235 556 232 571 q 238 531 238 542 q 218 478 238 506 q 156 453 199 451 q 98 479 118 454 q 78 539 78 504 q 116 631 78 592 q 219 694 154 671 q 365 717 285 717 q 549 654 485 717 q 611 454 613 592 q 611 366 611 406 q 610 287 611 326 q 610 199 610 247 q 608 147 610 178 q 604 85 607 115 q 655 88 629 88 q 697 90 681 89 l 697 0 l 457 0 m 442 326 q 360 313 400 324 q 288 285 319 303 q 237 240 256 267 q 219 178 218 213 q 247 115 221 135 q 308 94 274 94 q 381 111 349 94 q 442 156 414 128 q 442 185 442 169 q 442 215 442 200 q 442 264 442 235 q 442 326 442 293 m 349 774 q 270 791 310 774 q 197 847 231 808 q 142 947 163 885 l 215 985 q 271 917 236 946 q 353 888 306 888 q 435 918 401 888 q 488 988 468 949 l 560 954 q 472 817 526 860 q 349 774 417 774 m 317 988 q 335 1031 317 1015 q 371 1065 353 1047 q 388 1090 382 1076 q 394 1119 394 1103 q 375 1166 394 1149 q 324 1183 356 1183 q 272 1169 290 1183 q 251 1144 254 1156 q 274 1133 267 1143 q 282 1111 282 1124 q 269 1083 282 1096 q 235 1071 257 1071 q 190 1089 208 1071 q 172 1136 172 1107 q 190 1192 172 1165 q 242 1238 207 1219 q 324 1256 276 1256 q 447 1220 403 1256 q 490 1132 490 1185 q 472 1075 490 1094 q 432 1039 453 1056 q 404 1013 415 1025 q 393 988 393 1000 l 317 988 z "},"ẵ":{"ha":724,"x_min":43,"x_max":697,"o":"m 457 0 q 452 35 453 21 q 450 69 451 50 q 349 0 403 22 q 239 -22 296 -22 q 94 29 144 -22 q 43 156 43 81 q 79 269 43 222 q 174 345 115 315 q 303 391 232 375 q 443 408 374 407 l 443 485 q 434 559 443 525 q 401 613 425 593 q 332 633 378 633 q 270 620 301 632 q 221 583 239 608 q 235 556 232 571 q 238 531 238 542 q 218 478 238 506 q 156 453 199 451 q 98 479 118 454 q 78 539 78 504 q 116 631 78 592 q 219 694 154 671 q 365 717 285 717 q 549 654 485 717 q 611 454 613 592 q 611 366 611 406 q 610 287 611 326 q 610 199 610 247 q 608 147 610 178 q 604 85 607 115 q 655 88 629 88 q 697 90 681 89 l 697 0 l 457 0 m 442 326 q 360 313 400 324 q 288 285 319 303 q 237 240 256 267 q 219 178 218 213 q 247 115 221 135 q 308 94 274 94 q 381 111 349 94 q 442 156 414 128 q 442 185 442 169 q 442 215 442 200 q 442 264 442 235 q 442 326 442 293 m 331 772 q 252 790 292 772 q 178 845 213 807 q 124 946 144 883 l 197 983 q 253 915 218 944 q 335 885 288 885 q 417 915 383 885 q 469 985 450 946 l 542 953 q 453 815 508 857 q 331 772 399 772 m 593 1179 q 520 1063 565 1099 q 435 1026 475 1026 q 367 1042 396 1026 q 315 1072 339 1057 q 263 1088 290 1088 q 217 1075 243 1088 q 171 1031 192 1063 l 106 1068 q 172 1165 128 1128 q 261 1204 217 1203 q 331 1189 304 1204 q 380 1159 357 1174 q 435 1144 403 1144 q 485 1163 461 1144 q 526 1213 508 1181 l 593 1179 z "},"ǎ":{"ha":724,"x_min":43,"x_max":697,"o":"m 457 0 q 452 35 453 21 q 450 69 451 50 q 349 0 403 22 q 239 -22 296 -22 q 94 29 144 -22 q 43 156 43 81 q 79 269 43 222 q 174 345 115 315 q 303 391 232 375 q 443 408 374 407 l 443 485 q 434 559 443 525 q 401 613 425 593 q 332 633 378 633 q 270 620 301 632 q 221 583 239 608 q 235 556 232 571 q 238 531 238 542 q 218 478 238 506 q 156 453 199 451 q 98 479 118 454 q 78 539 78 504 q 116 631 78 592 q 219 694 154 671 q 365 717 285 717 q 549 654 485 717 q 611 454 613 592 q 611 366 611 406 q 610 287 611 326 q 610 199 610 247 q 608 147 610 178 q 604 85 607 115 q 655 88 629 88 q 697 90 681 89 l 697 0 l 457 0 m 442 326 q 360 313 400 324 q 288 285 319 303 q 237 240 256 267 q 219 178 218 213 q 247 115 221 135 q 308 94 274 94 q 381 111 349 94 q 442 156 414 128 q 442 185 442 169 q 442 215 442 200 q 442 264 442 235 q 442 326 442 293 m 342 796 l 122 1028 l 175 1090 l 353 943 l 356 943 l 526 1092 l 578 1033 l 353 796 l 342 796 z "},"â":{"ha":724,"x_min":43,"x_max":697,"o":"m 457 0 q 452 35 453 21 q 450 69 451 50 q 349 0 403 22 q 239 -22 296 -22 q 94 29 144 -22 q 43 156 43 81 q 79 269 43 222 q 174 345 115 315 q 303 391 232 375 q 443 408 374 407 l 443 485 q 434 559 443 525 q 401 613 425 593 q 332 633 378 633 q 270 620 301 632 q 221 583 239 608 q 235 556 232 571 q 238 531 238 542 q 218 478 238 506 q 156 453 199 451 q 98 479 118 454 q 78 539 78 504 q 116 631 78 592 q 219 694 154 671 q 365 717 285 717 q 549 654 485 717 q 611 454 613 592 q 611 366 611 406 q 610 287 611 326 q 610 199 610 247 q 608 147 610 178 q 604 85 607 115 q 655 88 629 88 q 697 90 681 89 l 697 0 l 457 0 m 442 326 q 360 313 400 324 q 288 285 319 303 q 237 240 256 267 q 219 178 218 213 q 247 115 221 135 q 308 94 274 94 q 381 111 349 94 q 442 156 414 128 q 442 185 442 169 q 442 215 442 200 q 442 264 442 235 q 442 326 442 293 m 526 806 l 350 953 l 349 953 l 171 815 l 119 874 l 351 1100 l 363 1100 l 579 868 l 526 806 z "},"ấ":{"ha":724,"x_min":43,"x_max":783,"o":"m 457 0 q 452 35 453 21 q 450 69 451 50 q 349 0 403 22 q 239 -22 296 -22 q 94 29 144 -22 q 43 156 43 81 q 79 269 43 222 q 174 345 115 315 q 303 391 232 375 q 443 408 374 407 l 443 485 q 434 559 443 525 q 401 613 425 593 q 332 633 378 633 q 270 620 301 632 q 221 583 239 608 q 235 556 232 571 q 238 531 238 542 q 218 478 238 506 q 156 453 199 451 q 98 479 118 454 q 78 539 78 504 q 116 631 78 592 q 219 694 154 671 q 365 717 285 717 q 549 654 485 717 q 611 454 613 592 q 611 366 611 406 q 610 287 611 326 q 610 199 610 247 q 608 147 610 178 q 604 85 607 115 q 655 88 629 88 q 697 90 681 89 l 697 0 l 457 0 m 442 326 q 360 313 400 324 q 288 285 319 303 q 237 240 256 267 q 219 178 218 213 q 247 115 221 135 q 308 94 274 94 q 381 111 349 94 q 442 156 414 128 q 442 185 442 169 q 442 215 442 200 q 442 264 442 235 q 442 326 442 293 m 507 790 l 350 889 l 193 792 l 161 838 l 349 1006 l 363 1006 l 539 838 l 507 790 m 581 907 l 525 956 l 640 1147 q 677 1185 656 1174 q 720 1194 699 1196 q 757 1178 742 1192 q 778 1142 774 1164 q 775 1097 783 1119 q 744 1054 767 1074 l 581 907 z "},"ậ":{"ha":724,"x_min":43,"x_max":697,"o":"m 457 0 q 452 35 453 21 q 450 69 451 50 q 349 0 403 22 q 239 -22 296 -22 q 94 29 144 -22 q 43 156 43 81 q 79 269 43 222 q 174 345 115 315 q 303 391 232 375 q 443 408 374 407 l 443 485 q 434 559 443 525 q 401 613 425 593 q 332 633 378 633 q 270 620 301 632 q 221 583 239 608 q 235 556 232 571 q 238 531 238 542 q 218 478 238 506 q 156 453 199 451 q 98 479 118 454 q 78 539 78 504 q 116 631 78 592 q 219 694 154 671 q 365 717 285 717 q 549 654 485 717 q 611 454 613 592 q 611 366 611 406 q 610 287 611 326 q 610 199 610 247 q 608 147 610 178 q 604 85 607 115 q 655 88 629 88 q 697 90 681 89 l 697 0 l 457 0 m 442 326 q 360 313 400 324 q 288 285 319 303 q 237 240 256 267 q 219 178 218 213 q 247 115 221 135 q 308 94 274 94 q 381 111 349 94 q 442 156 414 128 q 442 185 442 169 q 442 215 442 200 q 442 264 442 235 q 442 326 442 293 m 364 -262 q 307 -237 329 -262 q 285 -178 285 -212 q 308 -118 285 -143 q 364 -93 332 -93 q 419 -118 397 -93 q 440 -178 440 -143 q 419 -237 440 -212 q 364 -262 397 -262 m 526 781 l 350 928 l 349 928 l 171 790 l 119 849 l 351 1075 l 363 1075 l 579 843 l 526 781 z "},"ầ":{"ha":724,"x_min":43,"x_max":697,"o":"m 457 0 q 452 35 453 21 q 450 69 451 50 q 349 0 403 22 q 239 -22 296 -22 q 94 29 144 -22 q 43 156 43 81 q 79 269 43 222 q 174 345 115 315 q 303 391 232 375 q 443 408 374 407 l 443 485 q 434 559 443 525 q 401 613 425 593 q 332 633 378 633 q 270 620 301 632 q 221 583 239 608 q 235 556 232 571 q 238 531 238 542 q 218 478 238 506 q 156 453 199 451 q 98 479 118 454 q 78 539 78 504 q 116 631 78 592 q 219 694 154 671 q 365 717 285 717 q 549 654 485 717 q 611 454 613 592 q 611 366 611 406 q 610 287 611 326 q 610 199 610 247 q 608 147 610 178 q 604 85 607 115 q 655 88 629 88 q 697 90 681 89 l 697 0 l 457 0 m 442 326 q 360 313 400 324 q 288 285 319 303 q 237 240 256 267 q 219 178 218 213 q 247 115 221 135 q 308 94 274 94 q 381 111 349 94 q 442 156 414 128 q 442 185 442 169 q 442 215 442 200 q 442 264 442 235 q 442 326 442 293 m 507 790 l 350 889 l 193 792 l 161 836 l 349 1006 l 363 1006 l 539 838 l 507 790 m 547 961 l 383 1108 q 354 1151 363 1128 q 351 1197 346 1175 q 372 1233 356 1219 q 410 1248 389 1246 q 451 1240 431 1250 q 489 1203 472 1229 l 603 1010 l 547 961 z "},"ẩ":{"ha":724,"x_min":43,"x_max":697,"o":"m 457 0 q 452 35 453 21 q 450 69 451 50 q 349 0 403 22 q 239 -22 296 -22 q 94 29 144 -22 q 43 156 43 81 q 79 269 43 222 q 174 345 115 315 q 303 391 232 375 q 443 408 374 407 l 443 485 q 434 559 443 525 q 401 613 425 593 q 332 633 378 633 q 270 620 301 632 q 221 583 239 608 q 235 556 232 571 q 238 531 238 542 q 218 478 238 506 q 156 453 199 451 q 98 479 118 454 q 78 539 78 504 q 116 631 78 592 q 219 694 154 671 q 365 717 285 717 q 549 654 485 717 q 611 454 613 592 q 611 366 611 406 q 610 287 611 326 q 610 199 610 247 q 608 147 610 178 q 604 85 607 115 q 655 88 629 88 q 697 90 681 89 l 697 0 l 457 0 m 442 326 q 360 313 400 324 q 288 285 319 303 q 237 240 256 267 q 219 178 218 213 q 247 115 221 135 q 308 94 274 94 q 381 111 349 94 q 442 156 414 128 q 442 185 442 169 q 442 215 442 200 q 442 264 442 235 q 442 326 442 293 m 507 790 l 351 889 l 193 792 l 163 836 l 349 1006 l 363 1006 l 540 838 l 507 790 m 514 964 q 532 1008 514 992 q 567 1040 550 1024 q 585 1065 578 1051 q 592 1096 592 1079 q 572 1142 592 1125 q 521 1158 551 1158 q 469 1145 486 1158 q 449 1119 451 1132 q 471 1109 463 1118 q 479 1088 479 1100 q 466 1060 479 1072 q 432 1047 453 1047 q 387 1065 406 1047 q 368 1111 368 1083 q 386 1168 368 1140 q 438 1213 404 1196 q 521 1231 472 1231 q 643 1196 600 1231 q 686 1107 686 1161 q 668 1051 686 1071 q 629 1014 650 1032 q 601 988 613 1001 q 590 964 590 975 l 514 964 z "},"ẫ":{"ha":724,"x_min":43,"x_max":697,"o":"m 457 0 q 452 35 453 21 q 450 69 451 50 q 349 0 403 22 q 239 -22 296 -22 q 94 29 144 -22 q 43 156 43 81 q 79 269 43 222 q 174 345 115 315 q 303 391 232 375 q 443 408 374 407 l 443 485 q 434 559 443 525 q 401 613 425 593 q 332 633 378 633 q 270 620 301 632 q 221 583 239 608 q 235 556 232 571 q 238 531 238 542 q 218 478 238 506 q 156 453 199 451 q 98 479 118 454 q 78 539 78 504 q 116 631 78 592 q 219 694 154 671 q 365 717 285 717 q 549 654 485 717 q 611 454 613 592 q 611 366 611 406 q 610 287 611 326 q 610 199 610 247 q 608 147 610 178 q 604 85 607 115 q 655 88 629 88 q 697 90 681 89 l 697 0 l 457 0 m 442 326 q 360 313 400 324 q 288 285 319 303 q 237 240 256 267 q 219 178 218 213 q 247 115 221 135 q 308 94 274 94 q 381 111 349 94 q 442 156 414 128 q 442 185 442 169 q 442 215 442 200 q 442 264 442 235 q 442 326 442 293 m 507 790 l 351 889 l 193 792 l 163 836 l 349 1006 l 364 1006 l 540 838 l 507 790 m 622 1174 q 551 1058 596 1094 q 465 1022 506 1022 q 398 1038 426 1022 q 344 1068 369 1053 q 293 1083 319 1083 q 248 1071 274 1083 q 201 1025 222 1058 l 136 1064 q 202 1160 157 1122 q 292 1199 247 1199 q 361 1185 335 1200 q 410 1154 388 1169 q 465 1139 433 1139 q 515 1158 492 1139 q 557 1208 539 1176 l 622 1174 z "},"ä":{"ha":724,"x_min":43,"x_max":697,"o":"m 457 0 q 452 35 453 21 q 450 69 451 50 q 349 0 403 22 q 239 -22 296 -22 q 94 29 144 -22 q 43 156 43 81 q 79 269 43 222 q 174 345 115 315 q 303 391 232 375 q 443 408 374 407 l 443 485 q 434 559 443 525 q 401 613 425 593 q 332 633 378 633 q 270 620 301 632 q 221 583 239 608 q 235 556 232 571 q 238 531 238 542 q 218 478 238 506 q 156 453 199 451 q 98 479 118 454 q 78 539 78 504 q 116 631 78 592 q 219 694 154 671 q 365 717 285 717 q 549 654 485 717 q 611 454 613 592 q 611 366 611 406 q 610 287 611 326 q 610 199 610 247 q 608 147 610 178 q 604 85 607 115 q 655 88 629 88 q 697 90 681 89 l 697 0 l 457 0 m 442 326 q 360 313 400 324 q 288 285 319 303 q 237 240 256 267 q 219 178 218 213 q 247 115 221 135 q 308 94 274 94 q 381 111 349 94 q 442 156 414 128 q 442 185 442 169 q 442 215 442 200 q 442 264 442 235 q 442 326 442 293 m 467 854 q 408 882 433 854 q 383 950 383 910 q 409 1019 383 990 q 468 1049 435 1049 q 529 1019 506 1049 q 553 950 553 990 q 527 882 553 910 q 467 854 501 854 m 229 854 q 169 882 194 854 q 144 950 144 910 q 170 1019 144 990 q 229 1049 196 1049 q 290 1019 267 1049 q 314 950 314 990 q 288 882 314 910 q 229 854 263 854 z "},"ạ":{"ha":724,"x_min":43,"x_max":697,"o":"m 457 0 q 452 35 453 21 q 450 69 451 50 q 349 0 403 22 q 239 -22 296 -22 q 94 29 144 -22 q 43 156 43 81 q 79 269 43 222 q 174 345 115 315 q 303 391 232 375 q 443 408 374 407 l 443 485 q 434 559 443 525 q 401 613 425 593 q 332 633 378 633 q 270 620 301 632 q 221 583 239 608 q 235 556 232 571 q 238 531 238 542 q 218 478 238 506 q 156 453 199 451 q 98 479 118 454 q 78 539 78 504 q 116 631 78 592 q 219 694 154 671 q 365 717 285 717 q 549 654 485 717 q 611 454 613 592 q 611 366 611 406 q 610 287 611 326 q 610 199 610 247 q 608 147 610 178 q 604 85 607 115 q 655 88 629 88 q 697 90 681 89 l 697 0 l 457 0 m 442 326 q 360 313 400 324 q 288 285 319 303 q 237 240 256 267 q 219 178 218 213 q 247 115 221 135 q 308 94 274 94 q 381 111 349 94 q 442 156 414 128 q 442 185 442 169 q 442 215 442 200 q 442 264 442 235 q 442 326 442 293 m 364 -262 q 307 -237 329 -262 q 285 -178 285 -212 q 308 -118 285 -143 q 364 -93 332 -93 q 419 -118 397 -93 q 440 -178 440 -143 q 419 -237 440 -212 q 364 -262 397 -262 z "},"à":{"ha":724,"x_min":43,"x_max":697,"o":"m 457 0 q 452 35 453 21 q 450 69 451 50 q 349 0 403 22 q 239 -22 296 -22 q 94 29 144 -22 q 43 156 43 81 q 79 269 43 222 q 174 345 115 315 q 303 391 232 375 q 443 408 374 407 l 443 485 q 434 559 443 525 q 401 613 425 593 q 332 633 378 633 q 270 620 301 632 q 221 583 239 608 q 235 556 232 571 q 238 531 238 542 q 218 478 238 506 q 156 453 199 451 q 98 479 118 454 q 78 539 78 504 q 116 631 78 592 q 219 694 154 671 q 365 717 285 717 q 549 654 485 717 q 611 454 613 592 q 611 366 611 406 q 610 287 611 326 q 610 199 610 247 q 608 147 610 178 q 604 85 607 115 q 655 88 629 88 q 697 90 681 89 l 697 0 l 457 0 m 442 326 q 360 313 400 324 q 288 285 319 303 q 237 240 256 267 q 219 178 218 213 q 247 115 221 135 q 308 94 274 94 q 381 111 349 94 q 442 156 414 128 q 442 185 442 169 q 442 215 442 200 q 442 264 442 235 q 442 326 442 293 m 422 807 l 258 954 q 228 998 238 975 q 224 1042 219 1021 q 246 1079 229 1064 q 283 1093 263 1092 q 326 1084 304 1094 q 363 1047 347 1074 l 478 856 l 422 807 z "},"ả":{"ha":724,"x_min":43,"x_max":697,"o":"m 457 0 q 452 35 453 21 q 450 69 451 50 q 349 0 403 22 q 239 -22 296 -22 q 94 29 144 -22 q 43 156 43 81 q 79 269 43 222 q 174 345 115 315 q 303 391 232 375 q 443 408 374 407 l 443 485 q 434 559 443 525 q 401 613 425 593 q 332 633 378 633 q 270 620 301 632 q 221 583 239 608 q 235 556 232 571 q 238 531 238 542 q 218 478 238 506 q 156 453 199 451 q 98 479 118 454 q 78 539 78 504 q 116 631 78 592 q 219 694 154 671 q 365 717 285 717 q 549 654 485 717 q 611 454 613 592 q 611 366 611 406 q 610 287 611 326 q 610 199 610 247 q 608 147 610 178 q 604 85 607 115 q 655 88 629 88 q 697 90 681 89 l 697 0 l 457 0 m 442 326 q 360 313 400 324 q 288 285 319 303 q 237 240 256 267 q 219 178 218 213 q 247 115 221 135 q 308 94 274 94 q 381 111 349 94 q 442 156 414 128 q 442 185 442 169 q 442 215 442 200 q 442 264 442 235 q 442 326 442 293 m 324 794 q 342 839 324 822 q 378 872 360 856 q 395 897 389 883 q 401 928 401 911 q 382 973 401 956 q 331 990 363 990 q 279 976 297 990 q 258 951 261 963 q 281 941 274 950 q 289 919 289 932 q 276 890 289 903 q 242 878 264 878 q 197 896 215 878 q 179 943 179 914 q 197 999 179 972 q 249 1044 214 1026 q 331 1063 283 1063 q 453 1028 410 1063 q 497 939 497 993 q 480 882 497 903 q 439 846 463 861 q 411 819 422 832 q 400 794 400 807 l 324 794 z "},"ā":{"ha":724,"x_min":43,"x_max":697,"o":"m 457 0 q 452 35 453 21 q 450 69 451 50 q 349 0 403 22 q 239 -22 296 -22 q 94 29 144 -22 q 43 156 43 81 q 79 269 43 222 q 174 345 115 315 q 303 391 232 375 q 443 408 374 407 l 443 485 q 434 559 443 525 q 401 613 425 593 q 332 633 378 633 q 270 620 301 632 q 221 583 239 608 q 235 556 232 571 q 238 531 238 542 q 218 478 238 506 q 156 453 199 451 q 98 479 118 454 q 78 539 78 504 q 116 631 78 592 q 219 694 154 671 q 365 717 285 717 q 549 654 485 717 q 611 454 613 592 q 611 366 611 406 q 610 287 611 326 q 610 199 610 247 q 608 147 610 178 q 604 85 607 115 q 655 88 629 88 q 697 90 681 89 l 697 0 l 457 0 m 442 326 q 360 313 400 324 q 288 285 319 303 q 237 240 256 267 q 219 178 218 213 q 247 115 221 135 q 308 94 274 94 q 381 111 349 94 q 442 156 414 128 q 442 185 442 169 q 442 215 442 200 q 442 264 442 235 q 442 326 442 293 m 157 892 l 157 1008 l 543 1008 l 543 897 l 157 892 z "},"ą":{"ha":724,"x_min":43,"x_max":697,"o":"m 457 0 q 452 35 453 21 q 450 69 451 50 q 349 0 403 22 q 239 -22 296 -22 q 94 29 144 -22 q 43 156 43 81 q 79 269 43 222 q 174 345 115 315 q 303 391 232 375 q 443 408 374 407 l 443 485 q 434 559 443 525 q 401 613 425 593 q 332 633 378 633 q 270 620 301 632 q 221 583 239 608 q 235 556 232 571 q 238 531 238 542 q 218 478 238 506 q 156 453 199 451 q 98 479 118 454 q 78 539 78 504 q 116 631 78 592 q 219 694 154 671 q 365 717 285 717 q 549 654 485 717 q 611 454 613 592 q 611 366 611 406 q 610 287 611 326 q 610 199 610 247 q 608 147 610 178 q 604 85 607 115 q 655 88 629 88 q 697 90 681 89 l 697 0 l 457 0 m 442 326 q 360 313 400 324 q 288 285 319 303 q 237 240 256 267 q 219 178 218 213 q 247 115 221 135 q 308 94 274 94 q 381 111 349 94 q 442 156 414 128 q 442 185 442 169 q 442 215 442 200 q 442 264 442 235 q 442 326 442 293 m 496 -358 q 388 -321 429 -358 q 346 -215 346 -283 q 391 -98 346 -153 q 507 -2 436 -43 q 654 61 578 39 l 654 7 q 567 -39 610 -11 q 500 -103 525 -67 q 475 -181 475 -139 q 496 -231 476 -211 q 544 -250 515 -250 q 589 -239 567 -250 q 632 -210 611 -228 l 672 -258 q 593 -329 640 -300 q 496 -358 546 -358 z "},"å":{"ha":724,"x_min":43,"x_max":697,"o":"m 457 0 q 452 35 453 21 q 450 69 451 50 q 349 0 403 22 q 239 -22 296 -22 q 94 29 144 -22 q 43 156 43 81 q 79 269 43 222 q 174 345 115 315 q 303 391 232 375 q 443 408 374 407 l 443 485 q 434 559 443 525 q 401 613 425 593 q 332 633 378 633 q 270 620 301 632 q 221 583 239 608 q 235 556 232 571 q 238 531 238 542 q 218 478 238 506 q 156 453 199 451 q 98 479 118 454 q 78 539 78 504 q 116 631 78 592 q 219 694 154 671 q 365 717 285 717 q 549 654 485 717 q 611 454 613 592 q 611 366 611 406 q 610 287 611 326 q 610 199 610 247 q 608 147 610 178 q 604 85 607 115 q 655 88 629 88 q 697 90 681 89 l 697 0 l 457 0 m 442 326 q 360 313 400 324 q 288 285 319 303 q 237 240 256 267 q 219 178 218 213 q 247 115 221 135 q 308 94 274 94 q 381 111 349 94 q 442 156 414 128 q 442 185 442 169 q 442 215 442 200 q 442 264 442 235 q 442 326 442 293 m 350 800 q 278 817 314 800 q 220 866 243 833 q 194 946 197 899 q 215 1027 193 992 q 272 1083 236 1063 q 349 1104 308 1104 q 421 1088 386 1104 q 479 1041 456 1072 q 504 960 503 1010 q 483 876 506 911 q 424 820 460 840 q 350 800 389 800 m 357 871 q 391 891 376 872 q 406 943 406 910 q 390 1012 406 989 q 347 1033 374 1035 q 311 1015 326 1032 q 296 961 296 997 q 313 895 296 919 q 357 871 329 871 z "},"ã":{"ha":724,"x_min":43,"x_max":697,"o":"m 457 0 q 452 35 453 21 q 450 69 451 50 q 349 0 403 22 q 239 -22 296 -22 q 94 29 144 -22 q 43 156 43 81 q 79 269 43 222 q 174 345 115 315 q 303 391 232 375 q 443 408 374 407 l 443 485 q 434 559 443 525 q 401 613 425 593 q 332 633 378 633 q 270 620 301 632 q 221 583 239 608 q 235 556 232 571 q 238 531 238 542 q 218 478 238 506 q 156 453 199 451 q 98 479 118 454 q 78 539 78 504 q 116 631 78 592 q 219 694 154 671 q 365 717 285 717 q 549 654 485 717 q 611 454 613 592 q 611 366 611 406 q 610 287 611 326 q 610 199 610 247 q 608 147 610 178 q 604 85 607 115 q 655 88 629 88 q 697 90 681 89 l 697 0 l 457 0 m 442 326 q 360 313 400 324 q 288 285 319 303 q 237 240 256 267 q 219 178 218 213 q 247 115 221 135 q 308 94 274 94 q 381 111 349 94 q 442 156 414 128 q 442 185 442 169 q 442 215 442 200 q 442 264 442 235 q 442 326 442 293 m 593 1013 q 521 897 567 933 q 436 861 475 861 q 367 876 396 861 q 315 907 339 892 q 263 922 290 922 q 217 910 243 922 q 172 864 192 897 l 106 903 q 172 999 128 961 q 261 1038 217 1038 q 332 1024 306 1039 q 381 993 358 1008 q 436 978 403 978 q 485 997 461 978 q 526 1047 510 1015 l 593 1013 z "},"æ":{"ha":1072,"x_min":43,"x_max":1035,"o":"m 238 -22 q 95 28 147 -22 q 43 154 43 79 q 78 267 43 221 q 173 344 114 314 q 302 389 232 374 q 442 406 372 404 l 442 485 q 433 560 442 525 q 400 615 424 594 q 332 633 376 635 q 267 620 299 633 q 219 582 236 607 q 234 555 231 571 q 238 529 238 539 q 218 478 238 506 q 154 453 199 451 q 99 478 119 453 q 78 538 78 503 q 113 627 78 586 q 210 692 147 668 q 353 717 272 717 q 473 689 424 717 q 543 599 522 661 q 634 688 582 660 q 764 717 686 717 q 886 684 829 717 q 979 580 943 651 q 1014 386 1015 508 l 611 378 q 626 223 608 289 q 684 120 643 157 q 792 83 725 83 q 891 110 842 83 q 983 192 940 136 l 1035 143 q 941 40 990 76 q 842 -9 892 4 q 746 -22 793 -22 q 609 11 667 -22 q 514 100 551 44 q 382 3 454 28 q 238 -22 310 -22 m 306 94 q 385 111 349 93 q 450 161 421 129 q 447 213 449 185 q 443 270 444 242 q 442 325 442 299 q 359 311 400 321 q 286 283 318 301 q 235 238 254 265 q 218 176 217 211 q 247 115 219 133 q 306 94 275 96 m 619 461 l 850 461 q 837 555 849 517 q 802 613 825 593 q 747 633 779 633 q 678 610 704 633 q 638 547 651 586 q 619 461 625 508 z "},"b":{"ha":800,"x_min":0,"x_max":751,"o":"m 93 813 q 94 865 93 836 q 97 924 94 893 q 47 921 75 922 q 0 918 18 919 l 0 1008 q 104 1015 64 1008 q 167 1031 144 1021 q 200 1049 190 1040 l 264 1049 l 264 639 q 358 699 308 681 q 458 717 408 717 q 610 674 544 717 q 714 551 676 631 q 751 365 751 472 q 707 164 751 251 q 585 27 663 76 q 406 -22 507 -22 q 308 -6 365 -22 q 203 61 250 11 l 164 0 l 93 0 l 93 813 m 264 211 q 282 124 264 156 q 328 78 300 92 q 386 64 357 65 q 490 101 450 64 q 548 202 529 139 q 567 339 567 265 q 549 476 567 414 q 493 574 531 538 q 394 611 456 611 q 322 592 357 610 q 264 544 288 574 l 264 211 z "},"c":{"ha":726,"x_min":47,"x_max":699,"o":"m 390 -22 q 219 19 297 -22 q 94 141 140 61 q 47 333 47 221 q 74 478 47 410 q 148 601 100 547 q 263 685 196 654 q 410 717 329 717 q 553 691 494 717 q 642 623 611 665 q 672 533 672 581 q 651 468 672 496 q 589 439 629 440 q 523 466 542 438 q 504 519 504 494 q 508 549 504 533 q 522 579 513 565 q 490 616 513 604 q 444 632 468 628 q 407 635 421 636 q 281 565 331 632 q 231 371 231 499 q 252 230 231 294 q 318 126 274 165 q 432 85 363 86 q 550 115 493 83 q 643 196 607 146 l 699 144 q 600 43 653 79 q 494 -8 547 7 q 390 -22 440 -22 z "},"ć":{"ha":726,"x_min":47,"x_max":699,"o":"m 390 -22 q 219 19 297 -22 q 94 141 140 61 q 47 333 47 221 q 74 478 47 410 q 148 601 100 547 q 263 685 196 654 q 410 717 329 717 q 553 691 494 717 q 642 623 611 665 q 672 533 672 581 q 651 468 672 496 q 589 439 629 440 q 523 466 542 438 q 504 519 504 494 q 508 549 504 533 q 522 579 513 565 q 490 616 513 604 q 444 632 468 628 q 407 635 421 636 q 281 565 331 632 q 231 371 231 499 q 252 230 231 294 q 318 126 274 165 q 432 85 363 86 q 550 115 493 83 q 643 196 607 146 l 699 144 q 600 43 653 79 q 494 -8 547 7 q 390 -22 440 -22 m 340 792 l 285 840 l 400 1032 q 438 1069 417 1058 q 480 1078 458 1079 q 517 1064 501 1076 q 538 1027 533 1049 q 534 983 542 1006 q 504 939 526 960 l 340 792 z "},"č":{"ha":726,"x_min":47,"x_max":699,"o":"m 390 -22 q 219 19 297 -22 q 94 141 140 61 q 47 333 47 221 q 74 478 47 410 q 148 601 100 547 q 263 685 196 654 q 410 717 329 717 q 553 691 494 717 q 642 623 611 665 q 672 533 672 581 q 651 468 672 496 q 589 439 629 440 q 523 466 542 438 q 504 519 504 494 q 508 549 504 533 q 522 579 513 565 q 490 616 513 604 q 444 632 468 628 q 407 635 421 636 q 281 565 331 632 q 231 371 231 499 q 252 230 231 294 q 318 126 274 165 q 432 85 363 86 q 550 115 493 83 q 643 196 607 146 l 699 144 q 600 43 653 79 q 494 -8 547 7 q 390 -22 440 -22 m 404 781 l 185 1013 l 238 1075 l 415 928 l 418 928 l 589 1076 l 640 1018 l 415 781 l 404 781 z "},"ç":{"ha":726,"x_min":47,"x_max":699,"o":"m 390 -22 q 219 19 297 -22 q 94 141 140 61 q 47 333 47 221 q 74 478 47 410 q 148 601 100 547 q 263 685 196 654 q 410 717 329 717 q 553 691 494 717 q 642 623 611 665 q 672 533 672 581 q 651 468 672 496 q 589 439 629 440 q 523 466 542 438 q 504 519 504 494 q 508 549 504 533 q 522 579 513 565 q 490 616 513 604 q 444 632 468 628 q 407 635 421 636 q 281 565 331 632 q 231 371 231 499 q 252 230 231 294 q 318 126 274 165 q 432 85 363 86 q 550 115 493 83 q 643 196 607 146 l 699 144 q 600 43 653 79 q 494 -8 547 7 q 390 -22 440 -22 m 343 -351 l 333 -287 q 385 -276 357 -283 q 440 -258 414 -269 q 483 -231 465 -246 q 500 -194 500 -215 q 482 -162 500 -169 q 440 -160 464 -154 q 401 -176 417 -165 l 351 -154 l 393 13 l 490 13 l 451 -99 q 498 -81 469 -87 q 546 -75 526 -75 q 617 -100 590 -76 q 644 -171 644 -124 q 613 -249 644 -217 q 533 -301 581 -281 q 433 -334 485 -322 q 343 -351 382 -346 z "},"ĉ":{"ha":726,"x_min":47,"x_max":699,"o":"m 390 -22 q 219 19 297 -22 q 94 141 140 61 q 47 333 47 221 q 74 478 47 410 q 148 601 100 547 q 263 685 196 654 q 410 717 329 717 q 553 691 494 717 q 642 623 611 665 q 672 533 672 581 q 651 468 672 496 q 589 439 629 440 q 523 466 542 438 q 504 519 504 494 q 508 549 504 533 q 522 579 513 565 q 490 616 513 604 q 444 632 468 628 q 407 635 421 636 q 281 565 331 632 q 231 371 231 499 q 252 230 231 294 q 318 126 274 165 q 432 85 363 86 q 550 115 493 83 q 643 196 607 146 l 699 144 q 600 43 653 79 q 494 -8 547 7 q 390 -22 440 -22 m 589 790 l 413 938 l 411 938 l 233 800 l 182 858 l 414 1085 l 425 1085 l 642 853 l 589 790 z "},"ċ":{"ha":726,"x_min":47,"x_max":699,"o":"m 390 -22 q 219 19 297 -22 q 94 141 140 61 q 47 333 47 221 q 74 478 47 410 q 148 601 100 547 q 263 685 196 654 q 410 717 329 717 q 553 691 494 717 q 642 623 611 665 q 672 533 672 581 q 651 468 672 496 q 589 439 629 440 q 523 466 542 438 q 504 519 504 494 q 508 549 504 533 q 522 579 513 565 q 490 616 513 604 q 444 632 468 628 q 407 635 421 636 q 281 565 331 632 q 231 371 231 499 q 252 230 231 294 q 318 126 274 165 q 432 85 363 86 q 550 115 493 83 q 643 196 607 146 l 699 144 q 600 43 653 79 q 494 -8 547 7 q 390 -22 440 -22 m 414 828 q 346 858 374 828 q 318 931 318 888 q 347 1004 318 974 q 414 1035 375 1035 q 481 1004 454 1035 q 508 931 508 974 q 482 858 508 888 q 414 828 456 828 z "},"d":{"ha":829,"x_min":49,"x_max":792,"o":"m 336 -22 q 188 21 253 -22 q 85 143 122 64 q 49 329 49 222 q 93 529 49 442 q 216 667 138 617 q 397 717 294 717 q 473 708 438 717 q 535 688 508 699 l 535 811 q 535 863 535 832 q 539 924 536 893 q 488 921 517 922 q 440 918 460 919 l 440 1008 q 544 1015 504 1008 q 608 1031 585 1021 q 640 1049 631 1040 l 704 1049 l 704 199 q 703 147 704 178 q 699 85 701 115 q 748 88 722 88 q 792 90 774 89 l 792 0 l 550 0 q 545 34 547 17 q 540 67 543 51 q 446 -1 497 21 q 336 -22 394 -22 m 401 85 q 476 106 440 85 q 535 160 513 128 q 533 199 533 179 q 533 240 533 219 l 535 596 q 482 622 514 613 q 417 631 450 631 q 310 590 351 629 q 251 486 269 550 q 233 347 232 422 q 251 219 233 279 q 306 122 269 160 q 401 85 343 85 z "},"ð":{"ha":761,"x_min":50,"x_max":692,"o":"m 363 -22 q 205 17 275 -22 q 94 131 135 56 q 50 311 53 206 q 69 448 50 381 q 127 569 88 515 q 225 656 167 624 q 361 689 283 688 q 437 678 394 690 q 510 632 479 665 l 511 632 q 473 722 500 675 q 408 810 446 768 q 331 879 371 853 l 249 778 l 176 842 l 249 926 q 188 952 221 942 q 117 968 154 963 l 132 1056 q 235 1038 189 1051 q 317 1007 282 1024 l 389 1099 l 457 1038 l 397 965 q 553 820 488 910 q 655 617 618 731 q 692 376 692 504 q 656 176 692 267 q 548 32 621 86 q 363 -22 475 -22 m 376 75 q 453 103 418 75 q 510 188 489 132 q 531 328 531 244 q 524 417 531 371 q 499 504 517 464 q 451 570 481 544 q 381 597 422 596 q 296 562 331 597 q 243 468 261 526 q 225 342 225 410 q 269 144 225 214 q 376 75 314 75 z "},"ď":{"ha":947,"x_min":49,"x_max":963,"o":"m 838 760 l 790 796 q 835 906 824 857 q 843 999 846 956 q 828 1086 840 1043 l 942 1064 q 959 1020 956 1039 q 960 974 963 1001 q 919 860 954 917 q 838 760 885 804 m 336 -22 q 188 21 253 -22 q 85 143 122 64 q 49 329 49 222 q 93 529 49 442 q 216 667 138 617 q 397 717 294 717 q 473 708 438 717 q 535 688 508 699 l 535 811 q 535 863 535 832 q 539 924 536 893 q 488 921 517 922 q 440 918 460 919 l 440 1008 q 544 1015 504 1008 q 608 1031 585 1021 q 640 1049 631 1040 l 704 1049 l 704 199 q 703 147 704 178 q 699 85 701 115 q 748 88 722 88 q 792 90 774 89 l 792 0 l 550 0 q 545 34 547 17 q 540 67 543 51 q 446 -1 497 21 q 336 -22 394 -22 m 401 85 q 476 106 440 85 q 535 160 513 128 q 533 199 533 179 q 533 240 533 219 l 535 596 q 482 622 514 613 q 417 631 450 631 q 310 590 351 629 q 251 486 269 550 q 233 347 232 422 q 251 219 233 279 q 306 122 269 160 q 401 85 343 85 z "},"đ":{"ha":829,"x_min":49,"x_max":811,"o":"m 336 -22 q 188 19 253 -22 q 85 135 122 61 q 49 301 49 208 q 93 493 49 410 q 216 624 138 576 q 397 671 294 671 q 473 662 438 671 q 535 642 508 653 l 535 811 q 535 863 535 832 q 539 924 536 893 q 488 921 517 922 q 440 918 460 919 l 440 1008 q 544 1015 504 1008 q 608 1031 585 1021 q 640 1049 631 1040 l 704 1049 l 704 199 q 703 147 704 178 q 699 85 701 115 q 748 88 722 88 q 792 90 774 89 l 792 0 l 550 0 q 545 34 547 17 q 540 67 543 51 q 446 -1 497 21 q 336 -22 394 -22 m 401 85 q 476 106 440 85 q 535 160 513 128 q 533 208 533 183 q 533 260 533 233 l 535 551 q 482 576 514 567 q 417 585 450 585 q 314 549 356 585 q 252 454 272 514 q 233 319 232 394 q 251 199 233 251 q 306 115 269 146 q 401 85 343 85 m 308 754 l 308 847 l 811 847 l 811 760 l 308 754 z "},"e":{"ha":749,"x_min":49,"x_max":706,"o":"m 390 -22 q 213 23 290 -22 q 92 151 135 68 q 49 346 49 233 q 92 528 49 443 q 213 665 135 613 q 396 717 292 717 q 508 700 454 717 q 606 644 563 683 q 674 542 649 606 q 699 386 700 478 l 232 378 q 252 226 232 292 q 318 122 272 160 q 439 83 364 83 q 510 95 472 83 q 586 131 549 107 q 653 192 624 156 l 706 143 q 604 40 660 76 q 493 -9 549 4 q 390 -22 438 -22 m 239 461 l 528 461 q 512 555 526 517 q 469 613 497 593 q 401 633 442 633 q 292 588 333 633 q 239 461 251 543 z "},"é":{"ha":749,"x_min":49,"x_max":706,"o":"m 390 -22 q 213 23 290 -22 q 92 151 135 68 q 49 346 49 233 q 92 528 49 443 q 213 665 135 613 q 396 717 292 717 q 508 700 454 717 q 606 644 563 683 q 674 542 649 606 q 699 386 700 478 l 232 378 q 252 226 232 292 q 318 122 272 160 q 439 83 364 83 q 510 95 472 83 q 586 131 549 107 q 653 192 624 156 l 706 143 q 604 40 660 76 q 493 -9 549 4 q 390 -22 438 -22 m 239 461 l 528 461 q 512 555 526 517 q 469 613 497 593 q 401 633 442 633 q 292 588 333 633 q 239 461 251 543 m 321 792 l 265 840 l 381 1032 q 418 1069 397 1058 q 460 1078 439 1079 q 497 1064 482 1076 q 518 1027 514 1049 q 515 983 522 1006 q 485 939 507 960 l 321 792 z "},"ĕ":{"ha":749,"x_min":49,"x_max":706,"o":"m 390 -22 q 213 23 290 -22 q 92 151 135 68 q 49 346 49 233 q 92 528 49 443 q 213 665 135 613 q 396 717 292 717 q 508 700 454 717 q 606 644 563 683 q 674 542 649 606 q 699 386 700 478 l 232 378 q 252 226 232 292 q 318 122 272 160 q 439 83 364 83 q 510 95 472 83 q 586 131 549 107 q 653 192 624 156 l 706 143 q 604 40 660 76 q 493 -9 549 4 q 390 -22 438 -22 m 239 461 l 528 461 q 512 555 526 517 q 469 613 497 593 q 401 633 442 633 q 292 588 333 633 q 239 461 251 543 m 389 835 q 311 852 351 835 q 237 908 271 869 q 182 1010 203 947 l 256 1047 q 312 978 278 1008 q 394 949 346 949 q 476 979 443 949 q 529 1049 510 1010 l 601 1017 q 513 878 567 921 q 389 835 458 835 z "},"ě":{"ha":749,"x_min":49,"x_max":706,"o":"m 390 -22 q 213 23 290 -22 q 92 151 135 68 q 49 346 49 233 q 92 528 49 443 q 213 665 135 613 q 396 717 292 717 q 508 700 454 717 q 606 644 563 683 q 674 542 649 606 q 699 386 700 478 l 232 378 q 252 226 232 292 q 318 122 272 160 q 439 83 364 83 q 510 95 472 83 q 586 131 549 107 q 653 192 624 156 l 706 143 q 604 40 660 76 q 493 -9 549 4 q 390 -22 438 -22 m 239 461 l 528 461 q 512 555 526 517 q 469 613 497 593 q 401 633 442 633 q 292 588 333 633 q 239 461 251 543 m 385 781 l 165 1013 l 218 1075 l 396 928 l 399 928 l 569 1076 l 621 1018 l 396 781 l 385 781 z "},"ê":{"ha":749,"x_min":49,"x_max":706,"o":"m 390 -22 q 213 23 290 -22 q 92 151 135 68 q 49 346 49 233 q 92 528 49 443 q 213 665 135 613 q 396 717 292 717 q 508 700 454 717 q 606 644 563 683 q 674 542 649 606 q 699 386 700 478 l 232 378 q 252 226 232 292 q 318 122 272 160 q 439 83 364 83 q 510 95 472 83 q 586 131 549 107 q 653 192 624 156 l 706 143 q 604 40 660 76 q 493 -9 549 4 q 390 -22 438 -22 m 239 461 l 528 461 q 512 555 526 517 q 469 613 497 593 q 401 633 442 633 q 292 588 333 633 q 239 461 251 543 m 569 790 l 393 938 l 392 938 l 214 800 l 163 858 l 394 1085 l 406 1085 l 622 853 l 569 790 z "},"ế":{"ha":749,"x_min":49,"x_max":826,"o":"m 390 -22 q 213 23 290 -22 q 92 151 135 68 q 49 346 49 233 q 92 528 49 443 q 213 665 135 613 q 396 717 292 717 q 508 700 454 717 q 606 644 563 683 q 674 542 649 606 q 699 386 700 478 l 232 378 q 252 226 232 292 q 318 122 272 160 q 439 83 364 83 q 510 95 472 83 q 586 131 549 107 q 653 192 624 156 l 706 143 q 604 40 660 76 q 493 -9 549 4 q 390 -22 438 -22 m 239 461 l 528 461 q 512 555 526 517 q 469 613 497 593 q 401 633 442 633 q 292 588 333 633 q 239 461 251 543 m 550 775 l 393 874 l 236 776 l 204 822 l 392 990 l 406 990 l 582 822 l 550 775 m 624 892 l 568 940 l 683 1132 q 720 1169 699 1158 q 763 1178 742 1181 q 800 1163 785 1176 q 822 1126 817 1149 q 818 1081 826 1104 q 788 1039 810 1058 l 624 892 z "},"ệ":{"ha":749,"x_min":49,"x_max":706,"o":"m 390 -22 q 213 23 290 -22 q 92 151 135 68 q 49 346 49 233 q 92 528 49 443 q 213 665 135 613 q 396 717 292 717 q 508 700 454 717 q 606 644 563 683 q 674 542 649 606 q 699 386 700 478 l 232 378 q 252 226 232 292 q 318 122 272 160 q 439 83 364 83 q 510 95 472 83 q 586 131 549 107 q 653 192 624 156 l 706 143 q 604 40 660 76 q 493 -9 549 4 q 390 -22 438 -22 m 239 461 l 528 461 q 512 555 526 517 q 469 613 497 593 q 401 633 442 633 q 292 588 333 633 q 239 461 251 543 m 397 -262 q 340 -237 363 -262 q 318 -178 318 -212 q 342 -118 318 -143 q 397 -93 365 -93 q 452 -118 431 -93 q 474 -178 474 -143 q 452 -237 474 -212 q 397 -262 431 -262 m 569 790 l 393 938 l 392 938 l 214 800 l 163 858 l 394 1085 l 406 1085 l 622 853 l 569 790 z "},"ề":{"ha":749,"x_min":49,"x_max":706,"o":"m 390 -22 q 213 23 290 -22 q 92 151 135 68 q 49 346 49 233 q 92 528 49 443 q 213 665 135 613 q 396 717 292 717 q 508 700 454 717 q 606 644 563 683 q 674 542 649 606 q 699 386 700 478 l 232 378 q 252 226 232 292 q 318 122 272 160 q 439 83 364 83 q 510 95 472 83 q 586 131 549 107 q 653 192 624 156 l 706 143 q 604 40 660 76 q 493 -9 549 4 q 390 -22 438 -22 m 239 461 l 528 461 q 512 555 526 517 q 469 613 497 593 q 401 633 442 633 q 292 588 333 633 q 239 461 251 543 m 550 775 l 393 874 l 236 776 l 204 821 l 392 990 l 406 990 l 582 822 l 550 775 m 590 946 l 426 1093 q 397 1136 406 1113 q 394 1182 389 1160 q 415 1218 399 1204 q 453 1233 432 1231 q 494 1224 474 1235 q 532 1188 515 1214 l 646 994 l 590 946 z "},"ể":{"ha":749,"x_min":49,"x_max":729,"o":"m 390 -22 q 213 23 290 -22 q 92 151 135 68 q 49 346 49 233 q 92 528 49 443 q 213 665 135 613 q 396 717 292 717 q 508 700 454 717 q 606 644 563 683 q 674 542 649 606 q 699 386 700 478 l 232 378 q 252 226 232 292 q 318 122 272 160 q 439 83 364 83 q 510 95 472 83 q 586 131 549 107 q 653 192 624 156 l 706 143 q 604 40 660 76 q 493 -9 549 4 q 390 -22 438 -22 m 239 461 l 528 461 q 512 555 526 517 q 469 613 497 593 q 401 633 442 633 q 292 588 333 633 q 239 461 251 543 m 550 775 l 394 874 l 236 776 l 206 821 l 392 990 l 406 990 l 583 822 l 550 775 m 557 949 q 575 992 557 976 q 610 1025 593 1008 q 628 1050 621 1036 q 635 1081 635 1064 q 615 1126 635 1110 q 564 1143 594 1143 q 512 1130 529 1143 q 492 1104 494 1117 q 514 1094 506 1103 q 522 1072 522 1085 q 509 1044 522 1057 q 475 1032 496 1032 q 430 1050 449 1032 q 411 1096 411 1068 q 429 1153 411 1125 q 481 1198 447 1181 q 564 1215 515 1215 q 686 1181 643 1215 q 729 1092 729 1146 q 711 1036 729 1056 q 672 999 693 1017 q 644 973 656 986 q 633 949 633 960 l 557 949 z "},"ễ":{"ha":749,"x_min":49,"x_max":706,"o":"m 390 -22 q 213 23 290 -22 q 92 151 135 68 q 49 346 49 233 q 92 528 49 443 q 213 665 135 613 q 396 717 292 717 q 508 700 454 717 q 606 644 563 683 q 674 542 649 606 q 699 386 700 478 l 232 378 q 252 226 232 292 q 318 122 272 160 q 439 83 364 83 q 510 95 472 83 q 586 131 549 107 q 653 192 624 156 l 706 143 q 604 40 660 76 q 493 -9 549 4 q 390 -22 438 -22 m 239 461 l 528 461 q 512 555 526 517 q 469 613 497 593 q 401 633 442 633 q 292 588 333 633 q 239 461 251 543 m 550 775 l 394 874 l 236 776 l 206 821 l 392 990 l 407 990 l 583 822 l 550 775 m 665 1158 q 594 1043 639 1079 q 508 1007 549 1007 q 441 1022 469 1007 q 388 1053 413 1038 q 336 1068 363 1068 q 291 1056 317 1068 q 244 1010 265 1043 l 179 1049 q 245 1145 200 1107 q 335 1183 290 1183 q 404 1169 378 1185 q 453 1139 431 1154 q 508 1124 476 1124 q 558 1142 535 1124 q 600 1193 582 1161 l 665 1158 z "},"ë":{"ha":749,"x_min":49,"x_max":706,"o":"m 390 -22 q 213 23 290 -22 q 92 151 135 68 q 49 346 49 233 q 92 528 49 443 q 213 665 135 613 q 396 717 292 717 q 508 700 454 717 q 606 644 563 683 q 674 542 649 606 q 699 386 700 478 l 232 378 q 252 226 232 292 q 318 122 272 160 q 439 83 364 83 q 510 95 472 83 q 586 131 549 107 q 653 192 624 156 l 706 143 q 604 40 660 76 q 493 -9 549 4 q 390 -22 438 -22 m 239 461 l 528 461 q 512 555 526 517 q 469 613 497 593 q 401 633 442 633 q 292 588 333 633 q 239 461 251 543 m 510 839 q 451 867 476 839 q 426 935 426 894 q 452 1004 426 975 q 511 1033 478 1033 q 572 1004 549 1033 q 596 935 596 975 q 570 867 596 894 q 510 839 544 839 m 272 839 q 213 867 238 839 q 188 935 188 894 q 213 1004 188 975 q 272 1033 239 1033 q 333 1004 310 1033 q 357 935 357 975 q 331 867 357 894 q 272 839 306 839 z "},"ė":{"ha":749,"x_min":49,"x_max":706,"o":"m 390 -22 q 213 23 290 -22 q 92 151 135 68 q 49 346 49 233 q 92 528 49 443 q 213 665 135 613 q 396 717 292 717 q 508 700 454 717 q 606 644 563 683 q 674 542 649 606 q 699 386 700 478 l 232 378 q 252 226 232 292 q 318 122 272 160 q 439 83 364 83 q 510 95 472 83 q 586 131 549 107 q 653 192 624 156 l 706 143 q 604 40 660 76 q 493 -9 549 4 q 390 -22 438 -22 m 239 461 l 528 461 q 512 555 526 517 q 469 613 497 593 q 401 633 442 633 q 292 588 333 633 q 239 461 251 543 m 393 828 q 325 858 353 828 q 297 931 297 888 q 326 1004 297 974 q 393 1035 354 1035 q 460 1004 433 1035 q 488 931 488 974 q 461 858 488 888 q 393 828 435 828 z "},"ẹ":{"ha":749,"x_min":49,"x_max":706,"o":"m 390 -22 q 213 23 290 -22 q 92 151 135 68 q 49 346 49 233 q 92 528 49 443 q 213 665 135 613 q 396 717 292 717 q 508 700 454 717 q 606 644 563 683 q 674 542 649 606 q 699 386 700 478 l 232 378 q 252 226 232 292 q 318 122 272 160 q 439 83 364 83 q 510 95 472 83 q 586 131 549 107 q 653 192 624 156 l 706 143 q 604 40 660 76 q 493 -9 549 4 q 390 -22 438 -22 m 239 461 l 528 461 q 512 555 526 517 q 469 613 497 593 q 401 633 442 633 q 292 588 333 633 q 239 461 251 543 m 397 -262 q 340 -237 363 -262 q 318 -178 318 -212 q 342 -118 318 -143 q 397 -93 365 -93 q 452 -118 431 -93 q 474 -178 474 -143 q 452 -237 474 -212 q 397 -262 431 -262 z "}}}
